<svg id="Layer_1" data-name="Layer 1" xmlns="http://www.w3.org/2000/svg" viewBox="0 0 160 160"><defs><style>.cls-1{fill:#3ccb5a;}.cls-2{fill:#52306c;}.cls-3{fill:none;stroke:#fff;stroke-linecap:round;stroke-linejoin:round;stroke-width:2px;opacity:0.4;isolation:isolate;}.cls-4{fill:#fff;}</style></defs><title>configuring-a-repository</title><path class="cls-1" d="M48.18,119A7.21,7.21,0,0,1,41,111.82V48.18A7.21,7.21,0,0,1,48.18,41h63.64A7.21,7.21,0,0,1,119,48.18v63.65a7.2,7.2,0,0,1-7.18,7.17H48.18Z"/><path class="cls-2" d="M111.82,42A6.2,6.2,0,0,1,118,48.18v63.65a6.2,6.2,0,0,1-6.18,6.18H48.18A6.2,6.2,0,0,1,42,111.82V48.18A6.2,6.2,0,0,1,48.18,42h63.64m0-2H48.18A8.19,8.19,0,0,0,40,48.18v63.65A8.19,8.19,0,0,0,48.18,120h63.64a8.19,8.19,0,0,0,8.18-8.18V48.18A8.19,8.19,0,0,0,111.82,40h0Z"/><path class="cls-3" d="M45.92,72.2V69.53"/><path class="cls-3" d="M45.92,64V51.76A5.76,5.76,0,0,1,51.68,46H72.2"/><path class="cls-4" d="M80,106.57a3.76,3.76,0,0,1-2-.57l-6.51-3.84c-0.92-.58-0.5-0.75-0.17-0.83A13.15,13.15,0,0,0,74.2,100a0.39,0.39,0,0,1,.5.08l5,2.92a0.71,0.71,0,0,0,.58,0L99.73,91.72a0.51,0.51,0,0,0,.25-0.58V68.78a0.76,0.76,0,0,0-.25-0.58L80.29,56.93a0.71,0.71,0,0,0-.58,0L60.27,68.2a0.65,0.65,0,0,0-.25.58V91.3a0.76,0.76,0,0,0,.25.58L65.61,95c2.84,1.42,4.67-.25,4.67-1.92V70.7a0.56,0.56,0,0,1,.5-0.58h2.5a0.56,0.56,0,0,1,.58.5h0V92.81c0,3.84-2.09,6.09-5.76,6.09a8,8,0,0,1-4.42-1.25l-5.17-2.92a4.17,4.17,0,0,1-2.09-3.59V68.78a4,4,0,0,1,2.09-3.59L78,53.93a4.42,4.42,0,0,1,4.09,0l19.44,11.26a4.17,4.17,0,0,1,2.09,3.59V91.3a4,4,0,0,1-2.09,3.59L82,106.15a5.73,5.73,0,0,1-2,.42h0Zm6-15.43c-8.59,0-10.26-3.92-10.26-7.17a0.56,0.56,0,0,1,.5-0.58h2.5a0.61,0.61,0,0,1,.58.5h0c0.42,2.59,1.5,3.84,6.67,3.84,4.09,0,5.84-.92,5.84-3.17,0-1.25-.5-2.17-6.84-2.84C79.65,81.14,76.4,80,76.4,75.8c0-4,3.25-6.26,8.93-6.26,6.26,0,9.34,2.09,9.76,6.84a0.88,0.88,0,0,1-.17.42,0.31,0.31,0,0,1-.4.18H92a0.63,0.63,0,0,1-.58-0.42c-0.6-2.68-2.1-3.56-6.11-3.56-4.42,0-5,1.58-5,2.75,0,1.42.58,1.84,6.67,2.59s8.84,1.92,8.84,6.09-3.59,6.67-9.76,6.67C86.13,91.14,86,91.14,86,91.14Z"/></svg>