<svg id="Layer_1" data-name="Layer 1" xmlns="http://www.w3.org/2000/svg" viewBox="0 0 160 160"><defs><style>.cls-1{fill:#5050aa;}.cls-2,.cls-4{fill:#30306b;}.cls-3{fill:#7d7dcc;}.cls-4{stroke:#30306b;stroke-miterlimit:10;}</style></defs><title>configuring-a-database</title><polygon class="cls-1" points="30.41 103.57 79.59 131.62 80.41 116.44 30.41 87.56 30.41 103.57"/><polygon class="cls-2" points="80.33 115.8 128.76 87.26 80.33 58.37 30.97 87.26 80.33 115.8"/><polygon class="cls-3" points="129.77 102.55 79.95 131.62 79.67 116.44 129.77 87.56 129.77 102.55"/><path class="cls-4" d="M79.91,58.37L30,87.26v16l49.91,28.9L130,103.29v-16Zm0,72.24h0Zm48.85-28.06L80.68,130.34V116H79.33v14.35l-48-27.79V88.65L79.9,116.43l0.74-1.12L32.08,87.55l47.83-27.6,48,27.61L79.29,115.34l0.8,1.12,48.67-27.8v13.89h0Z"/><polygon class="cls-1" points="30.41 88.29 79.59 116.35 80.41 101.16 30.41 72.26 30.41 88.29"/><polygon class="cls-2" points="80.33 100.51 128.76 71.99 80.33 43.1 30.97 71.99 80.33 100.51"/><polygon class="cls-3" points="129.77 87.26 79.95 116.35 79.67 101.16 129.77 72.26 129.77 87.26"/><path class="cls-4" d="M79.91,43.14L30,72V87.93l49.91,28.92L130,87.93V72Zm0,72.2h0Zm48.85-28.06L80.68,115.07V100.66H79.33v14.41l-48-27.8V73.37L79.9,101.16,80.64,100,32.08,72.26l48-27.61L128,72.26,79.29,100.05l0.8,1.12,48.67-27.8V87.26h0Z"/><polygon class="cls-1" points="30.41 73.01 79.59 101.06 80.41 85.88 30.41 56.98 30.41 73.01"/><polygon class="cls-2" points="80.33 85.23 128.76 56.71 80.33 27.82 30.97 56.71 80.33 85.23"/><polygon class="cls-3" points="129.77 71.99 79.95 101.06 79.67 85.88 129.77 56.98 129.77 71.99"/><path class="cls-4" d="M79.91,27.81L30,56.74v15.9l49.91,28.9L130,72.64V56.74Zm0,72.24h0ZM128.76,72L80.68,99.77V85.46H79.33V99.72L31.34,72V58.1L79.91,85.82l0.74-1.12L32.09,56.93,79.91,29.39l48,27.59L79.29,84.77l0.8,1.12L128.81,58.1V72h-0.05Z"/></svg>