<svg xmlns="http://www.w3.org/2000/svg" xmlns:xlink="http://www.w3.org/1999/xlink" viewBox="0 0 460 283.72"><defs><style>.cls-1,.cls-10,.cls-11,.cls-14,.cls-18,.cls-19,.cls-25,.cls-29,.cls-31,.cls-36,.cls-37,.cls-4,.cls-47,.cls-48,.cls-49,.cls-9{fill:none;}.cls-2{isolation:isolate;}.cls-3{clip-path:url(#clip-path);}.cls-38,.cls-4{stroke:#f9e4c7;stroke-width:2.6px;}.cls-10,.cls-11,.cls-14,.cls-18,.cls-19,.cls-21,.cls-23,.cls-25,.cls-26,.cls-29,.cls-31,.cls-32,.cls-35,.cls-36,.cls-37,.cls-38,.cls-39,.cls-4,.cls-40,.cls-43,.cls-44,.cls-46,.cls-48,.cls-49,.cls-5,.cls-52,.cls-53,.cls-6{stroke-linecap:round;stroke-linejoin:round;}.cls-23,.cls-5,.cls-51,.cls-52,.cls-53,.cls-6{fill:#853cbe;}.cls-11,.cls-13,.cls-14,.cls-19,.cls-29,.cls-31,.cls-32,.cls-35,.cls-36,.cls-39,.cls-40,.cls-43,.cls-44,.cls-45,.cls-46,.cls-5,.cls-52,.cls-53,.cls-6,.cls-9{stroke:#52306c;}.cls-21,.cls-23,.cls-25,.cls-5{stroke-width:2.12px;}.cls-13,.cls-14,.cls-26,.cls-37,.cls-6{stroke-width:2.12px;}.cls-7{fill:#5b3777;}.cls-20,.cls-7{opacity:0.6;}.cls-13,.cls-8{fill:#ccadd2;}.cls-15,.cls-8{opacity:0.2;}.cls-13,.cls-45,.cls-47,.cls-9{stroke-miterlimit:10;}.cls-9{stroke-width:2.07px;}.cls-10{stroke:#231f20;}.cls-10,.cls-11{stroke-width:4.23px;}.cls-10,.cls-41,.cls-50{opacity:0.15;}.cls-10,.cls-12,.cls-15,.cls-28{mix-blend-mode:multiply;}.cls-12,.cls-16,.cls-28,.cls-50{fill:#231f20;}.cls-12{opacity:0.12;}.cls-17{fill:#52306c;}.cls-18,.cls-47,.cls-48{stroke:#fff;}.cls-18{stroke-width:1.38px;}.cls-19,.cls-31,.cls-36{stroke-width:3.32px;}.cls-21,.cls-26{fill:#808285;}.cls-21,.cls-23,.cls-25,.cls-26,.cls-37{stroke:#5b3777;}.cls-22{opacity:0.4;}.cls-24,.cls-34{opacity:0.3;}.cls-27{clip-path:url(#clip-path-3);}.cls-28{opacity:0.1;}.cls-29,.cls-32,.cls-35{stroke-width:2.76px;}.cls-30{clip-path:url(#clip-path-4);}.cls-31{stroke-dasharray:6.63;}.cls-32{fill:#c2e8f6;}.cls-33,.cls-40{fill:#f5a11b;}.cls-34{fill:#be1e2d;mix-blend-mode:soft-light;}.cls-35{fill:#d9f0f9;}.cls-36{stroke-dasharray:7.19;}.cls-38{fill:#f9e4c7;}.cls-39{fill:#d48c5f;}.cls-39,.cls-40,.cls-52{stroke-width:2.33px;}.cls-42{clip-path:url(#clip-path-5);}.cls-43{fill:#fff;}.cls-43,.cls-44,.cls-45,.cls-46,.cls-47,.cls-48,.cls-53{stroke-width:2.23px;}.cls-44{fill:#251832;}.cls-45{fill:#f28f21;}.cls-49{stroke:#f5a11b;stroke-width:2px;}</style><clipPath id="clip-path"><rect class="cls-1" width="460" height="283.72"/></clipPath><clipPath id="clip-path-3"><path class="cls-1" d="M339.7,369.43c4.3,77.37-4,87.79-109.43,87.79s-113.65-10.47-109.34-87.83c3-54.63,20.53-128.87,20.53-128.87l6.17-34.75S146.15,94.6,171.86,74.23c11.43-9.06,29-17.43,59.09-17.43s45.5,7.84,57.73,15.84c27.1,17.71,24.57,111.81,23.93,133.13,0,0,4.07,23.61,6.47,34.75,6.15,28.47,17.49,74.24,20.53,128.87"/></clipPath><clipPath id="clip-path-4"><polygon class="cls-1" points="300.41 36.73 283.17 55.61 162.17 55.19 329.07 66.87 328.42 60.8 365.19 54.61 365.19 98.08 91.25 98.08 91.25 31.79 300.41 36.73"/></clipPath><clipPath id="clip-path-5"><path class="cls-1" d="M381.47,240.68c-0.71-2.34-3.57-8.33-12.41-7s-13.37,8-35.74,14.82l-0.87-2.87a2,2,0,0,0-2.49-1.33l-5.56,1.68a101.75,101.75,0,0,0-35.83-43.7l2.74-5.12a2,2,0,0,0-.82-2.71L287.85,193c11.08-20.6,18.57-23.76,21.54-32.14s-2.32-12.4-4.47-13.55-8.41-3.37-13.75,3.79-3.8,15.11-14.79,35.75l-2.64-1.41a2,2,0,0,0-2.71.82l-2.74,5.12a101.75,101.75,0,0,0-56.24-5.57l-1.68-5.55a2,2,0,0,0-2.49-1.33l-2.87.87c-6.73-22.4-3.67-29.93-7.49-38s-10.41-7.12-12.74-6.42-8.33,3.57-7,12.41,8,13.37,14.82,35.74l-2.87.87a2,2,0,0,0-1.33,2.49l1.68,5.55a101.75,101.75,0,0,0-43.7,35.83l-5.11-2.74a2,2,0,0,0-2.71.82L137.11,229C116.51,218,113.35,210.48,105,207.5s-12.4,2.32-13.55,4.47-3.37,8.41,3.79,13.75,15.11,3.8,35.75,14.79l-1.41,2.64a2,2,0,0,0,.82,2.71l5.11,2.74a101.75,101.75,0,0,0-5.57,56.24l-5.55,1.68A2,2,0,0,0,123,309l0.87,2.87h0c-18.1,5.44-26.49,4.48-33.28,5.94l-0.08,0-0.67.16-0.11,0-0.59.16-0.18,0-0.6.19-0.16,0-0.55.19-0.21.07-0.53.21-0.23.09-0.75.34q-0.76.36-1.41,0.75a13.58,13.58,0,0,0-1.77,1.27,11.54,11.54,0,0,0-1.32,1.26,10.07,10.07,0,0,0-.7.9,9.38,9.38,0,0,0-1,1.84,9.23,9.23,0,0,0-.36,1.12,10.66,10.66,0,0,0,.13,5.6,10.09,10.09,0,0,0,5.75,6.45,12.72,12.72,0,0,0,6.65.59l0.82-.14L93,339l0.52-.11,0.3-.08,0.48-.12,0.27-.08,0.5-.15,0.26-.09,0.49-.17L96,338.1l0.56-.21,0.09,0c6.45-2.56,12.9-8,31-13.52h0l0.87,2.87a2,2,0,0,0,1,1.18,2,2,0,0,0,.35.15,2,2,0,0,0,1.17,0l5.55-1.68a101.75,101.75,0,0,0,35.84,43.7l-2.74,5.12a2,2,0,0,0-.21.69s0,0,0,.07a2,2,0,0,0,1,1.95l2.64,1.41c-8.63,16-15.08,21.51-18.91,27.1l0,0-0.37.55-0.08.13-0.31.5-0.12.19-0.27.46-0.13.23-0.23.43-0.15.28-0.2.43-0.14.3-0.18.42-0.14.33c-0.07.18-.14,0.36-0.2,0.54l-0.09.24a14.56,14.56,0,0,0-.88,4.28,9.87,9.87,0,0,0,.76,4.36,9.31,9.31,0,0,0,.43.86,10.6,10.6,0,0,0,4.17,4,10.09,10.09,0,0,0,8.63.49,12.72,12.72,0,0,0,5.12-4.28q0.25-.33.48-0.67l0.12-.18,0.32-.5,0.12-.2,0.29-.49,0.11-.21,0.27-.5,0.1-.19,0.26-.52L172,418l0.26-.56,0.06-.13,0.26-.62v0c2.52-6.29,3.49-14.69,12.05-30.77h0l2.64,1.41a2,2,0,0,0,2.63-.71l0.07-.11,2.74-5.12A101.75,101.75,0,0,0,248.94,387l0.95,3.13,0.73,2.42a2,2,0,0,0,.09.22,2,2,0,0,0,2.4,1.12L256,393h0c5.24,17.45,4.54,25.87,5.79,32.54v0c0,0.22.09,0.44,0.13,0.66l0,0.14c0,0.2.09,0.39,0.14,0.59l0,0.19c0,0.17.09,0.35,0.14,0.52l0.07,0.25c0,0.17.1,0.33,0.15,0.49l0.08,0.27c0.05,0.16.11,0.32,0.17,0.48l0.1,0.28,0.2,0.51,0.1,0.25q0.16,0.38.34,0.75c1.92,4,4.52,5.81,6.93,6.5a9.71,9.71,0,0,0,1.76.33c0.28,0,.56,0,0.83,0a10.91,10.91,0,0,0,3.22-.45,10,10,0,0,0,6.81-6.84,13.55,13.55,0,0,0,.23-5.57q-0.06-.41-0.14-0.82l-0.06-.28c0-.17-0.07-0.35-0.11-0.52l-0.08-.31c0-.16-0.08-0.31-0.12-0.47l-0.08-.28c0-.16-0.09-0.32-0.14-0.48l-0.09-.26-0.17-.49-0.07-.2-0.21-.56,0-.11-0.26-.64h0c-2.66-6.24-7.92-12.86-13.24-30.29v0l2.87-.87a2,2,0,0,0,1-.65,2,2,0,0,0,.37-0.74,2,2,0,0,0,.07-0.7h0a2,2,0,0,0-.08-0.4L271,380.29a101.75,101.75,0,0,0,43.69-35.83l5.13,2.74a2,2,0,0,0,.69.21h0.07a2,2,0,0,0,1.95-1l1.41-2.64c16.07,8.64,21.53,15.1,27.13,18.93h0l0.56,0.37,0.12,0.08,0.5,0.31,0.19,0.12,0.46,0.27,0.23,0.13,0.43,0.23,0.28,0.15,0.43,0.2,0.3,0.14,0.42,0.18,0.33,0.14,0.54,0.2,0.24,0.09a14.56,14.56,0,0,0,4.28.88,9.87,9.87,0,0,0,4.36-.76,10.55,10.55,0,0,0,4.91-4.59,10.84,10.84,0,0,0,.9-2.31,10.09,10.09,0,0,0,.32-3.37,9.29,9.29,0,0,0-.36-1.94,10.63,10.63,0,0,0-2.38-4.1,15.77,15.77,0,0,0-2.27-2l-0.1-.07-0.57-.41-0.26-.17-0.42-.27-0.29-.17-0.4-.24-0.26-.14-0.44-.24-0.22-.11-0.49-.24-0.17-.08-0.56-.25-0.07,0-0.68-.29h0c-6.29-2.52-14.69-3.49-30.77-12.05h0l1.41-2.64a2,2,0,0,0-.71-2.63l-0.11-.07-5.13-2.74A101.75,101.75,0,0,0,331.07,268l5.56-1.68a2,2,0,0,0,1.33-2.49l-0.87-2.87c22.4-6.73,29.93-3.67,38-7.49S382.17,243,381.47,240.68ZM262.06,356.35l-4.12-13.59,0.39-.12a2.81,2.81,0,0,0-1.63-5.38l-2,.59h0l-0.63-.74-0.21-.26-0.49-.63-0.25-.34-0.51-.72-0.24-.35c-0.25-.37-0.5-0.76-0.75-1.18h0c-0.25-.41-0.49-0.84-0.73-1.29l-0.22-.43q-0.25-.49-0.49-1l-0.24-.53c-0.16-.35-0.31-0.72-0.45-1.09l-0.2-.51c-0.2-.55-0.4-1.11-0.58-1.69h0a57.75,57.75,0,0,1-1.89-15.34,30,30,0,0,0,5.28-4.33c0.94,0.19,2,.43,3.18.72l0.28,0.07,1.16,0.3,0.32,0.09c0.86,0.24,1.75.5,2.65,0.78l1.3,0.43q0.89,0.31,1.77.65l1.07,0.43q0.76,0.32,1.51.67t1.45,0.73c0.54,0.29,1.05.59,1.55,0.9l0.46,0.29c0.34,0.22.67,0.44,1,.66l0.47,0.34,0.89,0.68,0.37,0.3c0.39,0.32.77,0.64,1.12,1h0c0.36,0.33.69,0.65,1,1l0.29,0.3,0.61,0.65,0.28,0.31,0.52,0.61,0.22,0.26,0.61,0.77h0l-1,1.81a2.79,2.79,0,0,0-.32,1.61,2.83,2.83,0,0,0,1,1.88,2.8,2.8,0,0,0,.47.32,2.74,2.74,0,0,0,.31.13,2.79,2.79,0,0,0,.76.19,2.82,2.82,0,0,0,2.74-1.47l0.19-.36,12.52,6.7A76.36,76.36,0,0,1,262.06,356.35Zm-60.59-28.92c-0.32.39-.64,0.76-1,1.11l0,0c-0.32.36-.65,0.69-1,1l-0.3.29-0.64.61-0.31.28-0.61.52-0.26.22-0.77.61h0l-1.81-1a2.82,2.82,0,0,0-3.81,1.15,2.79,2.79,0,0,0-.32,1.07,2.84,2.84,0,0,0,.61,2,2.79,2.79,0,0,0,.86.71l0.36,0.19-6.7,12.53A76.36,76.36,0,0,1,160.53,318l13.6-4.12,0.12,0.39a2.81,2.81,0,0,0,3.51,1.88,2.79,2.79,0,0,0,1.54-1.19,2.82,2.82,0,0,0,.42-1.12,2.77,2.77,0,0,0,0-.64,2.8,2.8,0,0,0-.11-0.56l-0.59-2h0l0.74-.63,0.26-.21,0.63-.49L181,309l0.72-.51,0.35-.24c0.37-.25.76-0.5,1.18-0.75h0c0.41-.25.84-0.49,1.29-0.73l0.43-.22,1-.49,0.53-.24,1.09-.45,0.51-.2c0.55-.2,1.11-0.4,1.69-0.58h0a40.8,40.8,0,0,1,6.45-1.33l0.82-.1c1.9-.22,3.75-0.34,5.4-0.4l0.7,0,2,0A30,30,0,0,0,209.5,308q-0.12.6-.27,1.27l-0.18.81c-0.34,1.46-.76,3.09-1.28,4.78l-0.13.42c-0.19.6-.39,1.21-0.6,1.82l-0.2.56c-0.32.87-.66,1.73-1,2.57l-0.21.46c-0.3.67-.62,1.33-1,2s-0.59,1.05-.9,1.55l-0.29.46c-0.22.34-.44,0.67-0.66,1l-0.34.47q-0.34.46-.68,0.89ZM158.7,259.24l12.53,6.71-0.19.36a2.81,2.81,0,0,0,5,2.65l1-1.81a29.32,29.32,0,0,1,11.87,3.38A57.7,57.7,0,0,1,201,280a30,30,0,0,0-.67,6.82,57.7,57.7,0,0,1-13.8,6.93c-0.59.18-1.16,0.33-1.73,0.46l-0.53.12-1.16.23-0.57.09-1.11.15-0.48.05c-0.51,0-1,.09-1.48.11h0c-0.48,0-.95,0-1.4,0h-0.42l-0.89,0-0.42,0-0.8-.06-0.33,0-1-.11-0.59-2a2.82,2.82,0,0,0-3.51-1.88,3.81,3.81,0,0,0-.83.43l-0.15.1a2.84,2.84,0,0,0-1,1.87,2.79,2.79,0,0,0,.1,1.11l0.12,0.39L154.78,299A76.36,76.36,0,0,1,158.7,259.24Zm59.2,31A13.16,13.16,0,1,1,234.31,299,13.16,13.16,0,0,1,217.9,290.2Zm46.46-49.52,1.81,1a2.81,2.81,0,0,0,2.65-5l-0.36-.19,6.7-12.53a76.36,76.36,0,0,1,25.3,30.86l-13.59,4.12-0.12-.39a2.81,2.81,0,0,0-5.38,1.63l0.59,2a29.32,29.32,0,0,1-10.79,6A57.74,57.74,0,0,1,255.83,270a30,30,0,0,0-4.33-5.29,57.73,57.73,0,0,1,4.86-14.67A29.32,29.32,0,0,1,264.36,240.68Zm37.93,72.86-12.52-6.7,0.19-.36a2.82,2.82,0,0,0-1.15-3.81l-0.22-.09a2.81,2.81,0,0,0-3.59,1.24l-1,1.81h0l-1-.08-0.34,0-0.79-.1-0.42-.06-0.87-.15-0.42-.08c-0.44-.09-0.89-0.19-1.36-0.3h0c-0.46-.12-0.94-0.25-1.42-0.4l-0.46-.15-1.06-.36-0.54-.2-1.09-.45-0.5-.22c-0.53-.24-1.07-0.5-1.61-0.79-0.77-.41-1.53-0.88-2.29-1.36l-0.93-.61q-0.77-.52-1.51-1.08c-0.77-.57-1.53-1.16-2.25-1.75s-1.39-1.17-2-1.74l-0.24-.22c-0.71-.64-1.38-1.26-2-1.83l-0.94-.92a30,30,0,0,0,.67-6.8A57.73,57.73,0,0,1,274.46,279a29.32,29.32,0,0,1,12.3-1l0.59,2a2.81,2.81,0,0,0,5.38-1.63l-0.12-.39,13.59-4.12A76.36,76.36,0,0,1,302.29,313.54ZM257.65,214.6l-6.7,12.53-0.36-.19a2.81,2.81,0,0,0-2.65,5l1.81,1a29.32,29.32,0,0,1-3.38,11.87,57.72,57.72,0,0,1-9.51,12.18,30,30,0,0,0-6.81-.67,57.71,57.71,0,0,1-6.93-13.8,29.32,29.32,0,0,1-1-12.3l2-.59a2.81,2.81,0,0,0-1.63-5.38l-0.39.12-4.12-13.6A76.36,76.36,0,0,1,257.65,214.6Zm-58.72,1.82,4.12,13.6-0.39.12a2.81,2.81,0,1,0,1.63,5.38l2-.59a29.32,29.32,0,0,1,6,10.79A57.72,57.72,0,0,1,214.15,261a30,30,0,0,0-5.3,4.34,57.71,57.71,0,0,1-14.66-4.86,29.32,29.32,0,0,1-9.4-8l1-1.81a2.81,2.81,0,1,0-5-2.65l-0.19.36-12.53-6.71A76.36,76.36,0,0,1,198.93,216.42Zm4.41,141.76,0.52-1,6.19-11.56,0.36,0.19a2.81,2.81,0,0,0,2.65-5l-1.81-1v0c0-.3,0-0.63.08-1,0-.11,0-0.22,0-0.33s0.06-.52.1-0.79l0.06-.42c0-.28.09-0.57,0.15-0.87,0-.14,0-0.27.08-0.41,0.09-.44.19-0.89,0.3-1.36h0c0.12-.46.25-0.94,0.4-1.43l0.15-.46q0.17-.52.36-1.06l0.2-.54c0.14-.36.29-0.73,0.45-1.09l0.22-.5c0.24-.53.5-1.07,0.79-1.6h0c0.34-.64.73-1.28,1.13-1.92s0.79-1.23,1.21-1.83l0.54-.76c0.84-1.15,1.73-2.26,2.61-3.3l0.3-.35c0.46-.53.91-1,1.35-1.53,0.83-.91,1.62-1.75,2.32-2.45l0,0a30,30,0,0,0,6.81.67l0.71,1.1a55.26,55.26,0,0,1,6.22,12.71c0.18,0.59.33,1.16,0.46,1.73,0,0.18.08,0.36,0.12,0.53,0.08,0.39.16,0.78,0.23,1.16q0,0.29.09,0.57,0.09,0.57.15,1.11c0,0.16,0,.32.05,0.48,0,0.5.09,1,.11,1.48h0c0,0.48,0,.95,0,1.4,0,0.14,0,.28,0,0.42,0,0.31,0,.6,0,0.89s0,0.28,0,.42,0,0.55-.06.81,0,0.22,0,.33c0,0.35-.07.68-0.11,1h0l-2,.59a2.81,2.81,0,0,0-1.88,3.51c0,0.08.06,0.14,0.09,0.22a2.77,2.77,0,0,0,.23.45,2.81,2.81,0,0,0,3.19,1.21l0.39-.12,4.12,13.59A76.36,76.36,0,0,1,203.35,358.18Z"/></clipPath></defs><title>errorbear-peeking</title><g class="cls-2"><g id="Error_Bear" data-name="Error Bear"><g class="cls-3"><circle class="cls-4" cx="230" cy="27.33" r="5.83"/><rect class="cls-1" x="-350" y="-733.32" width="1221" height="1501.63"/><g class="cls-3"><path class="cls-5" d="M339.7,369.43c4.3,77.37-4,87.79-109.43,87.79s-113.65-10.47-109.34-87.83c3-54.63,20.53-128.87,20.53-128.87l6.17-34.75S146.15,94.6,171.86,74.23c11.43-9.06,29-17.43,59.09-17.43s45.5,7.84,57.73,15.84c27.1,17.71,24.57,111.81,23.93,133.13,0,0,4.07,23.61,6.47,34.75,6.15,28.47,17.49,74.24,20.53,128.87"/><path class="cls-6" d="M158.68,99.72C154.58,85.46,128.9,84.07,130,66c0.75-12.41,20.24-23.4,31.39-20.72,18.36,4.41,20.06,21.05,21.47,36.45"/><path class="cls-7" d="M170.58,80.43s-1.52-14.55-15-18.28c-9.07-2.51-14.25,3.79-13.4,8.43,1.3,7,19.11,13,22,17.94"/><path class="cls-6" d="M300.32,97.44C304.42,83.18,330.05,84.07,329,66c-0.75-12.41-20.24-23.4-31.39-20.72-18.36,4.41-20.06,21.05-21.47,36.45"/><path class="cls-7" d="M288.23,81.51s1.53-15.8,15.08-19.55c9.11-2.52,14.32,3.81,13.46,8.47-1.3,7.07-19.2,14.25-22.1,19.21"/><path class="cls-8" d="M230,252.61c-14.81,0-51.65-2.54-51.65,70.79C178.37,406.33,196.71,439,230,439s51.65-32.69,51.65-115.63C281.68,250.07,244.83,252.61,230,252.61Z"/><path class="cls-9" d="M230,252.61c-14.81,0-51.65-2.54-51.65,70.79C178.37,406.33,196.71,439,230,439s51.65-32.69,51.65-115.63C281.68,250.07,244.83,252.61,230,252.61Z"/><g id="Face"><path class="cls-10" d="M175.83,108.94s5-8.14,14.92-8.14"/><path class="cls-11" d="M175.83,106.73s5-8.14,14.92-8.14"/><path class="cls-10" d="M284.7,106.93s-6.94-6.59-16.5-4.07"/><path class="cls-11" d="M284.7,104.71s-6.94-6.59-16.5-4.07"/><path class="cls-12" d="M209.17,130.25c11.95-17.12,63.78-12.1,42.57,42.72-3.08,8-6.73,15.83-10.16,23.67-0.37.43-.64-1.68-1.39-1.46-3.66,6-8.17,3.25-12-2.24-1.06,1.19-8.63,3.38-9.73,4.54C207.11,183.73,197.22,147.37,209.17,130.25Z"/><path class="cls-13" d="M207.25,126.92c1-2.79,6.1-10.79,9.06-12.24a31,31,0,0,1,26.59.24c2.95,1.49,5.3,4.26,7.85,9.27s9,21.56,1,42.11c-3.08,8-6.73,12.52-10.16,20.36-0.37.43-.64-1.68-1.39-1.46-3.66,6-8.17,3.25-12-2.24-1.06,1.19-8.63,3.38-9.73,4.54C207.11,173.75,200.22,146.58,207.25,126.92Z"/><line class="cls-14" x1="228.26" y1="164.79" x2="231.79" y2="164.79"/><g class="cls-15"><path class="cls-16" d="M245.1,131.34c-2-2.12-8.36-3.19-15.08-3.23s-13,1.12-15.08,3.23c-4.78,4.94,6.37,16.22,15.08,16.92C238.74,147.56,249.88,136.27,245.1,131.34Z"/></g><path class="cls-17" d="M245.1,129.93c-2-2.12-8.36-3.19-15.08-3.23s-13,1.12-15.08,3.23c-4.78,4.94,6.37,16.22,15.08,16.92C238.74,146.15,249.88,134.87,245.1,129.93Z"/><path class="cls-18" d="M241.48,131a45.17,45.17,0,0,0-22.85,0"/><line class="cls-14" x1="230.06" y1="164.53" x2="230.06" y2="146.6"/><line class="cls-19" x1="190.41" y1="112.92" x2="181.56" y2="121.77"/><line class="cls-19" x1="190.41" y1="121.77" x2="181.56" y2="112.92"/><line class="cls-19" x1="278.04" y1="112.92" x2="269.19" y2="121.77"/><line class="cls-19" x1="278.04" y1="121.77" x2="269.19" y2="112.92"/><g class="cls-20"><line class="cls-21" x1="153.12" y1="165.56" x2="153.12" y2="174.26"/><line class="cls-21" x1="158.64" y1="170.51" x2="158.64" y2="183.18"/><line class="cls-21" x1="164.17" y1="180.11" x2="164.17" y2="195.82"/><line class="cls-21" x1="169.69" y1="186.47" x2="169.69" y2="207.4"/><line class="cls-21" x1="175.21" y1="184.59" x2="175.21" y2="205.51"/><line class="cls-21" x1="180.73" y1="191.71" x2="180.73" y2="212.64"/><line class="cls-21" x1="186.25" y1="196.3" x2="186.25" y2="217.22"/><line class="cls-21" x1="191.78" y1="200.6" x2="191.78" y2="221.53"/><line class="cls-21" x1="197.3" y1="204.41" x2="197.3" y2="225.33"/><line class="cls-21" x1="202.82" y1="205.51" x2="202.82" y2="222.46"/><line class="cls-21" x1="208.34" y1="207.4" x2="208.34" y2="226.33"/><line class="cls-21" x1="213.87" y1="201.59" x2="213.87" y2="231.53"/><line class="cls-21" x1="219.39" y1="208.72" x2="219.39" y2="238.65"/><line class="cls-21" x1="224.91" y1="213.99" x2="224.91" y2="243.92"/><line class="cls-21" x1="230.43" y1="216.56" x2="230.43" y2="242.56"/><line class="cls-21" x1="235.96" y1="212.33" x2="235.96" y2="238.34"/><line class="cls-21" x1="241.48" y1="208.52" x2="241.48" y2="234.53"/><line class="cls-21" x1="247" y1="214.71" x2="247" y2="240.71"/><line class="cls-21" x1="252.52" y1="217.41" x2="252.52" y2="234.28"/><line class="cls-21" x1="258.05" y1="208.17" x2="258.05" y2="229.02"/><line class="cls-21" x1="263.57" y1="204.06" x2="263.57" y2="224.91"/><line class="cls-21" x1="269.09" y1="201.69" x2="269.09" y2="220.55"/><line class="cls-21" x1="274.61" y1="194.82" x2="274.61" y2="213.68"/><line class="cls-21" x1="280.14" y1="186.08" x2="280.14" y2="217.03"/><line class="cls-21" x1="285.66" y1="190.58" x2="285.66" y2="210.12"/><line class="cls-21" x1="291.18" y1="187.9" x2="291.18" y2="203.47"/><line class="cls-21" x1="296.7" y1="180.8" x2="296.7" y2="194.39"/><line class="cls-21" x1="302.23" y1="175.73" x2="302.23" y2="185.33"/><line class="cls-21" x1="307.75" y1="167.11" x2="307.75" y2="176.72"/></g><g class="cls-22"><line class="cls-21" x1="158.64" y1="154.77" x2="158.64" y2="163.72"/><line class="cls-21" x1="164.17" y1="161.65" x2="164.17" y2="172.58"/><line class="cls-21" x1="169.69" y1="165.56" x2="169.69" y2="179.72"/><line class="cls-21" x1="291.18" y1="170.1" x2="291.18" y2="179.04"/><line class="cls-21" x1="296.7" y1="160.98" x2="296.7" y2="171.92"/><line class="cls-21" x1="302.23" y1="155.83" x2="302.23" y2="163.38"/></g><g class="cls-22"><line class="cls-23" x1="180.86" y1="183.14" x2="180.86" y2="187.53"/><line class="cls-23" x1="247" y1="208.59" x2="247" y2="211.48"/><line class="cls-23" x1="274.61" y1="188.75" x2="274.61" y2="191.16"/><line class="cls-23" x1="280.14" y1="180.03" x2="280.14" y2="182.44"/><line class="cls-23" x1="175.21" y1="176.84" x2="175.21" y2="181.23"/><line class="cls-23" x1="202.82" y1="197.37" x2="202.82" y2="201.76"/><line class="cls-23" x1="224.91" y1="208.51" x2="224.91" y2="210.91"/><line class="cls-23" x1="191.78" y1="196.83" x2="191.78" y2="197.24"/><line class="cls-23" x1="269.09" y1="197.17" x2="269.09" y2="198.4"/><line class="cls-23" x1="197.3" y1="196.42" x2="197.3" y2="200.81"/></g><g class="cls-24"><line class="cls-25" x1="186.25" y1="170.68" x2="186.25" y2="175.04"/><line class="cls-25" x1="191.78" y1="174.98" x2="191.78" y2="184.51"/><line class="cls-25" x1="197.3" y1="182.48" x2="197.3" y2="189"/><line class="cls-25" x1="208.34" y1="192.13" x2="208.34" y2="199.93"/><line class="cls-25" x1="258.05" y1="190.14" x2="258.05" y2="198.22"/><line class="cls-25" x1="224.91" y1="194.81" x2="224.91" y2="202.33"/><line class="cls-25" x1="230.43" y1="201.17" x2="230.43" y2="208.7"/><line class="cls-25" x1="263.57" y1="178.8" x2="263.57" y2="192.99"/><line class="cls-25" x1="302.23" y1="146.05" x2="302.23" y2="151.32"/><line class="cls-25" x1="302.23" y1="140.43" x2="302.23" y2="141.73"/><line class="cls-25" x1="274.61" y1="175.51" x2="274.61" y2="182.96"/><line class="cls-25" x1="274.61" y1="167.53" x2="274.61" y2="171.44"/><line class="cls-25" x1="291.18" y1="151.32" x2="291.18" y2="164.62"/><line class="cls-25" x1="169.69" y1="149.81" x2="169.69" y2="159.8"/><line class="cls-25" x1="158.64" y1="142.09" x2="158.64" y2="148.04"/></g><g class="cls-24"><line class="cls-26" x1="224.56" y1="98.12" x2="224.56" y2="104.14"/><line class="cls-26" x1="230.08" y1="96.01" x2="230.08" y2="104.14"/><line class="cls-26" x1="235.6" y1="98.12" x2="235.6" y2="104.14"/></g></g><path class="cls-6" d="M214.78,63.53c6.7-8.56,15.08-15.15,23.54-13.1-1.85,2.45-3.55,6.49-5.32,8.91,4.88-4.67,7-3.57,12.38-3.76a41.49,41.49,0,0,0-4.58,8.67"/><g class="cls-27"><path class="cls-28" d="M312.29,106.77l-3.09-.12A13.42,13.42,0,0,0,305,97.8a7.74,7.74,0,0,0,.57-1,12.56,12.56,0,0,0-16.36-16.95,12.55,12.55,0,0,0-17.7,15.36A13.52,13.52,0,0,0,269.15,97a13.45,13.45,0,0,0,8.63,23.3L295.26,121h0.52a13.45,13.45,0,0,0,13.3-11.56l3.1,0.12h0.05A1.38,1.38,0,0,0,312.29,106.77Z"/></g><circle class="cls-29" cx="114.6" cy="13.67" r="4.42"/><circle class="cls-29" cx="318.68" cy="35.67" r="4.42"/><g class="cls-30"><ellipse class="cls-31" cx="229.88" cy="63.86" rx="19.61" ry="121.7" transform="translate(140.16 284.94) rotate(-83.44)"/></g><line class="cls-29" x1="302.09" y1="86.72" x2="312.23" y2="87.1"/><path class="cls-32" d="M272.93,74c2.25,5.75,18,15.43,18,15.43s5.07-17.8,2.83-23.56A11.19,11.19,0,0,0,272.93,74Z"/><path class="cls-33" d="M307.83,86.93a12.07,12.07,0,0,1-12.51,11.6l-17.48-.66a12.07,12.07,0,0,1-11.6-12.52h0a12.07,12.07,0,0,1,12.52-11.6l17.48,0.66a12.07,12.07,0,0,1,11.6,12.52h0Z"/><path class="cls-34" d="M300.79,75.5a12.05,12.05,0,0,1-11.38,17.17L271.93,92a12,12,0,0,1-4.56-1.09,12.06,12.06,0,0,0,10.47,7l17.48,0.66A12.07,12.07,0,0,0,300.79,75.5Z"/><path class="cls-29" d="M307.83,86.93a12.07,12.07,0,0,1-12.51,11.6l-17.48-.66a12.07,12.07,0,0,1-11.6-12.52h0a12.07,12.07,0,0,1,12.52-11.6l17.48,0.66a12.07,12.07,0,0,1,11.6,12.52h0Z"/><line class="cls-29" x1="285.49" y1="74.01" x2="284.63" y2="96.71"/><line class="cls-29" x1="295.4" y1="74.39" x2="294.54" y2="97.09"/><line class="cls-19" x1="305.12" y1="79.59" x2="304.57" y2="94.05"/><path class="cls-35" d="M304.36,75.19c-2.67,5.57-19.14,14-19.14,14s-3.71-18.13-1-23.7A11.19,11.19,0,1,1,304.36,75.19Z"/><circle class="cls-17" cx="273.24" cy="82.31" r="2.33" transform="translate(180.65 352.24) rotate(-87.83)"/><line class="cls-29" x1="168.08" y1="41.38" x2="163.24" y2="41.1"/><path class="cls-32" d="M191.57,33.12c-2.08,4.36-15,11-15,11s-2.94-14.18-.86-18.55A8.76,8.76,0,0,1,191.57,33.12Z"/><path class="cls-33" d="M163.58,41.22a9.45,9.45,0,0,0,9.1,9.77l13.68,0.48a9.45,9.45,0,0,0,9.77-9.11h0A9.45,9.45,0,0,0,187,32.6l-13.68-.48a9.45,9.45,0,0,0-9.77,9.11h0Z"/><path class="cls-34" d="M190.57,33.4a9.43,9.43,0,0,1-8.94,13.41l-13.68-.56a9.41,9.41,0,0,1-3.57-.86,9.44,9.44,0,0,0,8.18,5.46l13.68,0.56A9.44,9.44,0,0,0,190.57,33.4Z"/><path class="cls-29" d="M163.58,41.22a9.45,9.45,0,0,0,9.1,9.77l13.68,0.48a9.45,9.45,0,0,0,9.77-9.11h0A9.45,9.45,0,0,0,187,32.6l-13.68-.48a9.45,9.45,0,0,0-9.77,9.11h0Z"/><line class="cls-29" x1="181.76" y1="32.41" x2="181.13" y2="50.18"/><line class="cls-29" x1="174.01" y1="32.14" x2="173.38" y2="49.91"/><line class="cls-29" x1="166.12" y1="35.65" x2="165.72" y2="46.96"/><path class="cls-35" d="M167,32.25c1.77,4.5,14.13,12,14.13,12s3.94-13.94,2.17-18.44A8.76,8.76,0,1,0,167,32.25Z"/><circle class="cls-17" cx="190.85" cy="39.59" r="1.82" transform="matrix(0.04, -1, 1, 0.04, 144.55, 228.93)"/><ellipse class="cls-36" cx="227.74" cy="17.15" rx="99.31" ry="13.4" transform="translate(-0.64 16.64) rotate(-4.18)"/><line class="cls-29" x1="288.81" y1="23.29" x2="294.36" y2="22.72"/><path class="cls-32" d="M261,16.7c2.91,4.73,18.41,10.76,18.41,10.76S281,10.91,278.13,6.18A10.06,10.06,0,0,0,261,16.7Z"/><path class="cls-33" d="M293.92,22.57a10.85,10.85,0,0,1-9.21,12.26L269.14,37a10.85,10.85,0,0,1-12.26-9.22h0a10.85,10.85,0,0,1,9.22-12.26l15.56-2.21a10.85,10.85,0,0,1,12.26,9.22h0Z"/><path class="cls-34" d="M285.86,13.58a10.83,10.83,0,0,1-7.32,17L263,32.79a10.81,10.81,0,0,1-4.21-.23A10.84,10.84,0,0,0,269.14,37l15.56-2.21A10.84,10.84,0,0,0,285.86,13.58Z"/><path class="cls-29" d="M293.92,22.57a10.85,10.85,0,0,1-9.21,12.26L269.14,37a10.85,10.85,0,0,1-12.26-9.22h0a10.85,10.85,0,0,1,9.22-12.26l15.56-2.21a10.85,10.85,0,0,1,12.26,9.22h0Z"/><line class="cls-29" x1="272.1" y1="14.71" x2="274.96" y2="34.92"/><line class="cls-29" x1="280.92" y1="13.45" x2="283.79" y2="33.67"/><line class="cls-29" x1="290.35" y1="16.51" x2="292.17" y2="29.38"/><path class="cls-35" d="M289,12.73c-1.47,5.35-14.68,15.46-14.68,15.46s-6.18-15.44-4.71-20.8A10.06,10.06,0,1,1,289,12.73Z"/><circle class="cls-17" cx="262.59" cy="24" r="2.09" transform="translate(-0.77 37.11) rotate(-8.07)"/><path class="cls-5" d="M147.87,205.11c-24.24,27.21-41.42,45.12-50.68,96.17a7.32,7.32,0,0,0-1.74,12.82,111.64,111.64,0,0,0-.28,16.34c3.52,59,27.9,69.93,42.32,91s21.77,45.69,56.66,35.93,30.58-49,11.71-71c-20.22-23.62-43.82-28.15-60.77-69.77-11.12-27.31,6.07-77.19,6.07-77.19"/><path class="cls-5" d="M312.24,205.21C337,232,354.62,249.57,364.83,300.46a7.33,7.33,0,0,1,2,12.79,111.68,111.68,0,0,1,.59,16.34c-1.16,28.4-16.55,61.31-34.94,86.87-19.88,27.63-43.47,46.68-61.7,41.94-35.08-9.11-31.5-48.42-13-70.81,19.78-24,43.3-29,59.47-70.92,10.61-27.53-7.52-77.09-7.52-77.09"/><g id="Fur" class="cls-20"><line class="cls-37" x1="153.6" y1="257.73" x2="151.93" y2="271.02"/><line class="cls-37" x1="156.15" y1="271.55" x2="155.01" y2="280.65"/><line class="cls-37" x1="297.1" y1="280.12" x2="298.74" y2="295.55"/><line class="cls-37" x1="304.32" y1="275.8" x2="305.51" y2="287.02"/><line class="cls-37" x1="128.95" y1="237.23" x2="124.24" y2="246.35"/><line class="cls-37" x1="341.34" y1="260.17" x2="345.77" y2="268.8"/><line class="cls-37" x1="338.58" y1="249.77" x2="344.11" y2="257.9"/></g><path class="cls-6" d="M146.54,47.44c5.16-2.26,10.61-3.22,14.85-2.2,6.7,1.61,11.18,4.84,14.24,9.05"/></g><path class="cls-38" d="M115.28,126l6.29-5.44a12.67,12.67,0,0,1,16.56,0l6.29,5.44L139,119.74a12.67,12.67,0,0,1,0-16.56l5.44-6.29-6.29,5.44a12.67,12.67,0,0,1-16.56,0l-6.29-5.44,5.44,6.29a12.67,12.67,0,0,1,0,16.56Z"/><path class="cls-38" d="M103.58,65.79a7.35,7.35,0,0,1,6.8-6.8l4.81-.35-4.81-.35a7.35,7.35,0,0,1-6.8-6.8l-0.35-4.8-0.35,4.81a7.35,7.35,0,0,1-6.8,6.8l-4.81.35L96.08,59a7.35,7.35,0,0,1,6.8,6.8l0.35,4.81,0.35-4.81"/><path class="cls-38" d="M370.53,118.9a7.35,7.35,0,0,1,0-9.61l3.15-3.65L370,108.8a7.35,7.35,0,0,1-9.61,0l-3.65-3.15,3.15,3.65a7.35,7.35,0,0,1,0,9.61l-3.15,3.65,3.65-3.15a7.35,7.35,0,0,1,9.61,0l3.65,3.15-3.15-3.65"/><path class="cls-38" d="M361,41.29l0.47-6.5a9.93,9.93,0,0,1,9.18-9.18l6.5-.47-6.5-.47a9.93,9.93,0,0,1-9.18-9.18L361,9l-0.47,6.5a9.93,9.93,0,0,1-9.18,9.18l-6.5.47,6.49,0.49a9.93,9.93,0,0,1,9.18,9.18Z"/><rect class="cls-39" x="196.75" y="186.1" width="19.86" height="43.28" transform="translate(-51.33 68.81) rotate(-16.85)"/><path class="cls-39" d="M197.53,141.84c-3.84-8.07-10.41-7.12-12.74-6.42s-8.33,3.57-7,12.41,8.06,13.4,14.92,36.06l6.22-1.88,6.22-1.88C198.25,157.47,201.36,149.91,197.53,141.84Z"/><rect class="cls-39" x="188.77" y="181.47" width="23" height="10.17" rx="2" ry="2" transform="matrix(0.96, -0.29, 0.29, 0.96, -45.47, 66.04)"/><path class="cls-39" d="M222.62,227.58l-9.09,2.75-9.09,2.75a28.18,28.18,0,0,1,7.83,12.63c2.47,8.17,1.81,19.2,1.81,19.2l9.09-2.75,9.09-2.75s-6.67-8.8-9.14-17A28.18,28.18,0,0,1,222.62,227.58Z"/><rect class="cls-39" x="200.22" y="227.03" width="26.3" height="5.62" rx="2.81" ry="2.81" transform="translate(-57.45 71.7) rotate(-16.85)"/><rect class="cls-39" x="148.11" y="225.98" width="19.86" height="43.28" transform="translate(-134.85 270.13) rotate(-61.85)"/><path class="cls-39" d="M105,207.5c-8.42-3-12.4,2.32-13.55,4.47s-3.37,8.41,3.79,13.75,15.18,3.78,36,14.94l3.07-5.73,3.07-5.73C116.54,218,113.39,210.49,105,207.5Z"/><rect class="cls-39" x="127.02" y="232.09" width="23" height="10.17" rx="2" ry="2" transform="translate(-135.95 247.4) rotate(-61.85)"/><path class="cls-39" d="M183.34,250.38l-4.48,8.38-4.48,8.38a28.18,28.18,0,0,1,14.46,3.39c7.53,4,14.85,12.3,14.85,12.3l4.48-8.38,4.48-8.38s-10.94-1.51-18.47-5.54A28.18,28.18,0,0,1,183.34,250.38Z"/><rect class="cls-39" x="165.25" y="255.7" width="26.3" height="5.62" rx="2.81" ry="2.81" transform="translate(-133.7 293.83) rotate(-61.85)"/><path class="cls-40" d="M171.69,294.28l2.75,9.09,2.75,9.09a28.18,28.18,0,0,1,12.63-7.83c8.17-2.47,19.2-1.81,19.2-1.81l-2.75-9.09-2.75-9.09s-8.8,6.67-17,9.14A28.18,28.18,0,0,1,171.69,294.28Z"/><rect class="cls-39" x="299.22" y="240.93" width="19.86" height="43.28" transform="translate(470.87 -109.41) rotate(73.15)"/><path class="cls-39" d="M375.05,253.42c8.07-3.84,7.12-10.41,6.42-12.74s-3.57-8.33-12.41-7-13.4,8.06-36.06,14.92l1.88,6.22,1.88,6.22C359.42,254.14,367,257.25,375.05,253.42Z"/><rect class="cls-39" x="318.84" y="251.07" width="23" height="10.17" rx="2" ry="2" transform="matrix(0.29, 0.96, -0.96, 0.29, 479.77, -134.24)"/><path class="cls-39" d="M289.31,278.51l-2.75-9.09-2.75-9.09a28.18,28.18,0,0,1-12.63,7.83C263,270.62,252,270,252,270l2.75,9.09,2.75,9.09s8.8-6.67,17-9.14A28.18,28.18,0,0,1,289.31,278.51Z"/><rect class="cls-39" x="273.9" y="266.45" width="26.3" height="5.62" rx="2.81" ry="2.81" transform="translate(461.57 -83.5) rotate(73.15)"/><rect class="cls-39" x="259.34" y="192.29" width="19.86" height="43.28" transform="translate(132.8 -101.74) rotate(28.15)"/><path class="cls-39" d="M309.4,160.86c3-8.42-2.32-12.4-4.47-13.55s-8.41-3.37-13.75,3.79-3.78,15.18-14.94,36l5.73,3.07,5.73,3.07C298.86,172.43,306.4,169.28,309.4,160.86Z"/><rect class="cls-39" x="268.22" y="189.33" width="23" height="10.17" rx="2" ry="2" transform="translate(124.83 -108.98) rotate(28.15)"/><path class="cls-39" d="M266.51,239.23l-8.38-4.48-8.38-4.48a28.18,28.18,0,0,1-3.39,14.46c-4,7.53-12.3,14.85-12.3,14.85l8.38,4.48,8.38,4.48s1.51-10.94,5.54-18.47A28.18,28.18,0,0,1,266.51,239.23Z"/><rect class="cls-39" x="245.23" y="231.48" width="26.3" height="5.62" rx="2.81" ry="2.81" transform="translate(141.12 -94.19) rotate(28.15)"/><path class="cls-39" d="M221.76,257.52a30.16,30.16,0,1,0,37.61,20.12A30.16,30.16,0,0,0,221.76,257.52ZM234.31,299a13.16,13.16,0,1,1,8.78-16.41A13.16,13.16,0,0,1,234.31,299Z"/><path class="cls-39" d="M200.86,188.53a102.25,102.25,0,1,0,127.49,68.23A102.25,102.25,0,0,0,200.86,188.53Zm51.88,171.33A76.77,76.77,0,1,1,304,264.14,76.77,76.77,0,0,1,252.74,359.86Z"/><g class="cls-41"><g class="cls-42"><path class="cls-17" d="M180.78,154.38a189.66,189.66,0,0,1,44.56-7.46c12.5-.64,24.83-0.8,33.83-0.44,17.17,0.69,18.25,3,18.32,3.29,0,0,.24,1.21-5.14,3.76l-0.1.05c-1,.61-3,0.58-5.49-0.09a22,22,0,0,1-6-2.6,63.76,63.76,0,0,1,9.9,1.24,1.1,1.1,0,0,0,.54-2.13,64.86,64.86,0,0,0-10.51-1.32c-0.73,0-2.44-.16-2.94,1.06-0.31.75,0,1.54,1,2.34,2.41,2.06,10.84,5.63,14.65,3.4,4.35-2.07,6.36-3.84,6.36-5.64a2.58,2.58,0,0,0-.08-0.62c-0.49-1.94-3.25-4.26-20.36-4.95-9.06-.37-21.46-0.21-34,0.44a192.13,192.13,0,0,0-45.13,7.57c-2,.65-19.32,6.57-21.46,13.85a5.37,5.37,0,0,0,1.12,5,1.1,1.1,0,1,0,1.71-1.38,3.14,3.14,0,0,1-.72-3C162.28,161.53,175.72,156,180.78,154.38Z"/><path class="cls-17" d="M202.85,171c-0.07,0-6.81,1.94-20,1.55a1.1,1.1,0,0,0-1.13,1.07,1.08,1.08,0,0,0,1.07,1.13c13.56,0.4,20.37-1.56,20.65-1.64A1.1,1.1,0,0,0,202.85,171Z"/><path class="cls-17" d="M201.83,152.67a1.12,1.12,0,0,0,0-.14,1.1,1.1,0,0,0-2.19-.14c-0.08.6-2,14.64-17.8,15-8.71.21-10.87-1.33-11-1.94s2-3,8.88-5.09c4.37-1.3,6.06-1.35,6.67-1.27a3.73,3.73,0,0,1-.5.64,1.14,1.14,0,0,0-.14.17,10.08,10.08,0,0,1-8.27,3.9,1.1,1.1,0,0,0,0,2.2,12.34,12.34,0,0,0,10-4.78c0.51-.52,1.73-2,1-3.29-0.64-1.08-2.22-1.79-9.38.34-6.95,2.06-10.84,4.88-10.43,7.54s4.86,4,13.18,3.8C199.58,169.19,201.81,152.84,201.83,152.67Z"/><path class="cls-17" d="M135.2,157.86c2.63,0.64,4.14,2.66,3.66,4.89-0.88,4.14-7.71,7.54-20.61,5.2a36.27,36.27,0,0,1-7.45-1.86c3.15-1.17,14.84-1.93,17.07-1.56a1.1,1.1,0,1,0,.36-2.17,64.9,64.9,0,0,0-10.45.34c-8.58.83-9.5,2-9.68,3.1-0.28,1.6,1.2,2.76,9.76,4.31,14.43,2.61,22-1.59,23.15-6.91a6.15,6.15,0,0,0,.14-1.28c0-2.89-2.12-5.39-5.42-6.2-8.94-2.19-39.35,9.91-40.64,10.43a1.1,1.1,0,1,0,.82,2C96.2,168.07,126.93,155.84,135.2,157.86Z"/><path class="cls-17" d="M307.17,258.6c-0.1.68,0,1.94,2,2.73,7.08,2.92,43.75-19.47,47.9-22a1.1,1.1,0,0,0-1.15-1.87c-15.33,9.46-41.36,23.76-45.91,21.88a1.35,1.35,0,0,1-.62-0.38h0c0-.44,1.44-2.33,8-5.45a55.78,55.78,0,0,1,10.7-4,1.1,1.1,0,1,0-.26-2.18C325.13,247.57,307.81,254,307.17,258.6Z"/><path class="cls-17" d="M321.06,232.66c5.07,3.12,21.9-3.2,30.75-10.19,6.61-5.22,9.87-10.37,8.12-12.82-0.52-.73-2.21-2.13-6.5.66-2,1.3-4.37,3.07-6.86,4.94-5.5,4.12-12.35,9.26-15.75,9.26a1.1,1.1,0,1,0,0,2.2c4.13,0,10.71-4.93,17.07-9.69,2.46-1.85,4.79-3.59,6.74-4.85,2.44-1.58,3.45-1.31,3.52-1.22,0.38,0.52-.54,4.16-7.7,9.81-9.23,7.29-24.72,12.21-28.24,10a1.11,1.11,0,0,1-.47-1.38c1-4.85,29.52-20.47,47.28-29.17a1.1,1.1,0,0,0-1-2c-4.8,2.35-47,23.21-48.47,30.71A3.28,3.28,0,0,0,321.06,232.66Z"/><path class="cls-17" d="M129.44,256.89c8.23-.78,11.9-2.16,12.25-4.6s-3.2-5.17-11.94-8.69c-7.63-3.07-12.87-3.71-15.57-1.89a3.8,3.8,0,0,0-1.73,3.17,7.3,7.3,0,0,0,2.71,4.92c2,1.79,5.69,3.77,12,3.09,2.54-.27,4.25-0.74,4.34-2.16,0-.73.16-2.42-9.68-4.79a1.1,1.1,0,1,0-.51,2.14,42.41,42.41,0,0,1,7.31,2.37,15.92,15.92,0,0,1-1.69.26c-5.55.59-8.69-1.06-10.34-2.54a5.45,5.45,0,0,1-2-3.28,1.58,1.58,0,0,1,.76-1.35c0.93-.63,4.12-1.69,13.52,2.1,10.57,4.26,10.62,6.14,10.59,6.34s-0.37,1.78-10.29,2.73c-11.09,1.06-18.34-2.37-20.6-6.23a4,4,0,0,1,0-4.56c3.69-5.33,9.39-9.08,26-.45,10.82,5.62,11.71,11.42,10.53,14a2.72,2.72,0,0,1-3.48,1.62c-5.37-2.22-22.41.09-23.14,0.19a1.1,1.1,0,1,0,.3,2.18c4.76-.66,18-2,22-0.34a4.91,4.91,0,0,0,6.31-2.73,6.91,6.91,0,0,0,.63-2.93c0-4-3.1-9.2-12.13-13.9-18.16-9.44-24.75-4.72-28.81,1.15a6.22,6.22,0,0,0-.1,6.92C109.35,254,117.38,258,129.44,256.89Z"/><path class="cls-17" d="M116.23,343.82a1.1,1.1,0,0,0-.81,2c0.56,0.22,13.82,5.17,24.07-19.43a96.89,96.89,0,0,0,6.63-24.37c1.24-7.76,2.06-12.88,8.39-19.22a1.1,1.1,0,0,0-1.55-1.55c-6.84,6.84-7.75,12.54-9,20.43a95,95,0,0,1-6.49,23.87C128.1,348,116.73,344,116.23,343.82Z"/><path class="cls-17" d="M255.17,208.09c-12.26-4.63-33,3.86-44.67,14.69-9.78,9.07-18,22.15-14.08,28.52,1.67,2.69,6.17,4.95,18.15.4,13.83-5.24,37.27-15.73,38.91-27,0.53-3.6-1.16-6.91-5-9.83-4.35-3.31-10.47-3.28-17.7.09-12.16,5.67-24,18.95-24.28,25.1a3.29,3.29,0,0,0,1.57,3.23c5.3,3.12,21.14-1.22,29.73-8.15,5-4,6.9-8.34,5.54-12.47a6.14,6.14,0,0,0-4.76-4.53c-5.95-1.14-14.67,5.59-19,10.73-1.82,2.18-3.83,5.22-3,7.3,0.9,2.33,4,2.93,8.21,1.58,5.26-1.66,12.06-6.39,10.74-11.69-0.55-2.21-1.7-2.84-2.56-3-3.33-.53-7.64,5.85-8.88,7.82a1.1,1.1,0,1,0,1.86,1.17c2.14-3.39,5.41-7,6.67-6.83a1.73,1.73,0,0,1,.77,1.34c0.83,3.35-4.21,7.46-9.27,9.06-2.83.9-5.1,0.78-5.5-.28-0.17-.45.16-2.1,2.67-5.1,4.6-5.5,12.47-10.82,16.87-10a4,4,0,0,1,3.09,3.06c1.33,4-1.89,7.7-4.83,10.07-8.31,6.7-23.09,10.41-27.24,8a1.13,1.13,0,0,1-.49-1.24c0.23-4.81,11.08-17.65,23-23.21,4.49-2.09,10.82-3.85,15.44-.34,3.2,2.44,4.57,5,4.16,7.77-1.08,7.46-14.75,16.68-37.51,25.31-8.26,3.13-13.76,3.31-15.51.49-2.78-4.49,3.5-16.28,13.71-25.75,12.34-11.45,32.16-18.11,42.4-14.24,4.35,1.64,6.81,5,7.32,10,1.53,15-51.44,35.37-76.89,45.18-8.47,3.27-14.59,5.63-16.54,6.85-8.4,5.28-12.62,12.44-16.39,21.58-1.44,3.49-2.67,8.88-4.1,15.12-2.37,10.35-5.31,23.22-10.27,30.68-7.46,11.22-15.12,10.84-15.19,10.83h-0.25c-0.09,0-9.48,1.34-14.43-2.93a9.19,9.19,0,0,1-3-7.32c0-15.71,5.22-41,19.59-46.34a1.1,1.1,0,1,0-.76-2.06c-16.63,6.16-21,34.36-21,48.4a11.29,11.29,0,0,0,3.77,9c5.45,4.71,14.88,3.62,16.08,3.46,1.19,0,9.28-.13,17.06-11.81,5.18-7.79,8.18-20.88,10.59-31.4,1.41-6.14,2.62-11.45,4-14.77,3.71-9,7.59-15.57,15.52-20.56,1.76-1.11,8.12-3.56,16.16-6.66,38-14.64,78.33-31.49,78.33-46.61q0-.43,0-0.85C263.31,214.13,260.29,210,255.17,208.09Z"/><path class="cls-17" d="M124.7,288.7c0.1-.05,9.89-5.27,16.06-2.12a1.1,1.1,0,1,0,1-2c-7.2-3.68-17.67,1.9-18.11,2.14A1.1,1.1,0,0,0,124.7,288.7Z"/><path class="cls-17" d="M222,255.33c-8,4.19-16.21,8.53-21.19,10.35-1.34.49-2.8,1-4.34,1.51-14.42,4.91-36.22,12.34-42.46,40.8-2.72,12.41-2.47,14.83-.89,15.56,1.77,0.82,3.56-1.53,7.48-6.69,3.3-4.34,7.42-9.75,11.57-12.81a116.31,116.31,0,0,1,14.89-8.91c7.45-4,15.15-8.07,23.24-15.38,11.72-10.59,11.8-12.8,10.89-14.15s-2.77-2-15.34,4.1c-6.38,3.11-12,5.3-17,7.23-10.25,4-17.66,6.84-20.88,14.06-1.68,3.77-1.86,5.83-.6,6.92,2,1.73,6.19-.45,15.41-6.35l20-12.77A1.1,1.1,0,0,0,201.6,277l-20,12.77c-3.14,2-11.47,7.33-12.78,6.54,0,0-.46-0.73,1.16-4.37,2.86-6.4,9.55-9,19.67-12.91,5-1.95,10.74-4.16,17.2-7.31,8.88-4.33,11.62-4.78,12.43-4.75-0.28.81-1.88,3.47-10.42,11.2-7.89,7.13-15.47,11.17-22.8,15.07a117.92,117.92,0,0,0-15.16,9.08c-4.41,3.25-8.63,8.79-12,13.25a49.82,49.82,0,0,1-4.71,5.69c-0.11-1.16.16-4.32,2-12.77,6-27.26,27.07-34.44,41-39.19,1.55-.53,3-1,4.38-1.53,5.12-1.87,13.42-6.24,21.46-10.46,9-4.72,22.43-11.8,25-11.29a2.32,2.32,0,0,1-.11.37c-3,7.8-19.42,22.17-35.35,36.06l-2.7,2.36c-6.68,5.83-13.26,9.28-19.63,12.62-9.35,4.91-18.19,9.54-25.07,20.9-11,18.21-23.45,27.54-23.57,27.63a1.1,1.1,0,0,0,1.31,1.77c0.52-.39,12.88-9.66,24.14-28.26,6.56-10.84,14.74-15.13,24.21-20.09,6.48-3.4,13.19-6.91,20.06-12.92l2.7-2.36c16.13-14.07,32.82-28.62,36-36.94a3.68,3.68,0,0,0,.27-1.29,1.89,1.89,0,0,0-.64-1.48C247.32,242.35,239.84,246,222,255.33Z"/><path class="cls-17" d="M338.91,198.73c-1.73,1.16-42.37,28.64-53,44.2-8.24,12.05-18.67,21.35-24.27,21.62a2.87,2.87,0,0,1-2.51-1,1.73,1.73,0,0,1,0-1.41c2-9.13,29.32-39.58,47.55-48.39l0.56-.27c-1,.84-2.11,1.79-3.25,2.76-9.78,8.23-26.16,22-32.61,34.75a1.1,1.1,0,0,0,2,1c6.25-12.34,23-26.47,32.07-34.06,6.67-5.61,7.7-6.48,6.9-7.71-0.67-1-1.71-.78-6.57,1.56-17.49,8.45-46.52,39.53-48.74,49.91a3.72,3.72,0,0,0,.51,3.28,5,5,0,0,0,4.3,1.73c6.43-.32,17.11-9.6,26-22.58,10.4-15.22,52-43.34,52.42-43.62A1.1,1.1,0,0,0,338.91,198.73Z"/><path class="cls-17" d="M133.15,211.39a1.1,1.1,0,0,0,.76,2.06c20.55-7.57,54.37-16.61,57.6-8.6,3.82,9.45-9.55,33.89-16.61,39.07-0.55.4-1.88,1.28-2.46,0.79-2.93-2.42-6.91-9.54-10.41-15.83-2.69-4.82-5.24-9.38-7.32-12-1-1.25-1.35-2.27-1-3.06,1.33-3.27,13.3-4.68,17.23-5.14,5-.59,8.72.82,10.36,4,2,3.85.57,9.55-3.57,14.16-2.94,3.28-5.73,4.61-7.85,3.73-2.47-1-4-5-3.77-9.73,0.13-2.39.77-3.94,1.93-4.61,1.6-.92,3.89,0,4.52.26a4.69,4.69,0,0,1,1.16,3,4,4,0,0,1-1.66,2.8,1.1,1.1,0,0,0,1.4,1.69,6.09,6.09,0,0,0,2.46-4.38,7,7,0,0,0-1.89-4.81,1.08,1.08,0,0,0-.28-0.21c-0.16-.08-3.88-2-6.79-0.29-1.84,1.06-2.86,3.21-3,6.4-0.31,5.8,1.71,10.46,5.13,11.87,1.77,0.73,5.46,1.14,10.33-4.29s6.3-12,3.88-16.64c-2.06-4-6.64-5.84-12.56-5.14-12.21,1.44-17.72,3.32-19,6.49-0.65,1.58-.19,3.35,1.36,5.27,2,2.44,4.47,6.91,7.11,11.65,3.78,6.77,7.69,13.77,10.93,16.45,0.9,0.74,2.52,1.22,5.16-.72,6.84-5,18.16-24.76,18.16-36.83a12.93,12.93,0,0,0-.81-4.83C188.45,191.42,138.79,209.31,133.15,211.39Z"/><path class="cls-17" d="M281.07,185.42c-2.2.78-4.16,1.47-5.73,2-3.34,1.14-4.77,2.1-4.92,3.3a1.67,1.67,0,0,0,.84,1.63c3,2,18.68.83,27.73-4.55a1.1,1.1,0,1,0-1.12-1.89c-8.11,4.82-21.49,5.74-24.8,4.85a16,16,0,0,1,3-1.27c1.58-.54,3.54-1.23,5.75-2,6.21-2.2,14.72-5.21,21.81-7.25,11.59-3.33,13-2.18,13.12-2.07s0.24,1.44-6,6.66c-16.83,14.19-45.11,11.86-63.83,10.32-6.07-.5-10.86-0.9-13.91-0.59-12,1.19-30.9,5.57-31.09,5.61a1.1,1.1,0,0,0,.5,2.14c0.19,0,18.93-4.39,30.81-5.57,2.85-.28,7.56.11,13.51,0.6,19.07,1.57,47.9,3.95,65.42-10.83,4.66-3.93,6.76-6.47,6.76-8.31a2.19,2.19,0,0,0-.3-1.11C316.64,173.59,304.42,177.15,281.07,185.42Z"/><path class="cls-17" d="M90.08,263.41l-0.46.24v2.49l1.49-.79c3.73-2,6-3.15,6.47-5.21,0.27-1.18-.11-2.43-1.2-3.93a3.08,3.08,0,0,0-2.53-1.33,7.61,7.61,0,0,0-4.23,1.81v2.83c1.57-1.41,3.13-2.46,4.2-2.44a0.89,0.89,0,0,1,.78.43,3,3,0,0,1,.84,2.14C95.18,260.73,92.93,261.92,90.08,263.41Z"/><path class="cls-17" d="M94.8,269.22l2.06-1.33c4.13-2.65,7.39-4.74,7.53-7.61,0-.06,0-0.12,0-0.17,0-1.5-.9-2.93-2.75-4.37A18.26,18.26,0,0,1,98.91,253c-1.11-1.31-2.16-2.54-3.88-2.64-1.37-.08-3,0.57-5.42,2.33v2.77c2.6-2.06,4.27-3,5.28-2.9,0.75,0,1.31.67,2.34,1.87a20.35,20.35,0,0,0,3.05,3.05c1.3,1,1.94,1.92,1.9,2.71-0.08,1.74-3.21,3.74-6.52,5.87l-2.08,1.35a19.34,19.34,0,0,0-4,3.69v3.6A21.2,21.2,0,0,1,94.8,269.22Z"/><path class="cls-17" d="M98.06,275c1.6-2.92,5.17-5.27,8.31-7.35,3.63-2.39,6.77-4.46,6.77-7.22v0c0-1.71-1.28-3.33-3.86-4.94a14.44,14.44,0,0,1-6.08-7.8c-0.72-1.78-1.34-3.32-2.95-3.79-1.85-.55-4.45.58-9.6,4.18l-1,.75v2.7q1.14-.83,2.31-1.65c1.53-1.07,6.2-4.32,7.72-3.87,0.59,0.17,1,1.21,1.53,2.51a16.75,16.75,0,0,0,6.95,8.84c1.84,1.15,2.82,2.23,2.83,3.11v0c0,1.58-2.94,3.52-5.79,5.39-3.36,2.22-7.17,4.73-9,8.13a78.24,78.24,0,0,1-6.52,9.47v3.56A92.66,92.66,0,0,0,98.06,275Z"/><path class="cls-17" d="M351.45,260.24c-18.79,13.94-40.11,16.71-62.69,19.65-17,2.21-34.51,4.49-51.69,11.76-38.5,16.28-66.65,49.32-77.47,74.84-9.89,23.33-19.76,31.24-19.86,31.32a1.11,1.11,0,0,0-.19.19c-0.15.19-15.54,19.34-47.41,14.47q-1.33-.2-2.52-0.45v1.88h26.27c16-3.79,24.35-13.3,25.3-14.44,1.15-.94,10.7-9.18,20.43-32.12,10.65-25.11,38.37-57.63,76.31-73.67,16.91-7.15,34.3-9.41,51.12-11.6,22.86-3,44.46-5.79,63.71-20.06A261.2,261.2,0,0,1,382,243.3v-2.51A264.26,264.26,0,0,0,351.45,260.24Z"/><path class="cls-17" d="M379.34,183.3c-13.23,2.14-28.23,4.57-43.66,8.9-35.46,10-61.72,31.67-73.44,47.24q-1.92,2.56-3.88,5.21c-12.2,16.47-26,35.14-53.49,50.65-30.54,17.25-48.6,49.07-48.79,49.41-5.41,10.09-5.47,16.32-5.52,21.83,0,4.86-.09,9.07-3.62,15.27a22.24,22.24,0,0,0-1.8,2.65c-4.89,7.78-17.86,28.43-47.56,26-4-.33-6.71-1.32-8-2.93v2.92a16.88,16.88,0,0,0,7.78,2.19c31,2.57,44.52-18.91,49.6-27a21,21,0,0,1,1.61-2.38,1.11,1.11,0,0,0,.18-0.23c3.89-6.76,3.93-11.47,4-16.46,0.05-5.51.11-11.2,5.25-20.79,0.18-.31,17.95-31.61,47.94-48.55,27.86-15.74,41.84-34.61,54.17-51.25q2-2.64,3.87-5.2c12.42-16.5,39.59-37.27,72.28-46.44,15.3-4.3,30.24-6.71,43.41-8.84l2.3-.37v-2.23Z"/><path class="cls-17" d="M368.88,158.67c-11,3.29-22.71,4.58-34,5.82-14.7,1.62-28.58,3.14-41,8.75l-0.07,0c-0.29.16-29.74,15.73-93.32,20.45-50.95,3.78-79.46,15-110.85,34v2.57c31.57-19.21,59.94-30.6,111-34.39,63-4.67,92.9-20,94.16-20.69,12.13-5.45,25.83-7,40.34-8.55,11.38-1.25,23.15-2.54,34.38-5.9A38.84,38.84,0,0,0,382,154.48v-2.76A36.44,36.44,0,0,1,368.88,158.67Z"/><path class="cls-17" d="M343.29,184.58c-14.54,1.4-24.71,5.34-34.54,9.14-15.52,6-30.18,11.68-60.45,6.83-18.56-3-32.65,0-43.06,9-8.8,7.61-13.1,17.94-16.56,26.25a73.72,73.72,0,0,1-3.88,8.43c-4.21,7.17-8,10.57-11.66,10.38-4.18-.22-8.55-5.29-13-15.07-11-24.25-29.9-23-37.5-21.38-5.38,1.17-20.8,8.72-33,15v2.48c12.29-6.31,28.24-14.17,33.5-15.31,8.8-1.91,25.05-1.84,35,20.14C163,251.15,167.9,256.5,173,256.77c4.53,0.24,9-3.51,13.67-11.46a75.06,75.06,0,0,0,4-8.7c6.69-16.08,16.8-40.37,57.24-33.88,30.85,4.94,45.78-.83,61.59-7,9.69-3.75,19.72-7.63,34-9,19.15-1.85,31.21-6.7,38.49-11.07V173C375.12,177.42,363.08,182.67,343.29,184.58Z"/><path class="cls-17" d="M334.92,177.81c-7.39-1.52-9.22-2.6-9.67-3,1.74-1.65,14.16-3.41,22.47-4.59,7.93-1.13,15.42-2.19,19.23-3.45a13.53,13.53,0,0,1,4.22-.88c-1.4,1.55-8.06,5.51-21.59,6.73a1.1,1.1,0,0,0,.2,2.19c14.49-1.3,22.72-5.87,23.72-8.55a1.73,1.73,0,0,0-.34-1.87c-0.36-.37-1.45-1.5-6.9.3-3.63,1.2-11.37,2.3-18.86,3.37-17.31,2.46-24.36,3.76-24.45,6.71,0,1.77,1.85,3.22,11.52,5.21,19.39,4,36.56-4.5,47.52-12.29V165C371.48,172.74,354.31,181.81,334.92,177.81Z"/><path class="cls-17" d="M103.84,308.53c13.93-23,25.52-32.43,35.44-28.81a1.1,1.1,0,1,0,.75-2.06c-14.72-5.37-28.78,14.4-38.07,29.74a56.5,56.5,0,0,1-12.34,13.7V324C94.73,319.91,100.11,314.68,103.84,308.53Z"/><path class="cls-17" d="M103.94,298.17c2.75-3.9,5.87-8.33,9.66-13.22,9.8-12.68,18.32-10.8,25.83-9.14,7.11,1.57,13.82,3.05,18.8-8.67a23,23,0,0,0,1.83-9c0-7.56-3.61-15.28-10.3-21.22-11.06-9.82-31.69-15.26-56.43-1.08l-3.71,2.1v2.51c1.58-.88,3.17-1.77,4.8-2.71,23.73-13.6,43.39-8.49,53.88.82,8.69,7.72,11.79,18.6,7.91,27.74-4.27,10-9.32,8.92-16.3,7.38-7.75-1.71-17.4-3.84-28,9.94-3.81,4.93-6.95,9.38-9.71,13.3-4.53,6.43-8.18,11.59-12.53,15.71v2.94C94.86,311,98.91,305.31,103.94,298.17Z"/><path class="cls-17" d="M288.91,252c-4.64,4.94-8.65,9.22-12,12.28-8.49,7.71-20.65,12.87-34.73,18.84-17.33,7.35-37,15.68-54.24,31.05a126.73,126.73,0,0,0-32.67,45.19,1.1,1.1,0,0,0,2,.85,124.52,124.52,0,0,1,32.11-44.4c17-15.13,36.46-23.39,53.64-30.67,14.26-6,26.58-11.27,35.35-19.24,3.44-3.12,7.47-7.42,12.15-12.4C309,233.79,338.19,202.72,382,190v-2.29C337.3,200.46,307.69,232,288.91,252Z"/><path class="cls-17" d="M365.44,257.07c-16.39,13.14-85.63,52.34-116.16,61.28-14.22,4.16-27.67,11-38.48,16.49s-20.35,10.34-22.86,8.1a1.67,1.67,0,0,1-.17-1.5c2-9.12,33-38,58.27-45.73a260.82,260.82,0,0,1,34-8.06c13.22-2.07,17.6-1,18.09,0,0,0.05.61,1.37-4.68,5.3-13.34,9.91-34.14,15-49.32,18.73-6.69,1.64-12,2.93-15.25,4.29-5.83,2.4-25.2,10.75-30,17.13a1.1,1.1,0,1,0,1.76,1.31c3.51-4.71,17.3-11.56,29-16.41,3.12-1.29,8.6-2.63,14.93-4.18,15.36-3.77,36.4-8.92,50.1-19.1,2.93-2.18,6.68-5.39,5.33-8.05-0.51-1-2.07-4.08-20.39-1.21a263.18,263.18,0,0,0-34.27,8.13C220.48,301.27,188,330.17,185.62,341a3.5,3.5,0,0,0,.85,3.61c3.63,3.25,12.26-1.14,25.32-7.77,10.73-5.45,24.08-12.23,38.1-16.34,30.74-9,100.43-48.45,116.92-61.67A87.84,87.84,0,0,1,382,249.32v-2.45A92,92,0,0,0,365.44,257.07Z"/><path class="cls-17" d="M371.07,210.94c-11.46,14.45-34.61,22.53-51.51,28.43-8.77,3.06-15.7,5.48-19.35,8.08-7.88,5.62-12,11.69-11.18,16.66,0.59,3.76,3.8,6.6,9.55,8.44,15.45,4.94,54.86-17.51,68.69-27.71A114.16,114.16,0,0,1,382,236.06v-2.49a120.64,120.64,0,0,0-16,9.5c-13.12,9.67-52.23,32-66.71,27.38-4.89-1.56-7.6-3.81-8.05-6.68-0.63-4,3.21-9.48,10.29-14.53,3.39-2.42,10.53-4.91,18.8-7.8,17.16-6,40.66-14.19,52.51-29.14a78.81,78.81,0,0,1,9.2-9.83v-2.95A80.73,80.73,0,0,0,371.07,210.94Z"/><path class="cls-17" d="M382,265.32v-2.22c-8.48,1.56-14,6.73-15.86,10.45-1.07,2.14-1.12,4-.17,5.23,0.63,0.81,2,1.65,4.68,1.07a50.59,50.59,0,0,1,11.34-1v-2.21a52.72,52.72,0,0,0-11.81,1c-1.24.27-2.14,0.17-2.48-.27s-0.23-1.64.4-2.9C369.72,271.29,374.53,266.8,382,265.32Z"/><path class="cls-17" d="M309.51,250.55c2.87-1.27,7.35-2.85,13-4.84C338.63,240,364.31,231,382,217.91v-2.75c-17.42,13.43-43.8,22.71-60.19,28.47-5.72,2-10.23,3.6-13.18,4.91-6.59,2.93-9.64,5.4-10.19,8.27s1.34,5.37,4.53,8.66c6.7,6.92,44.66-11.59,62.89-26.26A186,186,0,0,1,382,227.58V225a187.31,187.31,0,0,0-17.52,12.54c-19.77,15.9-55.06,31.47-59.94,26.44-2.63-2.71-4.31-4.89-4-6.72C301,255.23,303.89,253,309.51,250.55Z"/><path class="cls-17" d="M198,377.4c-5.64,4.31-11,8.38-16.23,12.34a184.26,184.26,0,0,1-42.19,24.16h5.67a189.28,189.28,0,0,0,37.84-22.4c5.27-4,10.6-8,16.24-12.35,54.54-41.63,122-93.09,182.68-94.09v-2.2C320.54,283.85,252.79,335.56,198,377.4Z"/><path class="cls-17" d="M365.88,263.1c-17,15.17-42.17,27.3-62.42,37-7.11,3.42-13.83,6.65-19.09,9.52-10.44,5.68-18.84,9.06-30.46,13.75-10.53,4.24-23.63,9.53-43.46,18.56-40.76,18.56-54.93,44.26-55.82,45.93l-0.12.17c-3.67,5.12-15.64,20.14-33.39,25.84h6.1c15.38-6.88,25.68-19.82,29.08-24.56l0.16-.22,0.1-.16c0.13-.26,13.57-26.22,54.82-45,19.78-9,32.86-14.28,43.37-18.52,11.69-4.71,20.14-8.12,30.69-13.85,5.22-2.84,11.91-6.06,19-9.47,20.38-9.81,45.75-22,62.94-37.39A54.44,54.44,0,0,1,382,255.09v-2.31A54.86,54.86,0,0,0,365.88,263.1Z"/><path class="cls-17" d="M99.19,284.65C109.73,269,124.56,262.87,144.53,266c4.05,0.63,7.22-1.68,8.06-5.87a12.08,12.08,0,0,0,.23-2.38c0-8.16-7.42-19.84-26-24.44-12.88-3.19-24.42,2.8-37.21,10.74v2.59c13.25-8.3,24.23-14.28,36.68-11.19,18.85,4.67,25.55,17.23,24.14,24.25-0.62,3.08-2.65,4.58-5.57,4.13-20.61-3.19-36.59,3.42-47.5,19.63-2.65,3.94-5.26,7.46-7.75,10.58v3.5C92.64,293.85,95.87,289.58,99.19,284.65Z"/><path class="cls-17" d="M168.66,140.2c0.52,0,52.86-2.26,95.52-1.27,19.34,0.45,34.75,5.28,35.08,11,0.38,6.77-20,16.89-78.55,25-20.31,2.82-36.71,3.68-48.73,2.56-12.71-1.19-17.44-4.3-19.18-6.7-1.3-1.8-1.37-3.89-.22-6.22,4.79-9.69,28.31-20.57,55.68-21.32,69.46-1.9,78.46,3.37,79.11,5.72,0.12,0.43.08,2.06-5.3,5.06-12,6.67-17,3.72-23.94-.35-7.14-4.18-16-9.38-35.28-5.22-17.42,3.76-20.1,9.38-19.27,13.44,1.49,7.37,16.1,13.12,24.87,11.46,1.54-.29,3.35-0.6,5.27-0.93,14.32-2.43,25.31-4.69,25.77-9.66,0.31-3.39-4.31-6.67-15-10.6-13.49-5.58-20.51.5-22.34,2.49-2.68,2.92-3.58,6.64-2.23,9.25,1.13,2.19,3.65,3.21,6.89,2.8,3.56-.46,6.77-0.61,9.34-0.73,4.74-.23,7.35-0.35,8-2.11,0.54-1.46-.76-3.1-2.88-5.12-4.37-4.15-7.75-5.87-10.35-5.27a4.77,4.77,0,0,0-3.36,3.34,5.29,5.29,0,0,0,2.28,6.39,2.84,2.84,0,0,0,3.73-.28,1.1,1.1,0,0,0-1.66-1.43,1,1,0,0,1-.95-0.18,3.1,3.1,0,0,1-1.33-3.73,2.71,2.71,0,0,1,1.8-2c1-.23,3.44.07,8.34,4.72,1.86,1.76,2.23,2.5,2.3,2.75-0.65.43-3.49,0.57-6,.69s-5.87.28-9.51,0.75c-2.31.3-4-.28-4.66-1.63-0.91-1.77-.13-4.54,1.9-6.76,1.59-1.73,7.71-7,19.92-1.93,12.52,4.61,13.65,7.37,13.58,8.35-0.34,3.68-15.7,6.29-23.95,7.7-1.93.33-3.76,0.64-5.31,0.93-8.24,1.56-21.17-4.08-22.31-9.73-0.87-4.31,5.54-8.26,17.58-10.86,18.43-4,26.55.78,33.71,5,7,4.1,13.06,7.65,26.12.37,3.14-1.75,7.21-4.43,6.35-7.56-1.12-4.07-10.76-9.27-81.29-7.33-29.08.8-52.53,12.32-57.59,22.54-1.52,3.07-1.38,6,.4,8.48,6.24,8.66,31.1,10.44,70,5,51.93-7.22,80.45-16.8,80.45-27,0-.11,0-0.21,0-0.32-0.48-8.4-19.64-12.67-37.23-13.08-42.73-1-95.14,1.25-95.71,1.27-2.37.21-49.25,4.63-78.9,21.48v2.58C119.05,144.87,168.12,140.25,168.66,140.2Z"/><path class="cls-17" d="M303.58,138.12c-9.64.67-12.58-1-13.35-2.44-0.52-1-.29-2.43.64-4.23h-2.43c-0.86,2.06-.91,3.8-0.16,5.24,1.6,3.09,6.52,4.24,15.46,3.62,6-.41,10.1-2.32,13.32-8.86h-2.5C311.65,136.66,308.17,137.8,303.58,138.12Z"/><path class="cls-17" d="M304.78,132.46a1.17,1.17,0,0,1-1.06.08,1.47,1.47,0,0,1-.2-1.09h-2.19a3.3,3.3,0,0,0,.89,2.7,3.1,3.1,0,0,0,3.38.36,10.48,10.48,0,0,0,3.79-3.05h-3A6,6,0,0,1,304.78,132.46Z"/><path class="cls-17" d="M141.76,149.36c4.17-.67,10.06-1.62,12.76-1.77-0.4.34-.88,0.72-1.32,1.08-5.49,4.41-16.9,13.59-8.68,27.32a1.1,1.1,0,1,0,1.88-1.13c-7.24-12.09,2.79-20.15,8.17-24.48,1.93-1.56,3.06-2.46,3.06-3.43a1.42,1.42,0,0,0-.13-0.58c-0.63-1.41-1.77-1.47-16.09.83a161.13,161.13,0,0,0-51.79,18v2.51A158.76,158.76,0,0,1,141.76,149.36Z"/><path class="cls-17" d="M100.33,212.67c4.56-2.5,9.27-5.08,13.69-7.25,2.84-1.39,4.64-2.56,4.64-3.86a1.55,1.55,0,0,0-.15-0.64c-0.3-.67-1-2.25-11.8-0.11a109.62,109.62,0,0,0-17.1,4.88v2.35c10.22-4.07,22.5-6.36,26.18-6.15a21.46,21.46,0,0,1-2.75,1.55c-4.46,2.19-9.2,4.78-13.77,7.29-3.17,1.73-6.72,3.68-9.66,5.16v2.45C92.23,217.08,95.69,215.21,100.33,212.67Z"/><path class="cls-17" d="M332.46,136.71a1.1,1.1,0,0,0,1.46-.53,38.62,38.62,0,0,1,2.71-4.73H334a36.86,36.86,0,0,0-2.1,3.8A1.1,1.1,0,0,0,332.46,136.71Z"/><path class="cls-17" d="M118.38,182.07A1.1,1.1,0,1,0,119,180c-0.45-.14-11.22-3.23-27.53,4.31-0.65.3-1.27,0.57-1.86,0.83v2.38q1.33-.54,2.78-1.21C107.89,179.11,118.28,182,118.38,182.07Z"/><path class="cls-17" d="M162.11,191.13c68.29-.59,102-11.42,102.29-11.52,1.84-.57,45.28-14.07,60.4-24.74,5.87-4.14,12.79-13.27,20.16-23.41h-2.72c-6.9,9.46-13.35,17.84-18.7,21.62-14.83,10.47-59.33,24.3-59.8,24.45S230,188.34,162.09,188.93c-36.09.31-57.93,1.58-72.48,5.5v2.29C103.88,192.72,125.59,191.45,162.11,191.13Z"/><path class="cls-17" d="M349.81,159c-7.49.4-12-.8-13.34-3.57-2.36-4.83,4.15-14.38,12-24h-2.83c-7.92,9.87-13.92,19.32-11.15,25,1.81,3.69,6.85,5.26,15.43,4.8,15.06-.81,25.31-5.81,32.07-11.12v-2.83C375.59,152.72,365.4,158.19,349.81,159Z"/><path class="cls-17" d="M123.86,186.37c10.11-.08,12.06-1.17,12.67-2.32a1.67,1.67,0,0,0,.19-0.77,1.91,1.91,0,0,0-.36-1.08c-2.71-3.92-29.49-9.13-40.36-7.85a41.94,41.94,0,0,0-6.38,1.24v2.29a38.88,38.88,0,0,1,6.64-1.34c10.88-1.28,35,3.93,38.05,6.64-0.74.33-3.12,1-10.47,1-15.64.13-26.78,2.44-34.23,4.87v2.37C96.88,189,108,186.5,123.86,186.37Z"/><path class="cls-17" d="M102.91,205.54a1.1,1.1,0,0,0-1.48-.49c-3.44,1.73-8,4.13-11.82,6.53v2.64c3.55-2.27,8.3-4.94,12.81-7.21A1.1,1.1,0,0,0,102.91,205.54Z"/><path class="cls-17" d="M105.56,214.5c5.76-2.31,21.9-10.4,21.9-15.37a2.17,2.17,0,0,0,0-.41,2.36,2.36,0,0,0-.25-0.69l1.47,0a166,166,0,0,0,30.54-2.15,1.1,1.1,0,0,0,.9-1.08,1.09,1.09,0,0,0,0-.2,1.1,1.1,0,0,0-1.28-.89,163.51,163.51,0,0,1-30.07,2.11c-3.08-.11-22.34-0.49-39.11,5.58v2.42c10-3.78,21.58-5.38,31-5.77a1.09,1.09,0,0,0,.66.22c3.68,0,4,.79,4,0.8,0.37,1.95-10.17,9.18-20.52,13.32a118.18,118.18,0,0,0-15.13,8v2.58A123.47,123.47,0,0,1,105.56,214.5Z"/><path class="cls-17" d="M365.14,144c3.16,0.44,8.44-6.86,11.64-12.53h-2.52c-3.8,6.49-7.65,10.35-8.76,10.36a1.27,1.27,0,0,1-.12-0.37c-0.52-2.55.58-6.33,2.21-10h-2.44c-1.56,3.85-2.47,7.74-1.92,10.43A2.3,2.3,0,0,0,365.14,144Z"/><path class="cls-17" d="M229.68,134.11c6.4-.43,16.07-1.23,26-2.66h-19.8q-3.1.25-6.32,0.47c-21.71,1.45-43.39,1.16-56.06-.47h-10.1C171.63,134.9,200.19,136.07,229.68,134.11Z"/><path class="cls-17" d="M96.87,131.45H93.33l-0.41.32,0.15-.32H90.66a8.27,8.27,0,0,0-.45,1.48,1.09,1.09,0,0,0,.17.78l-0.76.57V137C91.78,135.42,94.25,133.54,96.87,131.45Z"/><path class="cls-17" d="M106.71,131.45h-3c-4.09,4-9,8.94-14.06,14.35v3.12C95.83,142.22,101.88,136.12,106.71,131.45Z"/><path class="cls-17" d="M368,135a1.1,1.1,0,0,0,1.54-.19c0.44-.56,1.4-1.82,2.48-3.41h-2.68c-0.52.73-1,1.43-1.52,2.06A1.1,1.1,0,0,0,368,135Z"/><path class="cls-17" d="M108.89,137a65.54,65.54,0,0,1,5.42-5.57h-3.2c-1.38,1.35-2.69,2.73-3.89,4.14a151.75,151.75,0,0,1-17.61,17.05v2.85A157.67,157.67,0,0,0,108.89,137Z"/><path class="cls-17" d="M354.48,155.94c-5.36.66-8.71-.3-10-2.84-2.16-4.35,1.56-12.94,7.67-21.65h-2.69c-6,8.89-9.43,17.61-7,22.63,1.71,3.47,5.82,4.83,12.2,4,12.56-1.54,21.28-6.86,27.25-12.75v-3.24C376.09,148.64,367.35,154.36,354.48,155.94Z"/><path class="cls-17" d="M321.42,139.9c-10.78,26-68.88,33.25-69.47,33.32l-0.1,0c-0.68.14-68,14.39-108.4,5l-3.25-.76c-25.71-6-38.79-9-50.58-6v2.24c11.33-3.19,23.91-.25,50.08,5.85l3.25,0.76c40.4,9.42,107.12-4.49,109.31-5,3.07-.37,60-7.65,71.18-34.65a49.09,49.09,0,0,0,2.87-9.3h-2.23A47.34,47.34,0,0,1,321.42,139.9Z"/><path class="cls-17" d="M360.92,148.58c-2-.69-2.94-2.26-3-4.82,0-.08,0-0.17,0-0.25,0-3.29,1.52-7.66,3.78-12.06H359.2c-2.17,4.47-3.56,8.9-3.49,12.36,0.11,4.4,2.49,6.15,4.47,6.84,6.29,2.21,15-4.56,21.8-13.35v-3.64C375.22,143.13,366.31,150.48,360.92,148.58Z"/></g></g><circle class="cls-39" cx="204.44" cy="200.35" r="3.16" transform="translate(-49.29 67.85) rotate(-16.85)"/><circle class="cls-39" cx="151.23" cy="243.97" r="3.16" transform="translate(-135.23 262.2) rotate(-61.85)"/><circle class="cls-39" cx="316.53" cy="260.34" r="3.16" transform="translate(-61.86 102.9) rotate(-16.85)"/><circle class="cls-39" cx="272.91" cy="207.13" r="3.16" transform="translate(-38.48 350.02) rotate(-61.85)"/><circle class="cls-39" cx="140.96" cy="278.31" r="2" transform="translate(-148.89 393.7) rotate(-84.85)"/><circle class="cls-39" cx="299.52" cy="228.79" r="2" transform="translate(-77.03 245.04) rotate(-39.85)"/><circle class="cls-39" cx="238.57" cy="196.86" r="2" transform="translate(21.08 416.78) rotate(-84.85)"/><circle class="cls-39" cx="172.9" cy="217.37" r="2" transform="translate(-99.12 161.26) rotate(-39.85)"/><circle class="cls-39" cx="224.43" cy="266.39" r="2" transform="translate(-67.57 76.47) rotate(-16.85)"/><circle class="cls-39" cx="212.07" cy="276.53" r="2" transform="translate(-131.81 333.03) rotate(-61.85)"/><circle class="cls-39" cx="250.49" cy="280.33" r="2" transform="translate(-70.49 84.62) rotate(-16.85)"/><circle class="cls-39" cx="240.35" cy="267.96" r="2" transform="translate(-109.31 353.44) rotate(-61.85)"/><circle class="cls-4" cx="334" cy="48.82" r="5.83"/><path class="cls-12" d="M272.76,66.39C272.76,77.73,254.29,90,231.5,90s-41.26-12.27-41.26-23.61"/><path class="cls-43" d="M275.9,37.17C273.35,31,257.3,18,231.7,18S190,31.63,187.17,37.17s1.59,24.21,4.3,28.8,40.23-3.3,40.23-3.3S269.27,70.56,272,66,278.45,43.3,275.9,37.17Z"/><path class="cls-44" d="M271.89,66.79c0,9.28-18.08,13.43-40.38,13.43s-40.38-4.15-40.38-13.43"/><circle class="cls-45" cx="190.28" cy="61.76" r="3.82"/><circle class="cls-45" cx="272.72" cy="61.76" r="3.82"/><path class="cls-46" d="M271.46,57.14s-10.21-3.89-40-3.89-40,3.89-40,3.89v9.65s11.38,1.42,40,1.42,40-1.42,40-1.42V57.14Z"/><circle class="cls-17" cx="231.5" cy="36.46" r="12.3"/><circle class="cls-47" cx="231.5" cy="31.09" r="2.52"/><line class="cls-47" x1="231.57" y1="33.68" x2="231.57" y2="43.8"/><path class="cls-48" d="M225.22,41.48a8,8,0,0,0,12.5,0"/><line class="cls-48" x1="228.03" y1="37.22" x2="235.11" y2="37.22"/><path class="cls-49" d="M190.34,60.74s6.62-1.26,40.91-1.26,41.42,1.26,41.42,1.26"/><path class="cls-49" d="M190.34,62.93S197,63,231.28,63s41.38-.09,41.38-0.09"/><path class="cls-50" d="M81.32,236c-0.41,4.35-2.4,7.84-1.51,9a21,21,0,0,0,.31,2.89c1.45,7.92,8.32,15.75,18.66,21.76,13.63,7.88,24.77,9.7,34.8,6.88,10.38-2.91,13.65-10.55,13.82-10.87a1.51,1.51,0,0,0,.06-0.19c2-3.63,3.71-11.23-3.63-15.54l-0.52-.29c-2.5-1.33-3.89-1.61-6.12-.84a8.31,8.31,0,0,0-1.47.69c0.94-4.63.35-9.78-4.63-12.68l-0.38-.21c-5.27-2.81-10.35-.23-14,3.17,0.57-4.36-.4-9.32-5.62-12.11h0C106,225,101,226.78,97,229.9a23.78,23.78,0,0,0-2.29-1.41c-4.33-2.31-9.65-3.29-14.3.44C78.15,230.76,81.57,233.44,81.32,236Z"/><path class="cls-51" d="M87.26,226l59.15,33.11s-12,31.22-48.56,10C68.75,252.18,87.26,226,87.26,226Z"/><path class="cls-52" d="M145.56,261.07s-11.76,28.8-47.71,8c-29.1-16.93-13.12-42-13.12-42"/><path class="cls-52" d="M113,241.41s7.78-12.7,16.74-7.49S131.19,252,131.19,252"/><path class="cls-52" d="M131.19,252s4-8.89,11.64-4.81c9.28,5.61,2.71,13.92,2.71,13.92"/><path class="cls-52" d="M80.32,240.54s-7.34-8.61.18-14.65c8.73-7,19.27,4.64,19.27,4.64"/><path class="cls-52" d="M90.52,234.45s8.91-15.19,19.26-9.66c9.14,4.88,3.21,16.61,3.21,16.61"/><path class="cls-50" d="M299.45,196c4.3-.81,8.45,1.53,9.69,2.32a21,21,0,0,1,2.91,0c8,0.72,19.62,3.72,26.55,13.47,9.1,12.85,8.75,26.9,6.87,37.14A25,25,0,0,1,336,264.72a1.51,1.51,0,0,1-.18.08c-3.43,2.34-10.84,4.72-15.81-2.19l-0.33-.49a8.68,8.68,0,0,1-1.49-7,8.31,8.31,0,0,1,.55-1.52c-4.52,1.36-9.71,1.25-13.05-3.45l-0.25-.36c-3.28-5-1.18-10.29,1.88-14.22-4.29,1-9.32.46-12.57-4.49h0c-3.19-4.85-1.83-10,.91-14.21A23.78,23.78,0,0,1,294,214.7c-2.7-4.1-4.16-9.31-.87-14.28A9.58,9.58,0,0,1,299.45,196Z"/><path class="cls-53" d="M296,203.95l38.48,56.86s28.63-17.69,4.11-52.14C319,181.24,296,203.95,296,203.95Z"/><path class="cls-53" d="M336.28,259.79s26.25-17.23,2.28-51.12c-19.52-27.42-41.75-7.34-41.75-7.34"/><path class="cls-53" d="M313.62,228.16s-11.93,8.91-5.92,17.35,18.14-.19,18.14-0.19"/><path class="cls-53" d="M325.83,245.32s-8.4,5.78-3.63,13c6.43,8.73,14.11,1.42,14.11,1.42"/><path class="cls-53" d="M309.77,195.7s-10-3.23-15.33,4.82c-6.17,9.33,7.15,15.47,7.15,15.47"/><path class="cls-53" d="M304.64,206.42s-14.31,10.26-7.86,20.07c5.7,8.65,16.84,1.68,16.84,1.68"/></g></g></g></svg>