<svg id="Layer_1" data-name="Layer 1" xmlns="http://www.w3.org/2000/svg" viewBox="0 0 21 21"><title>Artboard 7</title><path d="M5.634,19.32a1.638,1.638,0,0,1-.713-.145L5.1,18.7l-.271.421c-.045-.024-.151-.1-.151-.1a1.132,1.132,0,0,1,.271-1.961,3.483,3.483,0,0,0,.357-.14H5.277a6.047,6.047,0,0,1-2-.308l-.124-.047A1.142,1.142,0,0,1,3.646,14.4a3.384,3.384,0,0,0,3.136-1.647l.095-.12a6.044,6.044,0,0,1-2.486-4.9,6.11,6.11,0,1,1,12.221,0,6.045,6.045,0,0,1-2.488,4.9l.1.12A3.382,3.382,0,0,0,17.354,14.4a1.143,1.143,0,0,1,.493,2.175l-.173.062a6.04,6.04,0,0,1-1.954.292h-.035a2.778,2.778,0,0,0,.292.115,1.162,1.162,0,0,1,.8,1.086,1.136,1.136,0,0,1-.436.889c-.02.015-.107.077-.151.1l-.144.075a1.608,1.608,0,0,1-.668.127c-1.4,0-3.775-1.363-4.888-2.682A7.991,7.991,0,0,1,5.634,19.32Z" fill="#f0f0f0"/><path d="M10.5,2.122A5.6,5.6,0,0,1,13.4,12.51a1.656,1.656,0,0,1,.176.24c.82,1,1.456,2.146,3.774,2.146a.646.646,0,0,1,.646.646h0a.642.642,0,0,1-.369.578l-.1.031a5.566,5.566,0,0,1-1.815.272,6.653,6.653,0,0,1-2.236-.37,6.7,6.7,0,0,0,2.382,1.473h0a.643.643,0,0,1,.407.6h0a.634.634,0,0,1-.248.5s-.06.043-.089.06a.616.616,0,0,1-.076.042,1.138,1.138,0,0,1-.485.093,7.512,7.512,0,0,1-4.9-3.086A7.228,7.228,0,0,1,5.634,18.82a1.158,1.158,0,0,1-.5-.1.648.648,0,0,1-.059-.032c-.034-.019-.1-.069-.1-.069a.634.634,0,0,1-.249-.5.643.643,0,0,1,.407-.6h0a6.7,6.7,0,0,0,2.382-1.473,6.661,6.661,0,0,1-2.239.371,5.533,5.533,0,0,1-1.829-.278l-.078-.028A.642.642,0,0,1,3.646,14.9c2.317,0,2.954-1.142,3.773-2.146a1.653,1.653,0,0,1,.176-.24A5.6,5.6,0,0,1,10.5,2.122m0-1a6.617,6.617,0,0,0-6.61,6.61,6.533,6.533,0,0,0,2.284,4.977A2.756,2.756,0,0,1,3.646,13.9a1.642,1.642,0,0,0-.71,3.125l.046.022.045.016.108.038a4.951,4.951,0,0,0,.808.212A1.631,1.631,0,0,0,4.351,19.4c.035.027.168.121.235.159a1.187,1.187,0,0,0,.139.073,2.153,2.153,0,0,0,.91.185,8.375,8.375,0,0,0,4.857-2.453,8.594,8.594,0,0,0,4.884,2.452,2.135,2.135,0,0,0,.89-.178,1.361,1.361,0,0,0,.173-.092c.059-.034.171-.113.171-.113l.026-.018.015-.013a1.632,1.632,0,0,0,.407-2.1,5.25,5.25,0,0,0,.8-.208l.1-.033.059-.02.053-.026a1.643,1.643,0,0,0-.711-3.126,2.756,2.756,0,0,1-2.528-1.187A6.533,6.533,0,0,0,17.11,7.732a6.617,6.617,0,0,0-6.61-6.61Z" fill="#999"/></svg>