<svg id="Layer_1" data-name="Layer 1" xmlns="http://www.w3.org/2000/svg" viewBox="0 0 76 76"><defs><style>.cls-1{fill:#6c757f;}</style></defs><title>icons-facebook</title><g id="_04-FULL-COLOR" data-name="04-FULL-COLOR"><g id="Facebook"><path class="cls-1" d="M55.9678,53.5063a1.5878,1.5878,0,0,1-1.65,1.8437H45.2939V41.7651h4.6577l0.6793-5.8221H45.2939V32.935c0-1.5525.3881-2.814,2.62-2.814H51.116V25.4633c-0.97-.097-2.5229-0.1941-4.4636-0.1941-4.0755,0-7.1806,2.5229-7.1806,7.0835v3.59H34.62v5.8221h4.8517V55.35H22.6848a1.5908,1.5908,0,0,1-1.65-1.8437v-31.73c0-1.0674.5822-2.4259,1.65-2.4259h31.73c1.0674,0,1.65,1.3585,1.65,2.4259v31.73H55.9678Z"/></g></g></svg>