<svg id="Layer_1" data-name="Layer 1" xmlns="http://www.w3.org/2000/svg" viewBox="0 0 21 21"><title>Artboard 5</title><path d="M15.317,5.683c-3.062-3.062-7.1-3.989-9.019-2.07L2.74,7.171c-1.464,1.464-1.262,4.161.274,6.718a4.823,4.823,0,0,0,1.441,2.656A4.822,4.822,0,0,0,7.11,17.987c2.557,1.535,5.254,1.738,6.719.274L17.387,14.7C19.306,12.783,18.379,8.745,15.317,5.683Z" fill="#f0f0f0" stroke="#999" stroke-linecap="round" stroke-miterlimit="10" stroke-width="0.75"/><line x1="15.399" y1="2.292" x2="10.554" y2="7.137" fill="#ffe2c0" stroke="#999" stroke-linecap="round" stroke-miterlimit="10"/><line x1="18.708" y1="5.601" x2="13.863" y2="10.446" fill="#ffe2c0" stroke="#999" stroke-linecap="round" stroke-miterlimit="10"/><path d="M3.665,14.867a5.684,5.684,0,0,0,2.467,2.467c2.819,2.116,6.043,2.579,7.7.926L17.387,14.7c1.919-1.919.992-5.957-2.07-9.019S8.217,1.694,6.3,3.613L2.74,7.171C1.087,8.824,1.55,12.048,3.665,14.867Z" fill="#f0f0f0" stroke="#999" stroke-linecap="round" stroke-miterlimit="10"/><path d="M15.047,17.042c1.919-1.919.992-5.957-2.07-9.019s-7.1-3.989-9.019-2.07" fill="none" stroke="#999" stroke-linecap="round" stroke-miterlimit="10" stroke-width="0.5"/><ellipse cx="6.008" cy="14.992" rx="2.197" ry="3.676" transform="translate(-8.841 8.639) rotate(-45)" fill="#f0f0f0" stroke="#999" stroke-linecap="round" stroke-miterlimit="10" stroke-width="0.5"/><line x1="5.604" y1="15.397" x2="1.375" y2="19.625" fill="#ef606e" stroke="#999" stroke-linecap="round" stroke-miterlimit="10"/></svg>