<svg id="Layer_1" data-name="Layer 1" xmlns="http://www.w3.org/2000/svg" xmlns:xlink="http://www.w3.org/1999/xlink" viewBox="0 0 21 21"><defs><clipPath id="clip-path"><rect x="2.917" y="6.214" width="15.167" height="10" fill="none"/></clipPath></defs><title>Artboard 1</title><path d="M10.5,19c-4.174,0-7.083-1.317-7.083-2.5V5H17.583V16.5C17.583,17.683,14.674,19,10.5,19Z" fill="#f0f0f0"/><path d="M17.083,5.5v11c0,.6-2.24,2-6.583,2s-6.583-1.4-6.583-2V5.5H17.083m1-1H2.917v12c0,1.657,3.4,3,7.583,3s7.583-1.343,7.583-3V4.5Z" fill="#999"/><path d="M10.5,7C6.326,7,3.417,5.683,3.417,4.5S6.326,2,10.5,2s7.083,1.317,7.083,2.5S14.674,7,10.5,7Z" fill="#f0f0f0"/><path d="M10.5,2.5c4.344,0,6.583,1.4,6.583,2s-2.24,2-6.583,2-6.583-1.4-6.583-2,2.24-2,6.583-2m0-1c-4.188,0-7.583,1.343-7.583,3s3.4,3,7.583,3,7.583-1.343,7.583-3-3.4-3-7.583-3Z" fill="#999"/><g clip-path="url(#clip-path)"><path d="M18.083,8.214c0,1.657-3.4,3-7.583,3s-7.583-1.343-7.583-3" fill="none" stroke="#999" stroke-miterlimit="10" stroke-width="0.5"/><path d="M18.083,12.6c0,1.657-3.4,3-7.583,3s-7.583-1.343-7.583-3" fill="none" stroke="#999" stroke-miterlimit="10" stroke-width="0.5"/></g></svg>