<svg id="Layer_1" data-name="Layer 1" xmlns="http://www.w3.org/2000/svg" viewBox="0 0 21 21"><title>Artboard 12</title><path d="M10.827,15.452,9.452,14.077l2.764-2.764a.5.5,0,0,1,.537-.1A5.289,5.289,0,1,0,9.735,8.19a.5.5,0,0,1-.1.537L1.2,17.152a.5.5,0,0,0,0,.707l1.879,1.879a.5.5,0,0,0,.707,0l1.251-1.251,1.375,1.375a.5.5,0,0,0,.707,0l1.852-1.852,1.852-1.852A.5.5,0,0,0,10.827,15.452Z" fill="#f0f0f0" stroke="#999" stroke-linecap="round" stroke-linejoin="round"/><path d="M7.22,16.255l1.756,1.756,1.852-1.852a.5.5,0,0,0,0-.707L9.452,14.077" fill="#f0f0f0" stroke="#999" stroke-linecap="round" stroke-miterlimit="10"/><path d="M5.042,18.487l1.375,1.375" fill="#f0f0f0" stroke="#999" stroke-linecap="round" stroke-miterlimit="10"/><circle cx="14.653" cy="6.29" r="1.79" transform="translate(-0.156 12.203) rotate(-45)" fill="#f0f0f0" stroke="#999" stroke-linecap="round" stroke-miterlimit="10"/></svg>