<svg id="Layer_1" data-name="Layer 1" xmlns="http://www.w3.org/2000/svg" viewBox="0 0 76 76"><defs><style>.cls-1{fill:#6c757f;}</style></defs><title>SOCIAL-ICONS [Recovered]</title><g id="_04-FULL-COLOR" data-name="04-FULL-COLOR"><g id="Facebook"><path class="cls-1" d="M56.5,54a1.6363,1.6363,0,0,1-1.7,1.9H45.5v-14h4.8l0.7-6H45.5V32.8c0-1.6.4-2.9,2.7-2.9h3.3V25.1c-1-.1-2.6-0.2-4.6-0.2-4.2,0-7.4,2.6-7.4,7.3v3.7h-5v6h5v14H22.2A1.6394,1.6394,0,0,1,20.5,54V21.3c0-1.1.6-2.5,1.7-2.5H54.9c1.1,0,1.7,1.4,1.7,2.5V54H56.5Z"/></g></g></svg>