<svg id="Layer_1" data-name="Layer 1" xmlns="http://www.w3.org/2000/svg" viewBox="0 0 76 76"><defs><style>.cls-1{fill:#6c757f;}</style></defs><title>icons-linkedin</title><path class="cls-1" d="M54.2364,19.35H23.5558a2.627,2.627,0,0,0-2.6553,2.5957V52.7523A2.6287,2.6287,0,0,0,23.5558,55.35H54.2364A2.6336,2.6336,0,0,0,56.9,52.7523V21.9457A2.6319,2.6319,0,0,0,54.2364,19.35ZM31.5792,50.0258H26.2345v-17.18h5.3447v17.18ZM28.9083,30.4989a3.0964,3.0964,0,1,1,3.0947-3.0967A3.095,3.095,0,0,1,28.9083,30.4989Zm22.669,19.5269H46.2384V41.6713c0-1.9922-.0342-4.5552-2.7744-4.5552-2.7783,0-3.2022,2.1714-3.2022,4.4126v8.4971h-5.333v-17.18H40.047v2.3486H40.12A5.6088,5.6088,0,0,1,45.172,32.42c5.4062,0,6.4053,3.5572,6.4053,8.1841v9.4219Z"/></svg>