<svg id="Layer_1" data-name="Layer 1" xmlns="http://www.w3.org/2000/svg" viewBox="0 0 21 21"><title>Artboard 11</title><rect x="2.5" y="2.5" width="16" height="16" rx="2.5" ry="2.5" fill="#f0f0f0"/><path d="M16,3a2,2,0,0,1,2,2V16a2,2,0,0,1-2,2H5a2,2,0,0,1-2-2V5A2,2,0,0,1,5,3H16m0-1H5A3,3,0,0,0,2,5V16a3,3,0,0,0,3,3H16a3,3,0,0,0,3-3V5a3,3,0,0,0-3-3Z" fill="#999"/><polyline points="6.095 6.946 9.095 10 6.095 13.054" fill="none" stroke="#999" stroke-linecap="round" stroke-linejoin="round"/><line x1="11" y1="14" x2="15.289" y2="14" fill="none" stroke="#999" stroke-linecap="round" stroke-linejoin="round"/></svg>