<svg id="Layer_1" data-name="Layer 1" xmlns="http://www.w3.org/2000/svg" viewBox="0 0 76 76"><defs><style>.cls-1{fill:#6c757f;}</style></defs><title>SOCIAL-ICONS [Recovered]</title><g id="_04-FULL-COLOR" data-name="04-FULL-COLOR"><g id="Twitter"><path id="Twitter-2" data-name="Twitter" class="cls-1" d="M55.3,22.8a13.9094,13.9094,0,0,1-4.9,1.9,7.7093,7.7093,0,0,0-5.6-2.5,7.8122,7.8122,0,0,0-7.7,7.9,11.0149,11.0149,0,0,0,.2,1.8,21.6528,21.6528,0,0,1-15.8-8.2,7.6742,7.6742,0,0,0-1,4,8.3288,8.3288,0,0,0,3.4,6.6,7.1084,7.1084,0,0,1-3.5-1v0.1a7.75,7.75,0,0,0,6.2,7.7,6.4472,6.4472,0,0,1-2,.3,6.1514,6.1514,0,0,1-1.4-.1,7.844,7.844,0,0,0,7.2,5.5,15.0947,15.0947,0,0,1-9.5,3.4,10.8712,10.8712,0,0,1-1.8-.1,21.5375,21.5375,0,0,0,11.8,3.5c14.1,0,21.9-12,21.9-22.4v-1a14.8742,14.8742,0,0,0,3.8-4.1,13.7265,13.7265,0,0,1-4.4,1.2A11.0272,11.0272,0,0,0,55.3,22.8Z"/></g></g></svg>