<svg id="Layer_1" data-name="Layer 1" xmlns="http://www.w3.org/2000/svg" viewBox="0 0 21 21"><title>Artboard 9</title><path d="M19.976,9.659a3.045,3.045,0,0,0-2.312-.215,3.173,3.173,0,0,0-1.25-2.014l-.25-.2-.209.242a2.72,2.72,0,0,0-.489,1.917,2.5,2.5,0,0,0,.467,1.288,3.544,3.544,0,0,1-.673.3,4.368,4.368,0,0,1-1.384.232H.806l-.028.3a5.778,5.778,0,0,0,.46,2.931l.179.364.02.034a6.316,6.316,0,0,0,5.74,2.966c4.553,0,8.309-2.034,10.034-6.33a2.88,2.88,0,0,0,2.9-1.381l.144-.281Z" fill="#f0f0f0" stroke="#999" stroke-linecap="round" stroke-miterlimit="10"/><polygon points="12.87 9.176 10.877 9.176 10.877 5.191 8.487 5.191 8.487 7.183 4.502 7.183 4.502 9.176 2.51 9.176 2.51 11.212 12.87 11.212 12.87 9.176" fill="#f0f0f0" stroke="#999" stroke-linecap="round" stroke-miterlimit="10"/></svg>