<svg id="Layer_1" data-name="Layer 1" xmlns="http://www.w3.org/2000/svg" viewBox="0 0 21 21"><title>Artboard 6</title><path d="M6.616,19.285A1.721,1.721,0,0,1,4.9,17.566L3.78,10.826c.078-.937,5.146-6,6.168-6.076h1.106c1.02.071,6.087,5.139,6.158,6.161l-1.1,6.573a1.751,1.751,0,0,1-1.727,1.8Z" fill="#f0f0f0"/><path d="M10.991,5.249c1.124.363,5.244,4.472,5.705,5.675L15.617,17.4l-.014.082v.083a1.221,1.221,0,0,1-1.219,1.219H6.616A1.221,1.221,0,0,1,5.4,17.565v-.083L5.383,17.4,4.3,10.924c.462-1.2,4.581-5.312,5.705-5.675h.983m.064-1H9.945c-1.226,0-6.658,5.432-6.658,6.658L4.4,17.565a2.219,2.219,0,0,0,2.219,2.219h7.768A2.219,2.219,0,0,0,16.6,17.565l1.11-6.658c0-1.226-5.432-6.658-6.658-6.658Z" fill="#999"/><circle cx="10.5" cy="13.221" r="2.383" fill="#999"/><path d="M19.337,10.394,11.285,2.341a1.11,1.11,0,0,0-1.569,0L1.663,10.394a.555.555,0,0,0-.163.392v1.76a.555.555,0,0,0,.947.392L9.715,5.67a1.11,1.11,0,0,1,1.569,0l7.268,7.268a.555.555,0,0,0,.947-.392v-1.76A.555.555,0,0,0,19.337,10.394Z" fill="#f0f0f0" stroke="#999" stroke-linecap="round" stroke-linejoin="round"/></svg>