<svg id="Layer_1" data-name="Layer 1" xmlns="http://www.w3.org/2000/svg" viewBox="0 0 21 21"><title>Artboard 14</title><path d="M10.5,19A8.5,8.5,0,1,1,19,10.5,8.51,8.51,0,0,1,10.5,19Z" fill="#f0f0f0"/><path d="M10.5,2.5a8,8,0,1,1-8,8,8.009,8.009,0,0,1,8-8m0-1a9,9,0,1,0,9,9,9,9,0,0,0-9-9Z" fill="#999"/><path d="M9.427,11.928l-.012-.312a2.64,2.64,0,0,1,.707-1.883,2.2,2.2,0,0,0,.7-1.247c0-.42-.275-.7-.875-.72a2.257,2.257,0,0,0-1.187.36L8.347,6.818a4.119,4.119,0,0,1,2-.492c1.584,0,2.3.876,2.3,1.871a2.979,2.979,0,0,1-1.019,2.015,2.063,2.063,0,0,0-.612,1.5v.216Zm-.312,1.654a1.074,1.074,0,1,1,1.068,1.092A1.04,1.04,0,0,1,9.115,13.582Z" fill="#999"/></svg>