<svg id="Layer_1" data-name="Layer 1" xmlns="http://www.w3.org/2000/svg" viewBox="0 0 21 21"><title>Artboard 10</title><rect x="2.5" y="2.5" width="6.5" height="6.5" rx="1.5" ry="1.5" fill="#f0f0f0"/><path d="M7.5,3a1,1,0,0,1,1,1V7.5a1,1,0,0,1-1,1H4a1,1,0,0,1-1-1V4A1,1,0,0,1,4,3H7.5m0-1H4A2,2,0,0,0,2,4V7.5a2,2,0,0,0,2,2H7.5a2,2,0,0,0,2-2V4a2,2,0,0,0-2-2Z" fill="#999"/><path d="M15,18.5a.552.552,0,0,1-.486-.28l-2.937-5.088a.562.562,0,0,1,.486-.842h5.875a.562.562,0,0,1,.486.842l-2.937,5.088A.552.552,0,0,1,15,18.5Z" fill="#f0f0f0"/><path d="M17.937,12.79a.061.061,0,0,1,.053.092l-1.469,2.544-1.469,2.544a.061.061,0,0,1-.106,0l-1.469-2.544L12.01,12.882a.061.061,0,0,1,.053-.092h5.874m0-1H12.063a1.061,1.061,0,0,0-.919,1.592l1.469,2.544,1.469,2.544a1.061,1.061,0,0,0,1.838,0l1.469-2.544,1.469-2.544a1.061,1.061,0,0,0-.919-1.592Z" fill="#999"/><circle cx="6" cy="15" r="3.5" fill="#f0f0f0"/><path d="M6,12a3,3,0,1,1-3,3,3,3,0,0,1,3-3m0-1a4,4,0,1,0,4,4,4,4,0,0,0-4-4Z" fill="#999"/><circle cx="15" cy="6" r="3.5" fill="#f0f0f0"/><path d="M15,3a3,3,0,1,1-3,3,3,3,0,0,1,3-3m0-1a4,4,0,1,0,4,4,4,4,0,0,0-4-4Z" fill="#999"/></svg>