<svg id="Layer_1" data-name="Layer 1" xmlns="http://www.w3.org/2000/svg" viewBox="0 0 21 21"><title>Artboard 13</title><rect x="2.5" y="2.5" width="16" height="16" rx="2.5" ry="2.5" fill="#f0f0f0"/><path d="M16,3a2,2,0,0,1,2,2V16a2,2,0,0,1-2,2H5a2,2,0,0,1-2-2V5A2,2,0,0,1,5,3H16m0-1H5A3,3,0,0,0,2,5V16a3,3,0,0,0,3,3H16a3,3,0,0,0,3-3V5a3,3,0,0,0-3-3Z" fill="#999"/><path d="M9.864,15.393V14.254a4.832,4.832,0,0,1-2.039-.516l.36-1.4a4.24,4.24,0,0,0,1.991.527c.684,0,1.151-.264,1.151-.743,0-.456-.384-.744-1.271-1.044C8.773,10.644,7.9,10.044,7.9,8.881A2.217,2.217,0,0,1,9.925,6.747V5.607H11.1V6.663a4.312,4.312,0,0,1,1.739.4l-.348,1.355a3.976,3.976,0,0,0-1.728-.408c-.779,0-1.031.336-1.031.672,0,.4.42.647,1.439,1.031,1.427.5,2,1.163,2,2.243A2.3,2.3,0,0,1,11.04,14.17v1.223Z" fill="#999"/></svg>