<svg id="Layer_1" data-name="Layer 1" xmlns="http://www.w3.org/2000/svg" viewBox="0 0 160 160"><defs><style>.cls-1{fill:#853cbe;}.cls-2{fill:#44275e;}.cls-3{fill:#fff;}</style></defs><title>integrations</title><path class="cls-1" d="M45.17,117A7.21,7.21,0,0,1,38,109.82V46.17A7.2,7.2,0,0,1,45.18,39h63.65A7.2,7.2,0,0,1,116,46.18v63.65a7.21,7.21,0,0,1-7.18,7.18H45.17Z"/><path class="cls-2" d="M108.82,40A6.2,6.2,0,0,1,115,46.18v63.65a6.2,6.2,0,0,1-6.18,6.18H45.18A6.2,6.2,0,0,1,39,109.82V46.18A6.2,6.2,0,0,1,45.18,40h63.65m0-2H45.18A8.19,8.19,0,0,0,37,46.18v63.65A8.19,8.19,0,0,0,45.18,118h63.65a8.19,8.19,0,0,0,8.18-8.18V46.18A8.19,8.19,0,0,0,108.82,38h0Z"/><path class="cls-3" d="M70,76.82a4.26,4.26,0,0,1-.15-6L70,70.65a4.74,4.74,0,0,1,6.39,0L88.9,82.33a3.53,3.53,0,0,1,0,5.51L76.34,99.74a4.52,4.52,0,0,1-6.39,0,4.26,4.26,0,0,1-.15-6l0.2-.17,9.47-8.81Z"/><path class="cls-2" d="M48.49,38h57A11.49,11.49,0,0,1,117,49.47V54H37V49.49A11.49,11.49,0,0,1,48.49,38h0Z"/><circle class="cls-1" cx="45" cy="47" r="2"/><circle class="cls-1" cx="53" cy="47" r="2"/><circle class="cls-1" cx="62" cy="47" r="2"/></svg>