<svg id="Layer_1" data-name="Layer 1" xmlns="http://www.w3.org/2000/svg" xmlns:xlink="http://www.w3.org/1999/xlink" viewBox="0 0 160 160"><defs><style>.cls-1{fill:#5050aa;}.cls-2,.cls-4{fill:#30306b;}.cls-3{fill:#7d7dcc;}.cls-4{stroke:#30306b;}.cls-4,.cls-8{stroke-miterlimit:10;}.cls-5,.cls-8{fill:#52306c;}.cls-6{fill:#a47cce;}.cls-7{fill:url(#linear-gradient);}.cls-8{stroke:#52306c;}</style><linearGradient id="linear-gradient" x1="64.34" y1="4879.16" x2="101.41" y2="4879.16" gradientTransform="translate(-1 -4781.33)" gradientUnits="userSpaceOnUse"><stop offset="0" stop-color="#834fab"/><stop offset="1" stop-color="#834fab"/></linearGradient></defs><title>networking</title><polygon class="cls-1" points="23.17 86.16 59.63 106.95 60.24 95.7 23.17 74.29 23.17 86.16"/><polygon class="cls-2" points="60.18 95.22 96.08 74.07 60.18 52.65 23.59 74.07 60.18 95.22"/><polygon class="cls-3" points="96.83 85.4 59.9 106.95 59.69 95.7 96.83 74.29 96.83 85.4"/><path class="cls-4" d="M59.87,52.65l-37,21.42V85.95l37,21.42L97,85.95V74.07Zm0,53.55h0ZM96.08,85.4L60.44,106V95.36h-1V106L23.86,85.4V75.1l36,20.59,0.55-.83-36-20.58L59.87,53.82,95.47,74.29,59.41,94.88,60,95.71,96.08,75.1V85.4h0Z"/><polygon class="cls-1" points="23.17 74.83 59.63 95.63 60.24 84.37 23.17 62.95 23.17 74.83"/><polygon class="cls-2" points="60.18 83.89 96.08 62.75 60.18 41.33 23.59 62.75 60.18 83.89"/><polygon class="cls-3" points="96.83 74.07 59.9 95.63 59.69 84.37 96.83 62.95 96.83 74.07"/><path class="cls-4" d="M59.87,41.36l-37,21.39V74.56L59.87,96,97,74.56V62.75Zm0,53.52h0Zm36.21-20.8L60.44,94.68V84h-1V94.68L23.86,74.07V63.77l36,20.6,0.55-.83-36-20.59L60,42.48l35.5,20.47L59.41,83.55,60,84.38,96.08,63.77V74.07h0Z"/><polygon class="cls-1" points="23.17 63.5 59.63 84.3 60.24 73.04 23.17 51.62 23.17 63.5"/><polygon class="cls-2" points="60.18 72.56 96.08 51.42 60.18 30 23.59 51.42 60.18 72.56"/><polygon class="cls-3" points="96.83 62.75 59.9 84.3 59.69 73.04 96.83 51.62 96.83 62.75"/><path class="cls-4" d="M59.87,30l-37,21.44V63.23l37,21.42L97,63.23V51.44Zm0,53.55h0Zm36.21-20.8L60.44,83.34V72.73h-1V83.3L23.86,62.75V52.45L59.87,73l0.55-.83-36-20.59L59.87,31.17,95.47,51.62,59.41,72.22,60,73.05l36.12-20.6v10.3h0Z"/><polygon class="cls-5" points="100.27 86.98 136.25 65.84 100.27 44.42 63.74 65.84 100.27 86.98"/><polygon class="cls-6" points="137 108.05 100.13 129.62 99.92 87.46 137 66.04 137 108.05"/><polygon class="cls-7" points="63.34 108.81 99.79 129.62 100.41 87.46 63.34 66.04 63.34 108.81"/><path class="cls-8" d="M100.13,44.42L63.06,65.84v42.74L100.13,130l37-21.42V65.84ZM100,128.86h0Zm36.25-20.8-35.63,20.59V87.11h-1v41.53L64,108.05V66.87l36,20.59,0.55-.83L64.57,66l35.56-20.42,35.56,20.52-36,20.6,0.56,0.82,36.11-20.59-0.07,41.13h0Z"/></svg>