<svg id="php" xmlns="http://www.w3.org/2000/svg" viewBox="0 0 100 100"><title>php</title><rect width="100" height="100" fill="none"/><circle cx="50" cy="50.215" r="22" fill="#4f5e7f" stroke="#4f5e7f" stroke-miterlimit="10" stroke-width="3.915"/><circle cx="50" cy="50.215" r="22" fill="#7994bc"/><path d="M50,28.215a21.909,21.909,0,0,0-14.029,5.054A22,22,0,0,0,66.946,64.243,22,22,0,0,0,50,28.215Z" transform="translate(0)" fill="#8ca9dd"/><ellipse cx="63.186" cy="38.401" rx="2.875" ry="4.505" transform="translate(-8.647 55.927) rotate(-45)" fill="#fff" opacity="0.3"/><circle cx="59.667" cy="20.648" r="0.5" fill="#a2c9f9" stroke="#a2c9f9" stroke-linecap="round" stroke-linejoin="round"/><circle cx="20.301" cy="34.66" r="0.5" fill="#a2c9f9" stroke="#a2c9f9" stroke-linecap="round" stroke-linejoin="round"/><circle cx="32.408" cy="29.493" r="1.5" fill="none" stroke="#a2c9f9" stroke-linecap="round" stroke-linejoin="round"/><circle cx="68.75" cy="29.006" r="1.5" fill="none" stroke="#a2c9f9" stroke-linecap="round" stroke-linejoin="round"/><circle cx="19.801" cy="61.119" r="1.5" fill="none" stroke="#a2c9f9" stroke-linecap="round" stroke-linejoin="round"/><circle cx="75" cy="72.215" r="0.5" fill="#a2c9f9" stroke="#a2c9f9" stroke-linecap="round" stroke-linejoin="round"/><circle cx="64.686" cy="77" r="1.5" fill="none" stroke="#a2c9f9" stroke-linecap="round" stroke-linejoin="round"/><circle cx="57.5" cy="78.5" r="0.5" fill="#a2c9f9" stroke="#a2c9f9" stroke-linecap="round" stroke-linejoin="round"/></svg>