<?xml version="1.0" encoding="iso-8859-1"?>
<!-- Generator: Adobe Illustrator 19.0.0, SVG Export Plug-In . SVG Version: 6.00 Build 0)  -->
<svg version="1.1" id="Capa_1" xmlns="http://www.w3.org/2000/svg" xmlns:xlink="http://www.w3.org/1999/xlink" x="0px" y="0px"
	 viewBox="0 0 60 60" style="enable-background:new 0 0 60 60;" xml:space="preserve">
<circle style="fill:#E6E6E6;" cx="30" cy="30" r="29"/>
<polygon style="fill:#F0785A;" points="51.927,12.316 46.977,13.023 47.684,8.073 "/>
<path style="fill:#D1D4D1;" d="M30,60c-8.013,0-15.547-3.121-21.213-8.787S0,38.013,0,30S3.121,14.453,8.787,8.787S21.987,0,30,0
	s15.547,3.121,21.213,8.787S60,21.987,60,30s-3.121,15.547-8.787,21.213S38.013,60,30,60z M30,2c-7.479,0-14.511,2.913-19.799,8.201
	S2,22.521,2,30s2.913,14.511,8.201,19.799S22.521,58,30,58s14.511-2.913,19.799-8.201S58,37.479,58,30s-2.913-14.511-8.201-19.799
	S37.479,2,30,2z"/>
<circle style="fill:#BDC3C7;" cx="30" cy="30.146" r="24"/>
<circle style="fill:#FFFFFF;" cx="30" cy="30.146" r="21"/>
<g>
	<path style="fill:#BDC3C7;" d="M30,8.146c-0.553,0-1,0.447-1,1v3c0,0.553,0.447,1,1,1s1-0.447,1-1v-3
		C31,8.594,30.553,8.146,30,8.146z"/>
	<path style="fill:#BDC3C7;" d="M30,47.146c-0.553,0-1,0.447-1,1v3c0,0.553,0.447,1,1,1s1-0.447,1-1v-3
		C31,47.594,30.553,47.146,30,47.146z"/>
	<path style="fill:#BDC3C7;" d="M51,29.146h-3c-0.553,0-1,0.447-1,1s0.447,1,1,1h3c0.553,0,1-0.447,1-1S51.553,29.146,51,29.146z"/>
	<path style="fill:#BDC3C7;" d="M12,31.146c0.553,0,1-0.447,1-1s-0.447-1-1-1H9c-0.553,0-1,0.447-1,1s0.447,1,1,1H12z"/>
	<path style="fill:#BDC3C7;" d="M42.728,18.419c0.256,0,0.512-0.098,0.707-0.293l2.122-2.122c0.391-0.391,0.391-1.023,0-1.414
		s-1.023-0.391-1.414,0l-2.122,2.122c-0.391,0.391-0.391,1.023,0,1.414C42.216,18.321,42.472,18.419,42.728,18.419z"/>
	<path style="fill:#BDC3C7;" d="M16.565,42.167l-2.122,2.122c-0.391,0.391-0.391,1.023,0,1.414c0.195,0.195,0.451,0.293,0.707,0.293
		s0.512-0.098,0.707-0.293l2.122-2.122c0.391-0.391,0.391-1.023,0-1.414S16.956,41.776,16.565,42.167z"/>
	<path style="fill:#BDC3C7;" d="M43.435,42.167c-0.391-0.391-1.023-0.391-1.414,0s-0.391,1.023,0,1.414l2.122,2.122
		c0.195,0.195,0.451,0.293,0.707,0.293s0.512-0.098,0.707-0.293c0.391-0.391,0.391-1.023,0-1.414L43.435,42.167z"/>
	<path style="fill:#BDC3C7;" d="M15.857,14.59c-0.391-0.391-1.023-0.391-1.414,0s-0.391,1.023,0,1.414l2.122,2.122
		c0.195,0.195,0.451,0.293,0.707,0.293s0.512-0.098,0.707-0.293c0.391-0.391,0.391-1.023,0-1.414L15.857,14.59z"/>
	<path style="fill:#BDC3C7;" d="M25.53,9.604c-0.143-0.534-0.691-0.85-1.225-0.707s-0.85,0.691-0.707,1.225l0.776,2.897
		c0.119,0.447,0.523,0.741,0.965,0.741c0.086,0,0.173-0.011,0.26-0.034c0.533-0.143,0.85-0.691,0.707-1.225L25.53,9.604z"/>
	<path style="fill:#BDC3C7;" d="M35.625,47.274c-0.143-0.534-0.691-0.849-1.225-0.707c-0.533,0.143-0.85,0.691-0.707,1.225
		l0.776,2.897c0.119,0.447,0.523,0.741,0.965,0.741c0.086,0,0.173-0.011,0.26-0.034c0.533-0.143,0.85-0.691,0.707-1.225
		L35.625,47.274z"/>
	<path style="fill:#BDC3C7;" d="M46.421,25.746c0.119,0.447,0.523,0.741,0.965,0.741c0.086,0,0.173-0.011,0.26-0.034l2.897-0.776
		c0.533-0.143,0.85-0.691,0.707-1.225c-0.143-0.534-0.691-0.849-1.225-0.707l-2.897,0.776
		C46.595,24.664,46.278,25.213,46.421,25.746z"/>
	<path style="fill:#BDC3C7;" d="M13.579,34.547c-0.143-0.534-0.689-0.85-1.225-0.707l-2.897,0.776
		c-0.533,0.143-0.85,0.691-0.707,1.225c0.119,0.447,0.523,0.741,0.965,0.741c0.086,0,0.173-0.011,0.26-0.034l2.897-0.776
		C13.405,35.629,13.722,35.08,13.579,34.547z"/>
	<path style="fill:#BDC3C7;" d="M41,11.094c-0.478-0.276-1.09-0.113-1.366,0.366l-1.5,2.598c-0.276,0.479-0.112,1.09,0.366,1.366
		c0.157,0.091,0.329,0.134,0.499,0.134c0.346,0,0.682-0.179,0.867-0.5l1.5-2.598C41.643,11.981,41.479,11.37,41,11.094z"/>
	<path style="fill:#BDC3C7;" d="M21.5,44.869c-0.478-0.277-1.09-0.113-1.366,0.366l-1.5,2.598c-0.276,0.479-0.112,1.09,0.366,1.366
		c0.157,0.091,0.329,0.134,0.499,0.134c0.346,0,0.682-0.179,0.867-0.5l1.5-2.598C22.143,45.757,21.979,45.146,21.5,44.869z"/>
	<path style="fill:#BDC3C7;" d="M48.687,39.78l-2.598-1.5c-0.479-0.277-1.089-0.113-1.366,0.366
		c-0.276,0.479-0.112,1.09,0.366,1.366l2.598,1.5c0.157,0.091,0.329,0.134,0.499,0.134c0.346,0,0.682-0.179,0.867-0.5
		C49.329,40.668,49.165,40.057,48.687,39.78z"/>
	<path style="fill:#BDC3C7;" d="M11.313,20.513l2.598,1.5c0.157,0.091,0.329,0.134,0.499,0.134c0.346,0,0.682-0.179,0.867-0.5
		c0.276-0.479,0.112-1.09-0.366-1.366l-2.598-1.5c-0.478-0.276-1.09-0.113-1.366,0.366C10.671,19.625,10.835,20.236,11.313,20.513z"
		/>
	<path style="fill:#BDC3C7;" d="M20.366,11.46c-0.277-0.479-0.89-0.643-1.366-0.366c-0.479,0.276-0.643,0.888-0.366,1.366l1.5,2.598
		c0.186,0.321,0.521,0.5,0.867,0.5c0.17,0,0.342-0.043,0.499-0.134c0.479-0.276,0.643-0.888,0.366-1.366L20.366,11.46z"/>
	<path style="fill:#BDC3C7;" d="M39.866,45.235c-0.277-0.479-0.891-0.644-1.366-0.366c-0.479,0.276-0.643,0.888-0.366,1.366
		l1.5,2.598c0.186,0.321,0.521,0.5,0.867,0.5c0.17,0,0.342-0.043,0.499-0.134c0.479-0.276,0.643-0.888,0.366-1.366L39.866,45.235z"
		/>
	<path style="fill:#BDC3C7;" d="M44.723,21.646c0.186,0.321,0.521,0.5,0.867,0.5c0.17,0,0.342-0.043,0.499-0.134l2.598-1.5
		c0.479-0.276,0.643-0.888,0.366-1.366c-0.277-0.479-0.889-0.643-1.366-0.366l-2.598,1.5C44.61,20.557,44.446,21.168,44.723,21.646z
		"/>
	<path style="fill:#BDC3C7;" d="M15.277,38.646c-0.277-0.479-0.891-0.644-1.366-0.366l-2.598,1.5
		c-0.479,0.276-0.643,0.888-0.366,1.366c0.186,0.321,0.521,0.5,0.867,0.5c0.17,0,0.342-0.043,0.499-0.134l2.598-1.5
		C15.39,39.736,15.554,39.125,15.277,38.646z"/>
	<path style="fill:#BDC3C7;" d="M35.694,8.896c-0.533-0.143-1.082,0.173-1.225,0.707l-0.776,2.897
		c-0.143,0.533,0.174,1.082,0.707,1.225c0.087,0.023,0.174,0.034,0.26,0.034c0.441,0,0.846-0.294,0.965-0.741l0.776-2.897
		C36.544,9.588,36.228,9.039,35.694,8.896z"/>
	<path style="fill:#BDC3C7;" d="M25.6,46.567c-0.532-0.141-1.082,0.173-1.225,0.707l-0.776,2.897
		c-0.143,0.533,0.174,1.082,0.707,1.225c0.087,0.023,0.174,0.034,0.26,0.034c0.441,0,0.846-0.294,0.965-0.741l0.776-2.897
		C26.449,47.259,26.133,46.71,25.6,46.567z"/>
	<path style="fill:#BDC3C7;" d="M50.543,34.616l-2.897-0.776c-0.532-0.142-1.082,0.173-1.225,0.707
		c-0.143,0.533,0.174,1.082,0.707,1.225l2.897,0.776c0.087,0.023,0.174,0.034,0.26,0.034c0.441,0,0.846-0.294,0.965-0.741
		C51.393,35.308,51.076,34.759,50.543,34.616z"/>
	<path style="fill:#BDC3C7;" d="M9.457,25.677l2.897,0.776c0.087,0.023,0.174,0.034,0.26,0.034c0.441,0,0.846-0.294,0.965-0.741
		c0.143-0.533-0.174-1.082-0.707-1.225l-2.897-0.776c-0.533-0.142-1.082,0.173-1.225,0.707C8.607,24.985,8.924,25.534,9.457,25.677z
		"/>
</g>
<polygon style="fill:#F0785A;" points="34.435,21.322 39.385,20.615 38.678,25.565 "/>
<circle style="fill:#8697CB;" cx="30" cy="30.146" r="10"/>
<circle style="fill:#556080;" cx="30" cy="30.146" r="6"/>
<g>
</g>
<g>
</g>
<g>
</g>
<g>
</g>
<g>
</g>
<g>
</g>
<g>
</g>
<g>
</g>
<g>
</g>
<g>
</g>
<g>
</g>
<g>
</g>
<g>
</g>
<g>
</g>
<g>
</g>
</svg>
