<svg id="Layer_1" data-name="Layer 1" xmlns="http://www.w3.org/2000/svg" viewBox="0 0 160 160"><defs><style>.cls-1{fill:#fff;}.cls-2{fill:#853cbe;}.cls-3{fill:#44275e;}</style></defs><title>quickstart-guides</title><circle class="cls-1" cx="64.43" cy="78.5" r="5.4"/><circle class="cls-1" cx="83.83" cy="78.5" r="5.4"/><circle class="cls-1" cx="104.13" cy="78.5" r="5.4"/><path class="cls-2" d="M52,117.5a7.21,7.21,0,0,1-7.17-7.18V46.68A7.2,7.2,0,0,1,52,39.5h63.65a7.2,7.2,0,0,1,7.17,7.18v63.65a7.21,7.21,0,0,1-7.18,7.18H52Z"/><path class="cls-3" d="M115.65,40.5a6.2,6.2,0,0,1,6.18,6.18v63.65a6.2,6.2,0,0,1-6.18,6.18H52a6.2,6.2,0,0,1-6.18-6.18V46.68A6.2,6.2,0,0,1,52,40.5h63.65m0-2H52a8.19,8.19,0,0,0-8.18,8.18v63.65A8.19,8.19,0,0,0,52,118.5h63.65a8.19,8.19,0,0,0,8.18-8.18V46.68a8.19,8.19,0,0,0-8.18-8.18h0Z"/><circle class="cls-1" cx="67.67" cy="78.5" r="4.5"/><circle class="cls-1" cx="83.83" cy="78.5" r="4.5"/><circle class="cls-1" cx="100.75" cy="78.5" r="4.5"/></svg>