<svg id="Layer_1" data-name="Layer 1" xmlns="http://www.w3.org/2000/svg" viewBox="0 0 224 124"><defs><style>.cls-1,.cls-11,.cls-7{fill:none;stroke-miterlimit:10;}.cls-1,.cls-7{stroke:#52306c;}.cls-1{stroke-width:4px;}.cls-2{fill:#3ccb5a;}.cls-10,.cls-3{fill:#52306c;}.cls-4{opacity:0.4;}.cls-5{fill:#481689;}.cls-5,.cls-6{opacity:0.2;}.cls-10,.cls-5,.cls-6{isolation:isolate;}.cls-6{fill:#f5ccff;}.cls-8{fill:#fff;}.cls-9{fill:#a47cce;}.cls-10{opacity:0.1;}.cls-11{stroke:#80f98c;stroke-linecap:round;stroke-width:2px;}</style></defs><title>update-an-existing-service</title><line class="cls-1" x1="162" y1="66" x2="71" y2="66"/><path class="cls-2" d="M11.87,21H71.13A10.93,10.93,0,0,1,82,32V92a10.93,10.93,0,0,1-10.87,11H11.87A10.93,10.93,0,0,1,1,92V32A10.93,10.93,0,0,1,11.87,21Z" transform="translate(0)"/><path class="cls-3" d="M71,22A10,10,0,0,1,81,32V92a9.79,9.79,0,0,1-9.58,10H11.69A9.74,9.74,0,0,1,2,92.21Q2,92.11,2,92V32a9.74,9.74,0,0,1,9.48-10H71m0.25-2H11.69A11.75,11.75,0,0,0,0,31.81Q0,31.9,0,32V92a11.75,11.75,0,0,0,11.5,12H71.25A11.8,11.8,0,0,0,83,92.15q0-.08,0-0.15V32A11.91,11.91,0,0,0,71.18,20h0.07Z" transform="translate(0)"/><g class="cls-4"><path class="cls-5" d="M41,22H71.25A9.75,9.75,0,0,1,81,31.75V62H41V22h0Z" transform="translate(0)"/><rect class="cls-6" x="22" y="42" width="39" height="40"/><path class="cls-6" d="M2,62H41v40H11.69A9.69,9.69,0,0,1,2,92.31H2V62H2Z" transform="translate(0)"/><line class="cls-7" x1="21.5" y1="102" x2="21.5" y2="22"/><line class="cls-7" x1="61.5" y1="22" x2="61.5" y2="102"/><line class="cls-7" x1="2" y1="42.5" x2="81" y2="42.5"/><line class="cls-7" x1="41.5" y1="102" x2="41.5" y2="22"/><line class="cls-7" x1="1" y1="62.5" x2="83" y2="62.5"/><line class="cls-7" x1="81" y1="82.5" x2="2" y2="82.5"/><rect class="cls-6" x="22" y="22" width="19" height="60"/></g><rect class="cls-8" x="91" y="1" width="132" height="122" rx="7" ry="7"/><path class="cls-3" d="M216,2a6,6,0,0,1,6,6V116a6,6,0,0,1-6,6H98a6,6,0,0,1-6-6V8a6,6,0,0,1,6-6H216m0-2H98a8,8,0,0,0-8,8V116a8,8,0,0,0,8,8H216a8,8,0,0,0,8-8V8a8,8,0,0,0-8-8h0Z" transform="translate(0)"/><path class="cls-9" d="M98,2H216a6,6,0,0,1,6,6V22H92V8A6,6,0,0,1,98,2Z" transform="translate(0)"/><path class="cls-3" d="M97.76,1H172V22H91V7.76A6.76,6.76,0,0,1,97.76,1Z" transform="translate(0)"/><rect class="cls-10" x="92" y="22" width="130" height="20"/><rect class="cls-10" x="92" y="62" width="130" height="20"/><path class="cls-10" d="M92,102H222v14a6,6,0,0,1-6,6H98a6,6,0,0,1-6-6V102h0Z" transform="translate(0)"/><path class="cls-11" d="M5,38V33.66C5,29.43,8.93,26,13.16,26H31" transform="translate(0)"/><path class="cls-3" d="M138.54,30.2H145v4.3h-6.45V30.2h0Z" transform="translate(0)"/><path class="cls-3" d="M144.79,30.2h6.45v4.3h-6.45V30.2Z" transform="translate(0)"/><path class="cls-3" d="M151,30.2h6.45v4.3H151V30.2Z" transform="translate(0)"/><path class="cls-3" d="M157.29,30.2h6.45v4.3h-6.45V30.2Z" transform="translate(0)"/><path class="cls-3" d="M163.54,30.2H170v4.3h-6.45V30.2h0Z" transform="translate(0)"/><path class="cls-3" d="M169.79,30.2h6.45v4.3h-6.45V30.2Z" transform="translate(0)"/><path class="cls-3" d="M176,30.2h6.45v4.3H176V30.2Z" transform="translate(0)"/><path class="cls-3" d="M163.54,50.2H170v4.3h-6.45V50.2h0Z" transform="translate(0)"/><path class="cls-3" d="M138.54,70.2H145v4.3h-6.45V70.2h0Z" transform="translate(0)"/><path class="cls-3" d="M157.33,110.2h6.45v4.3h-6.45v-4.3Z" transform="translate(0)"/><path class="cls-8" d="M101,9.2h49.64v4.3H101V9.2Z" transform="translate(0)"/><path class="cls-8" d="M41.58,40.94a20.79,20.79,0,0,0-12.73,4.27l-0.25.19a1,1,0,0,0-.2,1.4h0l0.38,0.51a1,1,0,0,0,.66.39h0.14a1,1,0,0,0,.6-0.2l0.25-.19a18,18,0,0,1,11.14-3.73,18.47,18.47,0,0,1,18.26,16l-3.52-3a1,1,0,0,0-1.4.1l-0.44.51a1,1,0,0,0,.09,1.41h0l6,5.08A1,1,0,0,0,62,63.61l5.65-6.09a1,1,0,0,0,0-1.39l-0.44-.62A1.24,1.24,0,0,0,66.4,55h0a1.22,1.22,0,0,0-.71.5l-3.21,3.56A21.12,21.12,0,0,0,41.61,40.95h0Z" transform="translate(0)"/><path class="cls-8" d="M22,61.56l0.19,0.13H21.84Z" transform="translate(0)"/><path class="cls-8" d="M21.91,59.54a1,1,0,0,0-.73.32L15.53,66a1,1,0,0,0,0,1.39L16,67.75a1,1,0,0,0,.71.25h0a1,1,0,0,0,.71-0.27l3.23-3.38A21.1,21.1,0,0,0,54,79.05l0.27-.2a1,1,0,0,0,.2-1.4h0l-0.38-.51a1,1,0,0,0-1.25-.29l-0.25.13-0.14.08a18.46,18.46,0,0,1-29.16-13l3.52,3a1,1,0,0,0,1.4-.1l0.44-.51a1,1,0,0,0-.09-1.41h0l-6-5.08a1,1,0,0,0-.65-0.24h0v0Z" transform="translate(0)"/><line class="cls-11" x1="5" y1="50" x2="5" y2="44"/><path class="cls-3" d="M101,30.2h25.2v4.3H101V30.2Z" transform="translate(0)"/><path class="cls-3" d="M101,50.2h50v4.3H101V50.2Z" transform="translate(0)"/><path class="cls-3" d="M101,70.2h25.2v4.3H101V70.2Z" transform="translate(0)"/><path class="cls-3" d="M157.33,70.2H182v4.3H157.33V70.2Z" transform="translate(0)"/><path class="cls-3" d="M101,90.2h18.95v4.3H101V90.2Z" transform="translate(0)"/><path class="cls-3" d="M132.29,90.2h25.45v4.3H132.29V90.2Z" transform="translate(0)"/><path class="cls-3" d="M101,110.2h18.95v4.3H101v-4.3Z" transform="translate(0)"/><path class="cls-3" d="M132.29,110.2H145v4.3H132.29v-4.3Z" transform="translate(0)"/></svg>