<svg id="rails" xmlns="http://www.w3.org/2000/svg" viewBox="0 0 100 100"><title>rails</title><g id="rails_next" data-name="rails next"><g id="stars"><path d="M15.6,36.742l1.1-1.269a2.557,2.557,0,0,0,0-3.344L15.6,30.86l1.269,1.1a2.557,2.557,0,0,0,3.344,0l1.269-1.1-1.1,1.269a2.557,2.557,0,0,0,0,3.344l1.1,1.269-1.269-1.1a2.557,2.557,0,0,0-3.344,0Z" fill="#fff5f7" stroke="#f9cad3" stroke-linecap="round" stroke-linejoin="round"/><path d="M65.5,68.171L65.382,66.5a2.557,2.557,0,0,0-2.364-2.364l-1.673-.122,1.673-.122a2.557,2.557,0,0,0,2.364-2.364L65.5,59.852l0.122,1.673a2.557,2.557,0,0,0,2.364,2.364l1.673,0.122-1.673.122A2.557,2.557,0,0,0,65.626,66.5Z" fill="#fff5f7" stroke="#f9cad3" stroke-linecap="round" stroke-linejoin="round"/><path d="M45.547,20.775L45.425,19.1a2.557,2.557,0,0,0-2.364-2.364l-1.673-.122,1.673-.122a2.557,2.557,0,0,0,2.364-2.364l0.122-1.673,0.122,1.673a2.557,2.557,0,0,0,2.364,2.364l1.673,0.122-1.673.122A2.557,2.557,0,0,0,45.669,19.1Z" fill="#fff5f7" stroke="#f9cad3" stroke-linecap="round" stroke-linejoin="round"/><line x1="78.756" y1="34.361" x2="78.756" y2="38.361" fill="#fff5f7" stroke="#f9cad3" stroke-linecap="round" stroke-linejoin="round"/><line x1="80.756" y1="36.361" x2="76.756" y2="36.361" fill="#fff5f7" stroke="#f9cad3" stroke-linecap="round" stroke-linejoin="round"/><line x1="66.209" y1="19.17" x2="63.38" y2="21.999" fill="#fff5f7" stroke="#f9cad3" stroke-linecap="round" stroke-linejoin="round"/><line x1="66.209" y1="21.999" x2="63.38" y2="19.17" fill="#fff5f7" stroke="#f9cad3" stroke-linecap="round" stroke-linejoin="round"/><line x1="23.567" y1="49.393" x2="23.567" y2="53.393" fill="#fff5f7" stroke="#f9cad3" stroke-linecap="round" stroke-linejoin="round"/><line x1="25.567" y1="51.393" x2="21.567" y2="51.393" fill="#fff5f7" stroke="#f9cad3" stroke-linecap="round" stroke-linejoin="round"/><line x1="35.563" y1="72.88" x2="32.735" y2="75.709" fill="#fff5f7" stroke="#f9cad3" stroke-linecap="round" stroke-linejoin="round"/><line x1="35.563" y1="75.709" x2="32.735" y2="72.88" fill="#fff5f7" stroke="#f9cad3" stroke-linecap="round" stroke-linejoin="round"/></g><polygon points="71.323 33.206 59.768 27.027 40.232 27.027 28.677 33.206 25.788 43.14 50 74.836 74.212 43.14 71.323 33.206" fill="none" stroke="#e51f3b" stroke-miterlimit="10" stroke-width="3"/><polygon points="40.034 39.338 59.966 39.338 71.756 33.034 59.966 26.731 40.034 26.731 28.244 33.034 40.034 39.338" fill="#f9bdc6"/><path d="M59.966,39.635H40.034a0.3,0.3,0,0,1-.14-0.035L28.1,33.3a0.3,0.3,0,0,1,0-.523l11.79-6.3a0.3,0.3,0,0,1,.14-0.035H59.966a0.3,0.3,0,0,1,.14.035l11.79,6.3a0.3,0.3,0,0,1,0,.523l-11.79,6.3A0.3,0.3,0,0,1,59.966,39.635Zm-19.858-.593H59.892l11.235-6.007L59.892,27.027H40.108L28.873,33.035Z" fill="#e51f3b"/><polyline points="28.873 33.329 40.108 27.322 59.892 27.322 71.127 33.329" fill="none" stroke="#fff" stroke-linecap="round" stroke-linejoin="round" opacity="0.25"/><polygon points="37.086 49.474 40.034 39.338 59.966 39.338 62.913 49.474 37.086 49.474" fill="#ff7b94"/><path d="M62.913,49.77H37.086a0.3,0.3,0,0,1-.285-0.379l2.948-10.135a0.3,0.3,0,0,1,.285-0.214H59.966a0.3,0.3,0,0,1,.285.214L63.2,49.391A0.3,0.3,0,0,1,62.913,49.77Zm-25.432-.593H62.518l-2.775-9.542H40.257Z" fill="#e51f3b"/><polyline points="40.034 39.928 59.493 39.928 62.324 49.474" fill="none" stroke="#fff" stroke-linecap="round" stroke-linejoin="round" opacity="0.15"/><polygon points="28.244 33.034 25.297 43.17 37.086 49.474 40.034 39.338 28.244 33.034" fill="#ff5777"/><polyline points="36.497 49.768 39.444 39.633 28.347 33.79" fill="none" stroke="#fff" stroke-linecap="round" stroke-linejoin="round" opacity="0.25"/><path d="M37.086,49.77a0.3,0.3,0,0,1-.14-0.035l-11.79-6.3a0.3,0.3,0,0,1-.145-0.344l2.948-10.135a0.3,0.3,0,0,1,.425-0.179l11.79,6.3a0.3,0.3,0,0,1,.145.344L37.371,49.557A0.3,0.3,0,0,1,37.086,49.77ZM25.648,43.022L36.9,49.04l2.778-9.553L28.427,33.468Z" fill="#e51f3b"/><polygon points="50 75.51 62.913 49.474 37.086 49.474 50 75.51" fill="#ff7b94"/><polygon points="71.756 33.034 74.703 43.17 62.913 49.474 59.966 39.338 71.756 33.034" fill="#f9bdc6"/><polyline points="60.416 39.824 71.461 33.919 74.281 43.616" fill="none" stroke="#fff" stroke-linecap="round" stroke-linejoin="round" opacity="0.25"/><path d="M60.318,39.486L63.1,49.04l11.255-6.018-2.778-9.553Zm2.6,10.284a0.3,0.3,0,0,1-.115-0.023,0.3,0.3,0,0,1-.17-0.191L59.681,39.421a0.3,0.3,0,0,1,.145-0.344l11.79-6.3a0.3,0.3,0,0,1,.425.179l2.947,10.135a0.3,0.3,0,0,1-.145.344l-11.79,6.3A0.3,0.3,0,0,1,62.913,49.77Z" fill="#e51f3b"/><line x1="37.086" y1="50.063" x2="62.913" y2="50.063" fill="none" stroke="#fff" stroke-linecap="round" stroke-linejoin="round" opacity="0.15"/><path d="M50,75.807a0.3,0.3,0,0,1-.266-0.165L36.821,49.605a0.3,0.3,0,0,1,.266-0.428H62.913a0.3,0.3,0,0,1,.266.428L50.266,75.642A0.3,0.3,0,0,1,50,75.807ZM37.565,49.77L50,74.843,62.435,49.77H37.565Z" fill="#e51f3b"/><polygon points="25.297 43.17 50 75.51 37.086 49.474 25.297 43.17" fill="#ff5777"/><line x1="26.362" y1="44.371" x2="37.086" y2="50.065" fill="none" stroke="#fff" stroke-linecap="round" stroke-linejoin="round" opacity="0.25"/><path d="M50,75.807a0.3,0.3,0,0,1-.236-0.116l-24.7-32.34a0.3,0.3,0,0,1,.376-0.442l11.79,6.3a0.294,0.294,0,0,1,.126.13L50.266,75.378A0.3,0.3,0,0,1,50,75.807ZM26.362,44.076l22,28.8-11.5-23.19Z" fill="#e51f3b"/><polygon points="62.913 49.474 50 75.51 74.703 43.17 62.913 49.474" fill="#f9bdc6"/><line x1="73.638" y1="44.371" x2="62.913" y2="50.065" fill="none" stroke="#fff" stroke-linecap="round" stroke-linejoin="round" opacity="0.25"/><path d="M50,75.807a0.3,0.3,0,0,1-.265-0.428L62.647,49.342a0.3,0.3,0,0,1,.126-0.13l11.79-6.3a0.3,0.3,0,0,1,.375.442l-24.7,32.34A0.3,0.3,0,0,1,50,75.807ZM63.137,49.691l-11.5,23.19,22-28.8Z" fill="#e51f3b"/><polygon points="55.108 27.322 59.892 27.322 62.067 28.485 50.297 39.042 41.388 39.042 55.108 27.322" fill="#faced4"/><polyline points="37.481 49.177 40.034 39.635 47.129 39.709" fill="#fd90a5"/><rect width="100" height="100" fill="none"/></g></svg>