<svg id="Layer_1" data-name="Layer 1" xmlns="http://www.w3.org/2000/svg" viewBox="0 0 160 160"><defs><style>.cls-1,.cls-2{fill:#326de6;}.cls-2{stroke:#52306c;stroke-miterlimit:10;stroke-width:2px;}.cls-3{fill:#fff;}</style></defs><title>using-kubernetes</title><path class="cls-1" d="M63.19,122.29a7,7,0,0,1-5.56-2.69l-20.92-26a7,7,0,0,1-1.37-6.1L42.81,55a7.07,7.07,0,0,1,3.88-4.84L76.93,35.75a7.09,7.09,0,0,1,6.22,0l30.24,14.4A7.07,7.07,0,0,1,117.27,55l7.47,32.45a7.21,7.21,0,0,1-1.37,6.1l-20.92,26a7.23,7.23,0,0,1-5.56,2.69l-33.71.06h0Z"/><path class="cls-2" d="M80,33.72h0a9,9,0,0,0-3.71.84L46,49a8.46,8.46,0,0,0-4.66,5.8L33.9,87.27a8.47,8.47,0,0,0,1.67,7.29l20.92,26a8.44,8.44,0,0,0,6.63,3.17H96.65a8.44,8.44,0,0,0,6.63-3.17l20.92-26a8.43,8.43,0,0,0,1.67-7.29L118.4,54.82a8.46,8.46,0,0,0-4.66-5.8L83.63,34.56A8.57,8.57,0,0,0,80,33.72h0Z"/><path class="cls-3" d="M110.28,85.24h-0.06c-0.06,0-.12,0-0.12-0.06a0.55,0.55,0,0,0-.36-0.06A8.17,8.17,0,0,0,108.6,85a2.24,2.24,0,0,1-.6-0.06h-0.06a15.77,15.77,0,0,1-3.23-.54,1.16,1.16,0,0,1-.66-0.66c0-.06-0.06-0.06-0.06-0.12h0l-0.78-.24a23.64,23.64,0,0,0-.42-8.43,24.62,24.62,0,0,0-3.35-7.83l0.6-.54V66.47a1.35,1.35,0,0,1,.3-0.9A17.43,17.43,0,0,1,103,63.72h0c0.18-.12.36-0.18,0.54-0.3a9,9,0,0,0,1-.6c0.06-.06.18-0.12,0.3-0.24a0.23,0.23,0,0,0,.12-0.12h0a2,2,0,0,0,.42-2.69,1.7,1.7,0,0,0-1.37-.66,2.22,2.22,0,0,0-1.31.48h0l-0.12.12c-0.12.06-.18,0.18-0.3,0.24a9.92,9.92,0,0,0-.78.84,2.76,2.76,0,0,1-.42.42h0a15.19,15.19,0,0,1-2.39,2.15,1,1,0,0,1-.54.18,0.76,0.76,0,0,1-.36-0.06H97.73L97,64a29,29,0,0,0-2.45-2.27,23.87,23.87,0,0,0-12.49-5L82,56l-0.12-.12a1.25,1.25,0,0,1-.48-0.78,21,21,0,0,1,.18-3.23v-0.1a2.12,2.12,0,0,1,.12-0.6c0.06-.36.12-0.72,0.18-1.14V49.5h0a1.82,1.82,0,0,0-3.17-1.37,1.89,1.89,0,0,0-.54,1.37h0V50a3.48,3.48,0,0,0,.18,1.14c0.06,0.18.06,0.36,0.12,0.6V51.8a15.44,15.44,0,0,1,.2,3.2,1.25,1.25,0,0,1-.48.78l-0.12.12h0L78,56.67a30,30,0,0,0-3.23.48,23,23,0,0,0-11.83,6.69l-0.6-.42H62.23c-0.12,0-.24.06-0.36,0.06a1,1,0,0,1-.54-0.18,15.85,15.85,0,0,1-2.39-2.21h0a2.76,2.76,0,0,0-.42-0.42,9.92,9.92,0,0,0-.78-0.84c-0.06-.06-0.18-0.12-0.3-0.24a0.23,0.23,0,0,1-.12-0.12h0A2.09,2.09,0,0,0,56,59a1.7,1.7,0,0,0-1.37.66A2,2,0,0,0,55,62.35h0c0.06,0,.06.06,0.12,0.06s0.18,0.18.3,0.24a9,9,0,0,0,1,.6,2.42,2.42,0,0,1,.54.3h0A17.43,17.43,0,0,1,59.7,65.4a1.1,1.1,0,0,1,.3.9v0.12h0L60.6,67a2.1,2.1,0,0,0-.3.48A23.28,23.28,0,0,0,57,83.2l-0.78.24c0,0.06-.06.06-0.06,0.12a1.39,1.39,0,0,1-.66.66,15.09,15.09,0,0,1-3.23.54H52.19a2,2,0,0,0-.6.06,8.17,8.17,0,0,0-1.14.12c-0.12,0-.24.06-0.36,0.06a0.22,0.22,0,0,0-.18.06h0a2,2,0,0,0-1.55,2.21,1.84,1.84,0,0,0,1.91,1.37,1.32,1.32,0,0,0,.48-0.06h0c0.06,0,.12,0,0.12-0.06a0.55,0.55,0,0,1,.36-0.06A5.75,5.75,0,0,0,52.31,88c0.18-.06.36-0.18,0.54-0.24h0.06a14.68,14.68,0,0,1,3.11-.9h0.12a1.33,1.33,0,0,1,.78.3c0.06,0,.06.06,0.12,0.06h0l0.84-.12A23.64,23.64,0,0,0,65.7,98.38a24.19,24.19,0,0,0,2.57,1.73l-0.36.78A0.1,0.1,0,0,0,68,101a1.23,1.23,0,0,1,.12,1,16.85,16.85,0,0,1-1.55,2.81v0.06c-0.12.18-.24,0.3-0.36,0.48s-0.42.6-.66,1a1.31,1.31,0,0,0-.18.3,0.21,0.21,0,0,1-.06.12h0a1.89,1.89,0,0,0,.76,2.56h0a1.59,1.59,0,0,0,.72.18,2.15,2.15,0,0,0,1.79-1.14h0a0.21,0.21,0,0,1,.06-0.12,1.31,1.31,0,0,1,.18-0.3,11.32,11.32,0,0,0,.36-1.08l0.18-.54h0a14,14,0,0,1,1.25-3,1.53,1.53,0,0,1,.78-0.54,0.12,0.12,0,0,0,.12-0.06h0l0.42-.78a23.35,23.35,0,0,0,8.37,1.55,21.69,21.69,0,0,0,5.2-.6,26.56,26.56,0,0,0,3.11-.9L89,102.67a0.12,0.12,0,0,1,.12.06,1.11,1.11,0,0,1,.78.54,20.46,20.46,0,0,1,1.25,3v0.06l0.18,0.54a7.57,7.57,0,0,0,.36,1.08c0.06,0.12.12,0.18,0.18,0.3a0.21,0.21,0,0,0,.06.12h0a2,2,0,0,0,1.79,1.14,1.59,1.59,0,0,0,.72-0.18,1.78,1.78,0,0,0,.9-1.08,2.16,2.16,0,0,0-.12-1.49h0c0-.06-0.06-0.06-0.06-0.12a1.31,1.31,0,0,0-.18-0.3,5.42,5.42,0,0,0-.66-1c-0.12-.18-0.24-0.3-0.36-0.48V104.8a13.41,13.41,0,0,1-1.6-2.8,1.67,1.67,0,0,1,.06-1c0-.06.06-0.06,0.06-0.12h0l-0.3-.72a23.71,23.71,0,0,0,10.4-13.09l0.72,0.12c0.06,0,.06-0.06.12-0.06a1.52,1.52,0,0,1,.78-0.3h0.12a14.68,14.68,0,0,1,3.11.9h0.06c0.18,0.06.36,0.18,0.54,0.24a5.75,5.75,0,0,0,1.08.42c0.12,0,.24.06,0.36,0.06a0.22,0.22,0,0,1,.18.06h0a1.32,1.32,0,0,0,.48.06A2,2,0,0,0,112,87.21a2.3,2.3,0,0,0-1.73-2h0v0ZM82.61,82.31L80,83.56l-2.63-1.25L76.69,79.5l1.79-2.27h2.93L83.2,79.5l-0.6,2.81h0Zm15.6-6.22a18.84,18.84,0,0,1,.42,6L89.48,79.5a1.62,1.62,0,0,1-1.14-1.91,1.42,1.42,0,0,1,.36-0.66l7.23-6.51A19.15,19.15,0,0,1,98.2,76.1h0Zm-5.14-9.26-7.83,5.56A1.59,1.59,0,0,1,83.15,72a1.33,1.33,0,0,1-.3-0.66L82.31,61.6a18.14,18.14,0,0,1,10.76,5.2h0v0Zm-17.33-4.9,1.91-.36-0.54,9.56a1.64,1.64,0,0,1-1.61,1.55,1.42,1.42,0,0,1-.72-0.18l-7.95-5.68a18.23,18.23,0,0,1,8.9-4.9h0ZM64,70.42l7.11,6.33A1.59,1.59,0,0,1,71.27,79h0a1.19,1.19,0,0,1-.72.48l-9.26,2.69A19.24,19.24,0,0,1,64,70.42h0Zm-1.61,16.2L71.85,85a1.61,1.61,0,0,1,1.67,1.25,1.71,1.71,0,0,1-.06,1h0L69.82,96a18.84,18.84,0,0,1-7.47-9.38h0ZM84.16,98.5A19.52,19.52,0,0,1,80,99a20.25,20.25,0,0,1-6-1l4.72-8.55A1.57,1.57,0,0,1,80.63,89a2.55,2.55,0,0,1,.72.66h0L85.9,98c-0.54.18-1.14,0.3-1.73,0.48h0v0Zm11.66-8.3A19,19,0,0,1,90.08,96l-3.76-9a1.61,1.61,0,0,1,.84-1.85A1.91,1.91,0,0,1,88,84.94l9.56,1.61a12,12,0,0,1-1.73,3.65h0Z"/></svg>