<svg id="Layer_1" data-name="Layer 1" xmlns="http://www.w3.org/2000/svg" viewBox="0 0 160 160"><defs><style>.cls-1{fill:#fff;}.cls-2{fill:#5480e1;}.cls-3{fill:#52306c;}</style></defs><title>quickstart-guides</title><rect class="cls-1" x="-643" y="-259.07" width="1012" height="1234" transform="translate(-274 715.87) rotate(180)"/><rect class="cls-2" x="111.66" y="90.23" width="16" height="16" rx="1" ry="1"/><path class="cls-3" d="M126.66,91.23v14h-14v-14h14m0-2h-14a2,2,0,0,0-2,2v14a2,2,0,0,0,2,2h14a2,2,0,0,0,2-2v-14a2,2,0,0,0-2-2h0Z"/><rect class="cls-2" x="90.66" y="90.23" width="16" height="16" rx="1" ry="1"/><path class="cls-3" d="M105.66,91.23v14h-14v-14h14m0-2h-14a2,2,0,0,0-2,2v14a2,2,0,0,0,2,2h14a2,2,0,0,0,2-2v-14a2,2,0,0,0-2-2h0Z"/><rect class="cls-2" x="69.66" y="90.23" width="16" height="16" rx="1" ry="1"/><path class="cls-3" d="M84.66,91.23v14h-14v-14h14m0-2h-14a2,2,0,0,0-2,2v14a2,2,0,0,0,2,2h14a2,2,0,0,0,2-2v-14a2,2,0,0,0-2-2h0Z"/><rect class="cls-2" x="48.66" y="90.23" width="16" height="16" rx="1" ry="1"/><path class="cls-3" d="M63.66,91.23v14h-14v-14h14m0-2h-14a2,2,0,0,0-2,2v14a2,2,0,0,0,2,2h14a2,2,0,0,0,2-2v-14a2,2,0,0,0-2-2h0Z"/><rect class="cls-2" x="27.66" y="90.23" width="16" height="16" rx="1" ry="1"/><path class="cls-3" d="M42.66,91.23v14h-14v-14h14m0-2h-14a2,2,0,0,0-2,2v14a2,2,0,0,0,2,2h14a2,2,0,0,0,2-2v-14a2,2,0,0,0-2-2h0Z"/><rect class="cls-2" x="90.66" y="69.23" width="16" height="16" rx="1" ry="1"/><path class="cls-3" d="M105.66,70.23v14h-14v-14h14m0-2h-14a2,2,0,0,0-2,2v14a2,2,0,0,0,2,2h14a2,2,0,0,0,2-2v-14a2,2,0,0,0-2-2h0Z"/><rect class="cls-2" x="69.66" y="69.23" width="16" height="16" rx="1" ry="1"/><path class="cls-3" d="M84.66,70.23v14h-14v-14h14m0-2h-14a2,2,0,0,0-2,2v14a2,2,0,0,0,2,2h14a2,2,0,0,0,2-2v-14a2,2,0,0,0-2-2h0Z"/><rect class="cls-2" x="48.66" y="69.23" width="16" height="16" rx="1" ry="1"/><path class="cls-3" d="M63.66,70.23v14h-14v-14h14m0-2h-14a2,2,0,0,0-2,2v14a2,2,0,0,0,2,2h14a2,2,0,0,0,2-2v-14a2,2,0,0,0-2-2h0Z"/><rect class="cls-2" x="90.66" y="48.23" width="16" height="16" rx="1" ry="1"/><path class="cls-3" d="M105.66,49.23v14h-14v-14h14m0-2h-14a2,2,0,0,0-2,2v14a2,2,0,0,0,2,2h14a2,2,0,0,0,2-2v-14a2,2,0,0,0-2-2h0Z"/></svg>