<svg id="svg2" xmlns="http://www.w3.org/2000/svg" viewBox="0 0 1999.893 1996.578"><title>logo-python</title><path id="path2987" d="M965.5,1996.4c-59.749-2.561-100.14-6.275-141.5-13.016q-166.635-27.156-244.62-105.13c-31.427-31.368-51.11-68.011-57.853-107.7-1.558-9.165-1.682-29.076-1.575-253,0.115-242.31.289-255.71,3.62-278.05,17.2-115.37,97.45-188.17,229.43-208.13,10.624-1.607,31.959-1.788,280-2.382,287.26-.688,273.7-0.443,303.5-5.463,72.236-12.169,129.32-48.216,167.11-105.52,23.483-35.617,38.366-76.771,46.651-129,2.09-13.169,2.155-16.808,2.692-148.5l0.55-135h92c100.961,0,101.631.032,125.141,6.033,119.46,30.483,199.63,148.43,226.31,332.97l3.037,21v131.2c0,125.14-.087,131.81-1.958,144.5-19.385,131.56-67.471,227.1-142.539,283.22a270.5,270.5,0,0,1-109,48.991c-24.743,4.947-3.85,4.7-387.25,4.614l-357.25-.078v69.059h485.7l0.706,121.75c0.49,84.521.38,124.04-.36,129.25-8.946,62.883-61.318,116.41-147.04,150.29-65.8,26-141.92,40.294-248.99,46.746-17.134,1.032-110.69,2.041-126.5,1.364Zm331.6-154.9a89.177,89.177,0,0,0,61.323-48.561c6.031-12.729,7.855-21.42,7.855-37.411,0-11.063-.435-15.594-2.075-21.594-8.506-31.126-31.949-54.663-62.791-63.048-10.576-2.875-32.746-3.182-42.272-.585-26.315,7.173-46.96,23.509-58.418,46.227-5.608,11.118-7.979,21.073-8.512,35.73-0.429,11.81-.188,15.078,1.724,23.349,7.57,32.764,34.015,58.682,67.23,65.893,8.641,1.876,27.016,1.876,35.936,0h0ZM258,1490.4c-13.487-2.044-33.714-7.516-47.6-12.877-60.852-23.492-111.98-73.759-147.82-145.311-29.863-59.629-50-139.29-58.045-229.67-5.545-62.267-5.918-137.64-.966-195.5,10.7-125.09,44.145-221.62,99.8-288.109,46.8-55.9,107.78-89.661,178.68-98.911,6.129-.8,109.76-1.168,366-1.3l357.45-.18,0.263-34.25,0.264-34.25H519.006l-0.25-115.75c-0.29-134.64-.337-130.76,1.711-141.69,7.828-41.776,36.6-80.726,82.04-111.06C682.935,27.854,816.817.06,995.007,0.06c168.42,0,294.359,25.636,380.3,77.407,61.8,37.233,100.62,89.268,111.21,149.07,1.431,8.08,1.585,33.979,1.514,253.5-0.05,152.91-.452,249-1.075,256.5-1.982,23.876-7.259,49.6-14.474,70.552-4.656,13.524-16.7,38-24.333,49.448-37.021,55.528-99.429,93.1-177.779,107.03-28.921,5.141-10.437,4.8-300.36,5.463l-269.5.612-15,2.166c-67.072,9.687-114.28,32.161-154.04,73.337-38.676,40.054-62.616,92.952-73.721,162.9-2.1,13.231-2.15,16.194-2.477,148.75l-0.333,135.25-93.716-.1c-76.111-.08-95.5-0.369-103.22-1.538ZM748.81,326.5c25.43-6.073,48.441-25.138,59.331-49.155,7.544-16.638,9.58-40.006,4.995-57.346-12.452-47.1-59.772-75.072-106.64-63.025-29.93,7.694-52.811,30.046-62.163,60.728-2.4,7.868-2.682,10.38-2.682,23.8s0.283,15.929,2.682,23.8c10.308,33.816,36.962,57.273,71.2,62.661,7.764,1.222,25.269.456,33.271-1.455Z" transform="translate(-0.1 -0.06)"/></svg>