<svg id="Layer_1" data-name="Layer 1" xmlns="http://www.w3.org/2000/svg" viewBox="0 0 256 288.464"><title>logo-nodejs</title><path d="M128,288.464a23.24,23.24,0,0,1-11.13-2.915L81.623,264.613c-5.3-2.915-2.65-3.975-1.06-4.505,7.155-2.385,8.48-2.915,15.9-7.155a2.438,2.438,0,0,1,2.65.265l27.031,16.166a3.368,3.368,0,0,0,3.18,0l105.739-61.217a3.044,3.044,0,0,0,1.59-2.915V83.081a3.044,3.044,0,0,0-1.59-2.915L129.325,19.213a3.368,3.368,0,0,0-3.18,0L20.406,80.166a3.325,3.325,0,0,0-1.59,2.915v122.17a3.325,3.325,0,0,0,1.59,2.915l28.886,16.7c15.636,7.95,25.441-1.325,25.441-10.6V93.681a3.222,3.222,0,0,1,3.18-3.18H91.429a3.222,3.222,0,0,1,3.18,3.18v120.58c0,20.936-11.4,33.126-31.271,33.126-6.1,0-10.865,0-24.381-6.625l-27.826-15.9A22.366,22.366,0,0,1,0,205.516V83.346A22.366,22.366,0,0,1,11.13,64L116.87,2.783a23.652,23.652,0,0,1,22.261,0L244.87,64A22.366,22.366,0,0,1,256,83.346v122.17a22.366,22.366,0,0,1-11.13,19.346L139.13,286.079A27.124,27.124,0,0,1,128,288.464h0Zm32.6-84.008c-46.377,0-55.917-21.2-55.917-39.222a3.222,3.222,0,0,1,3.18-3.18H121.64a2.724,2.724,0,0,1,2.915,2.65c2.12,14.046,8.215,20.936,36.306,20.936,22.261,0,31.8-5.035,31.8-16.961,0-6.89-2.65-11.925-37.366-15.371-28.886-2.915-46.907-9.275-46.907-32.331,0-21.466,18.021-34.186,48.232-34.186,33.921,0,50.617,11.66,52.737,37.1a4.274,4.274,0,0,1-.8,2.385,3.271,3.271,0,0,1-2.12,1.06H192.663a3.105,3.105,0,0,1-2.915-2.385c-3.18-14.576-11.4-19.346-33.126-19.346-24.381,0-27.3,8.48-27.3,14.841,0,7.685,3.445,10.07,36.306,14.311,32.6,4.24,47.967,10.335,47.967,33.126-0.265,23.321-19.346,36.571-53,36.571h0Z" transform="translate(0 0)"/></svg>