<svg xmlns="http://www.w3.org/2000/svg" viewBox="0 0 420 300"><title>compose</title><rect width="420" height="300" rx="12" ry="12" style="fill:#e8fbff"/><path d="M274,198.254v-87.3L233.046,70H150.192A4.19,4.19,0,0,0,146,74.19V198.254H274Z" style="fill:#f0feff;stroke:#394d54;stroke-linejoin:round;stroke-width:2.7936372230441227px"/><path d="M274,114.422H237.237a4.19,4.19,0,0,1-4.19-4.19V73.47L274,110.953v3.47h0Z" style="stroke:#000;stroke-linejoin:round;stroke-width:2.7936372230441227px;opacity:0.11999999731779099;isolation:isolate"/><path d="M274,110.953H237.237a4.19,4.19,0,0,1-4.19-4.19V70Z" style="fill:#f7feff;stroke:#394d54;stroke-linejoin:round;stroke-width:2.7936372230441227px"/><path d="M146,198.254v28.953A2.794,2.794,0,0,0,148.8,230H271.2A2.794,2.794,0,0,0,274,227.206V198.254H146Z" style="fill:#caf3fc;stroke:#394d54;stroke-linejoin:round;stroke-width:2.7936372230441227px"/><path d="M218.519,135.543h9.764v9.984h4.937a21.412,21.412,0,0,0,6.784-1.138,17.369,17.369,0,0,0,3.3-1.49,12.246,12.246,0,0,1-2.293-6.312c-0.279-3.046.334-7.013,2.4-9.4L244.439,126l1.222,0.99c3.08,2.474,5.67,5.932,6.126,9.873a14.925,14.925,0,0,1,11.331,1.054l1.342,0.768-0.706,1.376c-2.764,5.395-8.544,7.067-14.194,6.765-8.451,21.069-26.862,31.039-49.179,31.039-11.53,0-22.109-4.31-28.133-14.54l-0.1-.168-0.879-1.785A28.321,28.321,0,0,1,169.016,147l0.14-1.477h8.351v-9.983h9.766v-9.765H206.8v-9.766h11.716v19.531Z" style="fill:#394d54"/><path d="M250.161,139.235c0.654-5.089-3.153-9.086-5.517-10.983-2.724,3.143-3.143,11.394,1.125,14.866-2.383,2.117-7.4,4.035-12.545,4.035H170.64a26.372,26.372,0,0,0,2.594,14.54l0.712,1.3a24.119,24.119,0,0,0,1.476,2.214h0q3.859,0.248,7.116.175h0a34.9,34.9,0,0,0,10.383-1.511,0.752,0.752,0,0,1,.489,1.421c-0.349.122-.717,0.235-1.094,0.344h0a32.679,32.679,0,0,1-7.177,1.17c0.17,0-.177.025-0.179,0.025-0.1.006-.22,0.02-0.318,0.025-1.131.063-2.352,0.077-3.6,0.077-1.365,0-2.709-.027-4.211-0.1l-0.039.025c5.215,5.86,13.368,9.375,23.589,9.375,21.63,0,39.978-9.589,48.1-31.116,5.764,0.592,11.3-.879,13.824-5.8C258.294,137,253.132,137.742,250.161,139.235Z" style="fill:#00aada"/><path d="M250.161,139.235c0.654-5.089-3.153-9.086-5.517-10.983-2.724,3.143-3.143,11.394,1.125,14.866-2.383,2.117-7.4,4.035-12.545,4.035H174.348c-0.256,8.219,2.794,14.457,8.192,18.228h0a34.9,34.9,0,0,0,10.383-1.511,0.752,0.752,0,0,1,.489,1.421c-0.349.122-.717,0.235-1.094,0.344h0a34.356,34.356,0,0,1-7.368,1.22l-0.07-.07c7.361,3.776,18.035,3.762,30.27-.938,13.725-5.272,26.5-15.316,35.4-26.8Q250.351,139.139,250.161,139.235Z" style="fill:#24b8eb"/><path d="M170.757,153.673a25.027,25.027,0,0,0,2.477,8.018l0.712,1.3a24.078,24.078,0,0,0,1.476,2.214q3.859,0.248,7.117.175a34.9,34.9,0,0,0,10.383-1.511,0.752,0.752,0,0,1,.489,1.421c-0.349.122-.717,0.235-1.094,0.344h0a34.343,34.343,0,0,1-7.356,1.195c-0.1.006-.27,0.007-0.37,0.013-1.131.063-2.338,0.1-3.586,0.1-1.365,0-2.76-.027-4.26-0.1,5.215,5.862,13.415,9.389,23.64,9.389,18.518,0,34.627-7.029,43.979-22.559H170.757Z" style="fill:#008bb8"/><path d="M174.913,153.673a18.8,18.8,0,0,0,7.629,11.709,34.9,34.9,0,0,0,10.383-1.511,0.752,0.752,0,0,1,.489,1.421c-0.349.122-.717,0.235-1.094,0.344h0a34.857,34.857,0,0,1-7.407,1.195c7.361,3.776,18,3.72,30.241-.978a79.938,79.938,0,0,0,20.917-12.178H174.913Z" style="fill:#039bc6"/><path d="M186.225,137.878h0.668v7.054h-0.668v-7.054Zm-1.282,0h0.695v7.054h-0.695v-7.054Zm-1.283,0h0.695v7.054H183.66v-7.054Zm-1.283,0h0.695v7.054h-0.694v-7.054h0Zm-1.282,0h0.7v7.054h-0.7v-7.054Zm-1.261,0h0.674v7.054h-0.665v-7.054h-0.009Zm-0.705-.705h8.463v8.463h-8.458V137.17Z" style="fill:#00acd3"/><path d="M195.991,128.11h0.668v7.054h-0.668V128.11Zm-1.282,0H195.4v7.054h-0.694V128.11h0Zm-1.283,0h0.695v7.054h-0.7V128.11h0Zm-1.283,0h0.695v7.054h-0.695V128.11Zm-1.282,0h0.694v7.054h-0.693V128.11h0Zm-1.261,0h0.677v7.054h-0.673V128.11h0Zm-0.7-.705h8.464v8.463H188.9V127.4h0Z" style="fill:#00acd3"/><path d="M195.991,137.878h0.668v7.054h-0.668v-7.054Zm-1.282,0H195.4v7.054h-0.694v-7.054h0Zm-1.283,0h0.695v7.054h-0.7v-7.054h0Zm-1.283,0h0.695v7.054h-0.695v-7.054Zm-1.282,0h0.694v7.054h-0.693v-7.054h0Zm-1.261,0h0.677v7.054h-0.673v-7.054h0Zm-0.7-.707h8.464v8.463H188.9V137.17h0Z" style="fill:#20c2ef"/><path d="M205.756,137.878h0.667v7.054h-0.667v-7.054Zm-1.283,0h0.695v7.054h-0.695v-7.054Zm-1.282,0h0.695v7.054h-0.695v-7.054Zm-1.283,0H202.6v7.054H201.91v-7.054h0Zm-1.283,0h0.695v7.054h-0.695v-7.054h0Zm-1.257,0h0.667v7.054h-0.666v-7.054h0Zm-0.705-.705h8.472v8.463h-8.47V137.17Z" style="fill:#00acd3"/><path d="M205.756,128.11h0.667v7.054h-0.667V128.11Zm-1.283,0h0.695v7.054h-0.695V128.11Zm-1.282,0h0.695v7.054h-0.695V128.11Zm-1.283,0H202.6v7.054H201.91V128.11h0Zm-1.283,0h0.695v7.054h-0.695V128.11h0Zm-1.257,0h0.667v7.054h-0.666V128.11h0Zm-0.705-.705h8.472v8.463h-8.47V127.4h0Z" style="fill:#20c2ef"/><path d="M215.522,137.878h0.668v7.054h-0.668v-7.054Zm-1.282,0h0.689v7.054h-0.688v-7.054h0Zm-1.283,0h0.695v7.054h-0.695v-7.054Zm-1.283,0h0.695v7.054h-0.694v-7.054h0Zm-1.282,0h0.695v7.054h-0.695v-7.054Zm-1.261,0H209.8v7.054h-0.661v-7.054h-0.006Zm-0.705-.705h8.463v8.463h-8.458V137.17Z" style="fill:#20c2ef"/><path d="M215.522,128.11h0.668v7.054h-0.668V128.11Zm-1.282,0h0.689v7.054h-0.688V128.11h0Zm-1.283,0h0.695v7.054h-0.695V128.11Zm-1.283,0h0.695v7.054h-0.694V128.11h0Zm-1.282,0h0.695v7.054h-0.695V128.11Zm-1.261,0H209.8v7.054h-0.661V128.11h-0.006Zm-0.705-.705h8.463v8.463h-8.458V127.4h-0.006Z" style="fill:#00acd3"/><path d="M215.522,118.344h0.668V125.4h-0.668v-7.054Zm-1.282,0h0.689V125.4h-0.688v-7.054h0Zm-1.283,0h0.695V125.4h-0.695v-7.054Zm-1.283,0h0.695V125.4h-0.694v-7.054h0Zm-1.282,0h0.695V125.4h-0.695v-7.054Zm-1.261,0H209.8V125.4h-0.661v-7.054h-0.006Zm-0.705-.705h8.463V126.1h-8.458v-8.463h-0.006Z" style="fill:#20c2ef"/><path d="M225.286,137.878h0.667v7.054h-0.667v-7.054Zm-1.282,0H224.7v7.054H224v-7.054Zm-1.283,0h0.693v7.054h-0.688v-7.054h0Zm-1.282,0h0.695v7.054H221.44v-7.054Zm-1.283,0h0.695v7.054h-0.694v-7.054h0Zm-1.261,0h0.671v7.054H218.9v-7.054H218.9Zm-0.705-.705h8.463v8.463H218.2V137.17Z" style="fill:#00acd3"/><path d="M196.834,159.359a2.335,2.335,0,1,1-2.335,2.335h0a2.335,2.335,0,0,1,2.335-2.335" style="fill:#d4edf1"/><path d="M196.834,160.019a1.672,1.672,0,0,1,.606.115,0.682,0.682,0,1,0,.939.917,1.676,1.676,0,1,1-1.544-1.032" style="fill:#394d54"/><path d="M203.041,176.181c-5.782-2.744-8.956-6.474-10.722-10.546a35.812,35.812,0,0,1-7.729,1.173q-1.7.095-3.567,0.1-2.157,0-4.544-.127c5.3,5.3,11.826,9.38,23.906,9.455Q201.72,176.232,203.041,176.181Z" style="fill:#bfdbe0"/><path d="M194.467,169.392a20.253,20.253,0,0,1-2.146-3.757,35.807,35.807,0,0,1-7.731,1.174A24.607,24.607,0,0,0,194.467,169.392Z" style="fill:#d4edf1"/><path d="M175.344,214.171c0-2.891,1.627-4.665,4.285-4.665A3.735,3.735,0,0,1,183.613,213h-2.167a1.771,1.771,0,0,0-1.817-1.614c-1.234,0-1.989,1.056-1.989,2.781s0.755,2.8,1.995,2.8a1.764,1.764,0,0,0,1.823-1.578h2.161a3.679,3.679,0,0,1-3.99,3.456C176.977,218.842,175.344,217.062,175.344,214.171Z" style="fill:#394d54"/><path d="M194.06,214.171c0,2.885-1.694,4.671-4.358,4.671s-4.371-1.786-4.371-4.671,1.713-4.665,4.371-4.665S194.06,211.292,194.06,214.171Zm-6.433,0c0,1.713.816,2.805,2.075,2.805s2.069-1.093,2.069-2.805-0.829-2.8-2.069-2.8S187.627,212.465,187.627,214.171Z" style="fill:#394d54"/><path d="M196.232,218.6v-8.858h2.658l2.148,5.414h0.117l2.142-5.414h2.658V218.6h-2.081v-5.592h-0.11l-1.97,4.911H200.4l-1.977-4.911h-0.11V218.6h-2.081Z" style="fill:#394d54"/><path d="M212.425,209.745a2.99,2.99,0,0,1,3.192,3.143,3.056,3.056,0,0,1-3.327,3.118H210.8v2.6h-2.252v-8.858h3.88Zm-1.627,4.561h1.019a1.418,1.418,0,1,0,.012-2.83H210.8v2.83Z" style="fill:#394d54"/><path d="M226.082,214.171c0,2.885-1.694,4.671-4.358,4.671s-4.371-1.786-4.371-4.671,1.713-4.665,4.371-4.665S226.082,211.292,226.082,214.171Zm-6.433,0c0,1.713.816,2.805,2.075,2.805s2.069-1.093,2.069-2.805-0.829-2.8-2.069-2.8S219.649,212.465,219.649,214.171Z" style="fill:#394d54"/><path d="M230.016,216.08a1.409,1.409,0,0,0,1.633,1.056,1.2,1.2,0,0,0,1.418-.988c0-.491-0.387-0.755-1.4-0.958l-1.166-.233c-1.621-.307-2.455-1.191-2.455-2.584,0-1.731,1.387-2.867,3.523-2.867,2.075,0,3.511,1.123,3.548,2.762h-2.081a1.3,1.3,0,0,0-1.436-1.062,1.1,1.1,0,0,0-1.314.964c0,0.485.393,0.767,1.326,0.951l1.142,0.221c1.749,0.338,2.535,1.129,2.535,2.535,0,1.848-1.412,2.965-3.732,2.965-2.241,0-3.652-1.056-3.689-2.762h2.148Z" style="fill:#394d54"/><path d="M243.563,218.6h-6.071v-8.858h6.071v1.811h-3.818v1.768h3.591v1.657h-3.591v1.811h3.818V218.6Z" style="fill:#394d54"/></svg>