<svg id="Layer_1" data-name="Layer 1" xmlns="http://www.w3.org/2000/svg" viewBox="0 0 60 60"><title>icons-staging</title><path d="M84.025,491.925l8.91-14.665a1.106,1.106,0,0,1,.946-0.532h18.906a1.106,1.106,0,0,1,.946.532l8.91,14.665" transform="translate(-73.333 -454.272)" fill="#ffe2c0" stroke="#52306c" stroke-linecap="round" stroke-linejoin="round" stroke-width="2"/><path d="M98.134,477.816h7.4a3,3,0,0,1,3,3v32.617a3,3,0,0,1-3,3h-7.4a0,0,0,0,1,0,0V477.816A0,0,0,0,1,98.134,477.816Z" transform="translate(527.124 -60.481) rotate(90)" fill="#b99fbf" stroke="#52306c" stroke-linecap="round" stroke-linejoin="round" stroke-width="2"/><line x1="15.292" y1="41.164" x2="15.292" y2="44.539" fill="#b99fbf" stroke="#52306c" stroke-linecap="round" stroke-linejoin="round" stroke-width="2"/><line x1="18.292" y1="41.164" x2="18.292" y2="44.539" fill="#b99fbf" stroke="#52306c" stroke-linecap="round" stroke-linejoin="round" stroke-width="2"/><path d="M84.025,481.425l8.91-14.665a1.106,1.106,0,0,1,.946-0.532h18.906a1.106,1.106,0,0,1,.946.532l8.91,14.665" transform="translate(-73.333 -454.272)" fill="#debee5" stroke="#52306c" stroke-linecap="round" stroke-linejoin="round" stroke-width="2"/><path d="M98.134,467.316h7.4a3,3,0,0,1,3,3v32.617a3,3,0,0,1-3,3h-7.4a0,0,0,0,1,0,0V467.316a0,0,0,0,1,0,0Z" transform="translate(516.624 -70.981) rotate(90)" fill="#b99fbf" stroke="#52306c" stroke-linecap="round" stroke-linejoin="round" stroke-width="2"/><line x1="15.292" y1="30.664" x2="15.292" y2="34.039" fill="#b99fbf" stroke="#52306c" stroke-linecap="round" stroke-linejoin="round" stroke-width="2"/><line x1="18.292" y1="30.664" x2="18.292" y2="34.039" fill="#b99fbf" stroke="#52306c" stroke-linecap="round" stroke-linejoin="round" stroke-width="2"/><rect width="60" height="60" fill="none"/></svg>