<svg id="Layer_1" data-name="Layer 1" xmlns="http://www.w3.org/2000/svg" viewBox="0 0 60 60"><title>icons-deploy</title><path d="M192.783,493.84H175.72a1.72,1.72,0,0,1-1.72-1.72V475.056a1.72,1.72,0,0,1,2.937-1.216L194,490.9A1.72,1.72,0,0,1,192.783,493.84Z" transform="translate(-144 -454.272)" fill="#ef737f" stroke="#52306c" stroke-linecap="round" stroke-linejoin="round" stroke-width="2"/><path d="M155.217,493.84H172.28a1.72,1.72,0,0,0,1.72-1.72V475.056a1.72,1.72,0,0,0-2.937-1.216L154,490.9A1.72,1.72,0,0,0,155.217,493.84Z" transform="translate(-144 -454.272)" fill="#ef737f" stroke="#52306c" stroke-linecap="round" stroke-linejoin="round" stroke-width="2"/><path d="M187.458,485.287c0-6.287-8.914-22.275-8.914-22.275a4.961,4.961,0,0,0-9.088,0s-8.914,15.988-8.914,22.275v2.249c0,8.343,6.025,10.458,13.458,10.458s13.458-2.115,13.458-10.458v-2.249Z" transform="translate(-144 -454.272)" fill="#ccb29e" stroke="#52306c" stroke-linecap="round" stroke-linejoin="round" stroke-width="2"/><path d="M187.458,482.533c0-5.6-8.914-19.845-8.914-19.845a5.225,5.225,0,0,0-9.088,0s-8.914,14.243-8.914,19.845v2c0,7.433,6.025,9.317,13.458,9.317s13.458-1.885,13.458-9.317v-2Z" transform="translate(-144 -454.272)" fill="#ffe2c0" stroke="#52306c" stroke-linecap="round" stroke-linejoin="round" stroke-width="2"/><path d="M173.141,462.694a2.435,2.435,0,0,0-1.288,1.1s-0.374.6-.9,1.5" transform="translate(-144 -454.272)" fill="none" stroke="#fff" stroke-linecap="round" stroke-linejoin="round" opacity="0.7"/><circle cx="30" cy="22.659" r="5.538" fill="#a2dfed" stroke="#52306c" stroke-linecap="round" stroke-linejoin="round" stroke-width="2"/><path d="M171,476.931a3,3,0,0,1,3-3" transform="translate(-144 -454.272)" fill="none" stroke="#fff" stroke-linecap="round" stroke-linejoin="round" opacity="0.7"/><line x1="26" y1="47.183" x2="26" y2="51.059" fill="none" stroke="#52306c" stroke-linecap="round" stroke-miterlimit="10" stroke-width="2"/><line x1="34" y1="47.183" x2="34" y2="51.059" fill="none" stroke="#52306c" stroke-linecap="round" stroke-miterlimit="10" stroke-width="2"/><line x1="30" y1="47.683" x2="30" y2="55.059" fill="none" stroke="#52306c" stroke-linecap="round" stroke-miterlimit="10" stroke-width="2"/><rect width="60" height="60" fill="none"/></svg>
