<svg xmlns="http://www.w3.org/2000/svg" viewBox="0 0 64 57"><title>in_development</title><path d="M37.2,4.5l24.249,42a6,6,0,0,1-5.2,9H7.751a6,6,0,0,1-5.2-9L26.8,4.5A6,6,0,0,1,37.2,4.5Z" style="fill:#ffe2c0"/><path d="M44.447,28.6a0.971,0.971,0,0,0-.864-0.453,1,1,0,0,0-.839.5l-3.961,6.859-6.062-3.5,3.961-6.859a1,1,0,0,0-.811-1.5A10.984,10.984,0,0,0,25.73,40.117L16.849,55.5h12.7l5.706-9.883h0A10.985,10.985,0,0,0,44.447,28.6Z" style="fill:#593873;opacity:0.1"/><path d="M42.61,27.417l-4.461,7.726-7.794-4.5,4.461-7.726A9.986,9.986,0,0,0,25.894,38.37L16,55.5H26.4l7.292-12.63A9.986,9.986,0,0,0,42.61,27.417Z" style="fill:#dbdbdb;stroke:#593873;stroke-linecap:round;stroke-linejoin:round;stroke-width:2px"/><line x1="26.396" y1="55.5" x2="16.004" y2="55.5" style="fill:#dbdbdb;stroke:#593873;stroke-linecap:round;stroke-linejoin:round;stroke-width:2px"/><path d="M37.2,4.5l24.249,42a6,6,0,0,1-5.2,9H7.751a6,6,0,0,1-5.2-9L26.8,4.5A6,6,0,0,1,37.2,4.5Z" style="fill:none;stroke:#593873;stroke-linecap:round;stroke-linejoin:round;stroke-width:3px"/><line x1="23.906" y1="17.981" x2="29.969" y2="7.482" style="fill:none;stroke:#fff;stroke-linecap:round;stroke-linejoin:round;stroke-width:2px;opacity:0.5"/></svg>