<svg id="java" xmlns="http://www.w3.org/2000/svg" viewBox="0 0 100 100"><title>java</title><g id="mug"><path d="M32.792,42.272a8.981,8.981,0,1,1-8.981,8.981,8.981,8.981,0,0,1,8.981-8.981m0,13.981a5,5,0,1,0-5-5,5,5,0,0,0,5,5m0-15.981A10.981,10.981,0,1,0,43.772,51.253,10.993,10.993,0,0,0,32.792,40.272h0Zm0,13.981a3,3,0,1,1,3-3,3,3,0,0,1-3,3h0Z" fill="#685b4f"/><rect width="100" height="100" fill="none"/><path d="M52.685,43.179c-11.276,0-20.11-3.8-20.11-8.647s8.833-8.647,20.11-8.647S72.8,29.683,72.8,34.532,63.963,43.179,52.685,43.179Zm0-16.294c-10.358,0-19.11,3.5-19.11,7.647s8.751,7.647,19.11,7.647S71.8,38.677,71.8,34.532,63.045,26.885,52.685,26.885Z" fill="#555" stroke="#685b4f" stroke-miterlimit="10" stroke-width="2"/><path d="M52.685,74.115c-12.592,0-20.11-5.832-20.11-15.6V34.532a0.5,0.5,0,0,1,.5-0.5H72.3a0.5,0.5,0,0,1,.5.5V58.513C72.8,68.283,65.278,74.115,52.685,74.115ZM33.575,35.032V58.513c0,9.143,7.144,14.6,19.11,14.6S71.8,67.656,71.8,58.513V35.032H33.575Z" fill="none" stroke="#685b4f" stroke-miterlimit="10" stroke-width="2"/><path d="M33.075,34.532v7.755c-0.095,0-.188-0.014-0.284-0.014a8.981,8.981,0,1,0,0,17.962c0.127,0,.25-0.014.375-0.019,0.913,9.231,9.3,13.4,19.519,13.4,10.831,0,19.61-4.675,19.61-15.1V34.532H33.075ZM27.792,51.253a5,5,0,0,1,5-5c0.1,0,.188.023,0.284,0.029v9.943c-0.1.005-.186,0.029-0.284,0.029A5,5,0,0,1,27.792,51.253Z" fill="#eaeaea"/><path d="M72.3,54.273c0,4.5-8.78,8.147-19.61,8.147s-19.61-3.648-19.61-8.147V49.133c0,4.5,8.78,8.147,19.61,8.147S72.3,53.632,72.3,49.133v5.141Z" fill="#cfbca8"/><path d="M52.989,70.852h-1a15,15,0,0,1-15-15v-25h31v25A15,15,0,0,1,52.989,70.852Z" fill="#fff" opacity="0.35"/><path d="M72.3,34.032H33.075a0.5,0.5,0,0,0-.5.5v7.751c0.073,0,.143-0.011.216-0.011,0.265,0,.525.017,0.784,0.04v-7.28H71.8V58.513c0,9.143-7.145,14.6-19.111,14.6-11.215,0-18.194-4.8-19.026-12.925-0.286.027-.575,0.044-0.868,0.044-0.045,0-.088-0.006-0.132-0.007,0.84,8.733,8.189,13.888,20.026,13.888,12.593,0,20.111-5.832,20.111-15.6V34.532A0.5,0.5,0,0,0,72.3,34.032Z" fill="#685b4f"/><path d="M32.575,46.275v9.956c0.073,0,.142.022,0.216,0.022a4.973,4.973,0,0,0,.784-0.079V46.332a4.973,4.973,0,0,0-.784-0.079C32.718,46.253,32.649,46.272,32.575,46.275Z" fill="#685b4f"/><path d="M52.685,43.179c-10.358,0-19.11-3.186-19.11-7.331v2.7c2.6,3.389,10.065,5.632,19.11,5.632S69.193,41.936,71.8,38.546v-2.7C71.8,39.993,63.045,43.179,52.685,43.179Z" fill="#fff" opacity="0.8"/><ellipse cx="52.686" cy="34.532" rx="19.61" ry="8.147" fill="#c6c6c6"/><ellipse cx="52.686" cy="35.526" rx="18.5" ry="7.686" fill="#e0e0e0"/><path d="M52.686,31.353c-8.744,0-16.146,2.379-18.675,5.663,2.529,3.284,9.93,5.663,18.675,5.663S68.831,40.3,71.361,37.016C68.831,33.732,61.43,31.353,52.686,31.353Z" fill="#c4ab91"/><path d="M71.361,37.016c-2.529-3.284-9.93-5.663-18.675-5.663S36.54,33.732,34.011,37.016c0.13,0.169.281,0.533,0.436,0.7,2.865-3.024,9.944-5.366,18.239-5.366a42.549,42.549,0,0,1,5.176.318l-9.389,9.389c1.358,0.124,2.766.192,4.213,0.192A39.255,39.255,0,0,0,65.181,40.37s5.085-1.575,5.744-2.658C71.08,37.549,71.231,37.185,71.361,37.016Z" fill="#fff" opacity="0.2"/><path d="M52.685,43.179c-11.276,0-20.11-3.8-20.11-8.647s8.833-8.647,20.11-8.647S72.8,29.683,72.8,34.532,63.963,43.179,52.685,43.179Zm0-16.294c-10.358,0-19.11,3.5-19.11,7.647s8.751,7.647,19.11,7.647S71.8,38.677,71.8,34.532,63.045,26.885,52.685,26.885Z" fill="#685b4f"/></g><g id="dots"><circle cx="53.164" cy="18.427" r="0.5" fill="none" stroke="#cfbca8" stroke-linecap="round" stroke-linejoin="round"/><circle cx="72.002" cy="24.513" r="0.5" fill="none" stroke="#cfbca8" stroke-linecap="round" stroke-linejoin="round"/><circle cx="34.245" cy="25.507" r="0.5" fill="none" stroke="#cfbca8" stroke-linecap="round" stroke-linejoin="round"/><circle cx="43.497" cy="20.735" r="0.5" fill="none" stroke="#e0d3c7" stroke-linecap="round" stroke-linejoin="round"/><circle cx="64.362" cy="20.735" r="0.5" fill="none" stroke="#e0d3c7" stroke-linecap="round" stroke-linejoin="round"/><circle cx="47.573" cy="36.799" r="0.5" fill="none" stroke="#cfbca8" stroke-linecap="round" stroke-linejoin="round"/><circle cx="60.861" cy="38.183" r="0.5" fill="none" stroke="#cfbca8" stroke-linecap="round" stroke-linejoin="round"/><circle cx="36.661" cy="16.728" r="0.5" fill="none" stroke="#cfbca8" stroke-linecap="round" stroke-linejoin="round"/><circle cx="61.004" cy="14.244" r="0.5" fill="none" stroke="#cfbca8" stroke-linecap="round" stroke-linejoin="round"/></g></svg>