<svg id="nodejs" xmlns="http://www.w3.org/2000/svg" viewBox="0 0 100 100"><title>nodejs</title><g id="stars"><path d="M20.071,36.742l1.1-1.269a2.557,2.557,0,0,0,0-3.344l-1.1-1.269,1.269,1.1a2.557,2.557,0,0,0,3.344,0l1.269-1.1-1.1,1.269a2.557,2.557,0,0,0,0,3.344l1.1,1.269-1.269-1.1a2.557,2.557,0,0,0-3.344,0Z" fill="#a7ea8b" stroke="#89c673" stroke-linecap="round" stroke-linejoin="round"/><path d="M44.056,25.743L43.934,24.07a2.557,2.557,0,0,0-2.364-2.364L39.9,21.584l1.673-.122A2.557,2.557,0,0,0,43.934,19.1l0.122-1.673L44.178,19.1a2.557,2.557,0,0,0,2.364,2.364l1.673,0.122-1.673.122a2.557,2.557,0,0,0-2.364,2.364Z" fill="#a7ea8b" stroke="#89c673" stroke-linecap="round" stroke-linejoin="round"/><line x1="78.756" y1="34.361" x2="78.756" y2="38.361" fill="#a7ea8b" stroke="#89c673" stroke-linecap="round" stroke-linejoin="round"/><line x1="80.756" y1="36.361" x2="76.756" y2="36.361" fill="#a7ea8b" stroke="#89c673" stroke-linecap="round" stroke-linejoin="round"/><line x1="66.918" y1="24.808" x2="64.09" y2="27.637" fill="#a7ea8b" stroke="#89c673" stroke-linecap="round" stroke-linejoin="round"/><line x1="66.918" y1="27.637" x2="64.09" y2="24.808" fill="#a7ea8b" stroke="#89c673" stroke-linecap="round" stroke-linejoin="round"/><line x1="23.567" y1="49.393" x2="23.567" y2="53.393" fill="#a7ea8b" stroke="#89c673" stroke-linecap="round" stroke-linejoin="round"/><line x1="25.567" y1="51.393" x2="21.567" y2="51.393" fill="#a7ea8b" stroke="#89c673" stroke-linecap="round" stroke-linejoin="round"/><line x1="35.563" y1="72.88" x2="32.735" y2="75.709" fill="#a7ea8b" stroke="#89c673" stroke-linecap="round" stroke-linejoin="round"/><line x1="35.563" y1="75.709" x2="32.735" y2="72.88" fill="#a7ea8b" stroke="#89c673" stroke-linecap="round" stroke-linejoin="round"/><path d="M65.5,75.126l-0.122-1.673a2.557,2.557,0,0,0-2.364-2.364l-1.673-.122,1.673-.122a2.557,2.557,0,0,0,2.364-2.364L65.5,66.808l0.122,1.673a2.557,2.557,0,0,0,2.364,2.364l1.673,0.122-1.673.122a2.557,2.557,0,0,0-2.364,2.364Z" fill="#a7ea8b" stroke="#89c673" stroke-linecap="round" stroke-linejoin="round"/></g><polygon points="30 62.509 30 62.509 39.583 68.042 30 62.509" fill="#77ae64"/><polygon points="30 62.509 30 62.509 39.583 68.042 30 62.509 30 62.509"/><rect width="100" height="100" fill="none"/><path d="M50.833,26.425a1.65,1.65,0,0,0-.672-0.2L62.84,48.183,70.652,38.2A1.654,1.654,0,0,0,70,37.491Z" fill="#6ea360"/><path d="M70.833,38.934a1.655,1.655,0,0,0-.181-0.731L62.84,48.183l7.832,13.566a1.651,1.651,0,0,0,.161-0.683V38.934Z" fill="#3e863d"/><path d="M49.839,73.777L36.111,50,29.328,61.749a1.653,1.653,0,0,0,.672.76l9.584,5.533,9.583,5.533A1.65,1.65,0,0,0,49.839,73.777Z" fill="#3e863d"/><path d="M29.167,61.066a1.651,1.651,0,0,0,.161.683L36.111,50,29.328,38.251a1.651,1.651,0,0,0-.161.683V61.066Z" fill="#669f5a"/><path d="M63.923,48.26h0l6.01-7.678h0l0.9-1.15v-0.5a1.655,1.655,0,0,0-.181-0.731L62.84,48.183l0.485,0.84Z" opacity="0.05"/><path d="M62.84,48.183L50.161,26.223a1.653,1.653,0,0,0-.994.2L30,37.491a1.653,1.653,0,0,0-.672.76L36.111,50,49.839,73.777a1.653,1.653,0,0,0,.994-0.2L70,62.509a1.653,1.653,0,0,0,.672-0.76Z" fill="#77ae64"/><path d="M49.672,27.176h0l1.15,1.992,19.231,33.3a1.664,1.664,0,0,0,.619-0.716L62.84,48.183,50.161,26.223c-0.06-.006-0.12-0.009-0.181-0.009a1.625,1.625,0,0,0-.756.188Z" fill="#fff" opacity="0.1"/><path d="M52.459,28.4h0l17.027,9.831h0l0.787,0.454,0.379-.485A1.654,1.654,0,0,0,70,37.491L50.833,26.425a1.65,1.65,0,0,0-.672-0.2L50.9,27.5Z" fill="#fff" opacity="0.1"/><path d="M70.833,60.228L63.62,47.733,51.559,26.844l-0.726-.419a1.652,1.652,0,0,0-.339-0.14,1.928,1.928,0,0,0-.333-0.062h0L63.435,49.214l7.237,12.535h0a1.65,1.65,0,0,0,.161-0.683V60.228Z" opacity="0.05"/><path d="M50,26.2a1.666,1.666,0,0,1,.833.223L70,37.491a1.667,1.667,0,0,1,.833,1.443V61.066A1.667,1.667,0,0,1,70,62.509L50.833,73.575a1.667,1.667,0,0,1-1.667,0L30,62.509a1.667,1.667,0,0,1-.833-1.443V38.934A1.667,1.667,0,0,1,30,37.491L49.167,26.425A1.666,1.666,0,0,1,50,26.2m0-1.667a3.338,3.338,0,0,0-1.667.447L29.167,36.047A3.343,3.343,0,0,0,27.5,38.934V61.066a3.343,3.343,0,0,0,1.667,2.887L48.333,75.019a3.333,3.333,0,0,0,3.333,0L70.833,63.953A3.343,3.343,0,0,0,72.5,61.066V38.934a3.343,3.343,0,0,0-1.667-2.887L51.667,24.981A3.338,3.338,0,0,0,50,24.535h0Z" fill="#2e602c"/><path d="M29.951,62.469l4.9-8.481L36.111,51.8h0l0.52-.9-0.52-.9L29.328,61.749A1.662,1.662,0,0,0,29.951,62.469Z" opacity="0.05"/><path d="M29.167,39.772L36.38,52.266l12.061,20.89,0.726,0.419a1.652,1.652,0,0,0,.339.14,1.928,1.928,0,0,0,.333.062h0L36.565,50.786,29.328,38.251h0a1.65,1.65,0,0,0-.161.683v0.838Z" opacity="0.05"/></svg>