<?xml version="1.0" encoding="utf-8"?>
<!-- Generator: Adobe Illustrator 19.2.1, SVG Export Plug-In . SVG Version: 6.00 Build 0)  -->
<svg version="1.1" id="Layer_1" xmlns="http://www.w3.org/2000/svg" xmlns:xlink="http://www.w3.org/1999/xlink" x="0px" y="0px"
	 viewBox="0 0 239.9 35.5" style="enable-background:new 0 0 239.9 35.5;" xml:space="preserve">
<style type="text/css">
	.st0{fill:#CCADD2;}
	.st1{fill:#555555;}
</style>
<title>runnable-logo-white</title>
<g>
	<path class="st0" d="M38.3,1.7L4.5,0C2-0.1,0,1.6,0,3.8v1.6l41.9,1.3V5.4C42,3.4,40.4,1.8,38.3,1.7L38.3,1.7z M5.3,3.3
		C5.3,3.6,5,4,4.6,4H3.3C3,4,2.6,3.7,2.6,3.3V2.1c0-0.3,0.3-0.7,0.7-0.7h1.3c0.3,0,0.7,0.3,0.7,0.7V3.3z M9.8,3.4
		c0,0.3-0.3,0.7-0.7,0.5H7.9c-0.3,0-0.7-0.3-0.7-0.7V2c0-0.3,0.3-0.7,0.7-0.5h1.3c0.3,0,0.7,0.3,0.7,0.7L9.8,3.4L9.8,3.4z M14.1,3.5
		c0,0.3-0.3,0.7-0.7,0.5h-1.3c-0.3,0-0.7-0.3-0.7-0.7V2.1c0-0.3,0.3-0.7,0.7-0.5h1.3c0.3,0,0.7,0.3,0.7,0.7V3.5z M0,31.7
		c0,2.2,2.1,3.8,4.5,3.8l33.8-1.7c2-0.1,3.6-1.7,3.6-3.7V8.2L0,6.9L0,31.7C0,31.7,0,31.7,0,31.7z M18.8,15.9c-0.8-0.8-0.8-2,0-2.8
		s2.1-0.7,2.9,0l5.7,5.3c0.8,0.7,0.8,2,0,2.5l-5.7,5.4c-0.8,0.8-2.1,0.8-2.9,0c-0.8-0.7-0.8-2,0-2.8l4.3-4
		C23.1,19.9,18.8,15.9,18.8,15.9z"/>
	<path class="st1" d="M71.1,9.7c-0.3-0.1-0.7-0.1-1.2-0.3c-0.5-0.1-0.8-0.1-1.3-0.1c-0.8,0-1.4,0.1-2.1,0.3
		c-0.7,0.1-1.2,0.5-1.6,0.9c-0.5,0.3-0.9,0.8-1.3,1.3c-0.3,0.5-0.8,0.9-1.2,1.4V9.9h-7.3c0,0.3,0,0.7,0,1.2s0,0.9,0.1,1.6
		c0,0.5,0,1.2,0,1.7c0,0.6,0,1.2,0,1.6v17h8V20.2c0-0.8,0-1.3,0.1-1.7c0.1-0.5,0.3-0.8,0.8-1.2c0.1-0.1,0.5-0.5,0.9-0.7
		c0.5-0.1,0.9-0.3,1.7-0.3c0.5,0,0.9,0,1.4,0.1s0.8,0.3,1.3,0.7L71.1,9.7L71.1,9.7z M95.4,32.8V10h-8v13.3c0,0.7,0,1.2-0.1,1.4
		C87.2,25,87,25.5,86.5,26c-0.1,0.3-0.5,0.5-0.8,0.7c-0.3,0.1-0.8,0.3-1.3,0.3c-1.7,0-2.5-1.2-2.5-3.2V10h-8v15.8
		c0,1.2,0.1,2.1,0.5,3c0.3,0.9,0.7,1.7,1.3,2.4c0.6,0.7,1.3,1.3,2.2,1.6s2.1,0.7,3.3,0.7c1.6,0,2.9-0.3,4-0.9
		c1.2-0.7,2.1-1.6,2.9-2.8v3H95.4L95.4,32.8z M122.7,32.8V17c0-1.2-0.1-2.1-0.5-3c-0.3-0.9-0.7-1.7-1.3-2.4s-1.4-1.3-2.4-1.6
		c-0.9-0.3-2.1-0.7-3.6-0.7c-1.6,0-3,0.3-4.3,1.2c-1.2,0.7-2.2,1.6-3,2.9v-3.2h-7.4V33h8V19.7c0-0.7,0-1.2,0.1-1.4
		c0.1-0.3,0.3-0.8,0.8-1.2c0.4-0.3,0.8-0.4,1-0.7c0.5-0.1,0.8-0.3,1.3-0.3c0.9,0,1.7,0.3,2.1,0.8c0.5,0.5,0.7,1.3,0.7,2.4V33
		L122.7,32.8L122.7,32.8z M149.7,32.8V17c0-1.2-0.1-2.1-0.5-3c-0.3-0.9-0.7-1.7-1.3-2.4c-0.7-0.7-1.4-1.3-2.4-1.6
		c-0.9-0.3-2.1-0.7-3.6-0.7c-1.6,0-3,0.3-4.3,1.2c-1.2,0.7-2.2,1.6-3,2.9v-3.2h-7.4V33h8V19.7c0-0.7,0-1.2,0.1-1.4
		c0.1-0.3,0.3-0.8,0.8-1.2c0.3-0.3,0.7-0.5,0.9-0.7c0.5-0.1,0.8-0.3,1.3-0.3c0.9,0,1.7,0.3,2.1,0.8c0.5,0.5,0.7,1.3,0.7,2.4V33
		L149.7,32.8L149.7,32.8z M166.7,25.2c0,0.9-0.3,1.6-0.8,2.2c-0.7,0.7-1.4,0.9-2.5,0.9c-0.7,0-1.3-0.1-1.6-0.7
		c-0.5-0.5-0.7-0.9-0.7-1.6s0.1-0.9,0.5-1.4c0.3-0.3,0.7-0.7,1.2-0.8c0.5-0.1,0.9-0.3,1.4-0.3s0.9-0.1,1.4-0.1c0.3,0,0.5,0,0.8,0
		c0.3,0,0.5,0,0.7,0L166.7,25.2L166.7,25.2z M176.2,27.9c-0.1,0-0.3,0.1-0.5,0.1c-0.1,0-0.3,0-0.5,0c-0.3,0-0.7-0.1-0.8-0.5
		c-0.1-0.3-0.1-0.7-0.1-0.9v-9.2c0-1.7-0.3-3-0.9-4.2s-1.4-2-2.4-2.5c-1-0.6-2.1-0.9-3.3-1.3c-1.3-0.1-2.4-0.3-3.6-0.3
		c-1.7,0-3.6,0.1-5,0.5c-1.6,0.3-3,0.8-4.6,1.4l1.7,5.7c0.8-0.5,1.6-0.9,2.8-1.3c0.9-0.3,2.2-0.5,3.3-0.5c0.8,0,1.6,0,2.1,0.1
		s0.9,0.3,1.3,0.7c0.3,0.3,0.5,0.5,0.7,0.8c0.1,0.3,0.1,0.7,0.1,0.9v0.8c0,0.3-0.1,0.7-0.5,0.7c-0.3,0.1-0.7,0.1-1.2,0.1
		c-1.3,0-2.8,0.1-4,0.3c-1.4,0.1-2.8,0.5-3.8,1.2c-1.1,0.4-2,1.2-2.8,2.2c-0.8,1-1.2,2.2-1.2,3.8c0,0.9,0.1,2,0.5,2.8
		c0.3,0.8,0.8,1.6,1.4,2.2s1.3,1.2,2.2,1.4c0.8,0.3,1.7,0.5,2.9,0.5c1.6,0,3-0.3,4.2-0.8s2.1-1.3,3-2.4c0.3,0.8,0.8,1.6,1.6,2.1
		c0.8,0.5,1.7,0.8,3,0.8c0.8,0,1.6,0,2.4-0.1s1.4-0.3,2-0.3V27.9L176.2,27.9z M194,24c-0.1,0.7-0.3,1.3-0.7,2
		c-0.3,0.7-0.7,1.2-1.2,1.4c-0.5,0.3-1.2,0.7-2,0.7c-0.9,0-1.7-0.1-2.2-0.7c-0.5-0.5-0.7-0.9-0.7-1.7v-6.3c0-0.5,0-0.9,0.1-1.3
		c0.1-0.3,0.3-0.7,0.8-1.2c0.3-0.3,0.7-0.5,0.9-0.7c0.3-0.1,0.8-0.3,1.3-0.3c0.8,0,1.4,0.1,2,0.7c0.5,0.5,0.8,0.9,1.2,1.6
		c0.3,0.7,0.5,1.3,0.5,2c0.1,0.7,0.1,1.3,0.1,2C194.3,22.5,194.2,23.4,194,24L194,24z M202.1,16.7c-0.3-1.4-0.8-2.8-1.6-3.8
		c-0.8-1.2-1.6-2-2.8-2.8c-1.2-0.7-2.4-0.9-4-0.9c-1.4,0-2.8,0.3-3.7,0.9c-0.9,0.7-2,1.4-2.5,2.4V1.4h-8v31.4h7.8v-0.9
		c0.5,0.5,1.3,0.9,2.2,1.3c0.9,0.3,2,0.5,2.8,0.5c2,0,3.6-0.3,4.8-1.2c1.3-0.8,2.4-1.7,3.2-3c0.8-1.2,1.4-2.5,1.7-4
		c0.3-1.4,0.5-2.9,0.5-4.3C202.5,19.5,202.3,18.2,202.1,16.7L202.1,16.7z M214.2,32.8V1.4h-8v31.4H214.2z M225.5,18.3
		c0-0.5,0-0.8,0.1-1.3s0.3-0.9,0.7-1.3c0.3-0.5,0.7-0.8,1.2-0.9c0.5-0.3,0.9-0.3,1.7-0.3c1.2,0,2.1,0.5,2.8,1.3
		c0.7,0.8,0.8,1.7,0.8,2.9h-7.2v-0.3h-0.1V18.3z M239.4,15.9c-0.3-1.3-0.9-2.4-2-3.3c-0.8-0.9-2-1.7-3.3-2.4c-1.3-0.7-3-0.9-4.8-0.9
		c-2,0-3.7,0.3-5.1,0.9c-1.4,0.7-2.8,1.6-3.7,2.8s-1.7,2.4-2.2,3.8s-0.8,3-0.8,4.8c0,2.1,0.3,3.8,0.9,5.3s1.6,2.8,2.8,3.7
		c1.2,0.9,2.5,1.7,4.2,2.2s3.3,0.8,5.3,0.8c1.6,0,3.2-0.1,4.8-0.5c1.4-0.3,2.8-0.7,3.8-0.9l-1.4-5.7c-0.8,0.3-1.7,0.7-2.8,0.9
		c-0.9,0.3-2.1,0.5-3.2,0.5c-2.1,0-3.7-0.5-4.8-1.3c-1.2-0.8-1.6-2.1-1.6-3.6v-0.3h14.2c0-0.1,0-0.5,0-0.7v-0.8c0-0.3,0-0.7,0-0.8
		v-0.7C240.1,18.4,239.8,17.1,239.4,15.9L239.4,15.9z"/>
</g>
</svg>
