<svg id="Layer_1" data-name="Layer 1" xmlns="http://www.w3.org/2000/svg" viewBox="0 0 151.403 34.153"><title>runnable-logo</title><path d="M9.158,38.722H4.118L14.963,6.954h5.085Z" transform="translate(-4.118 -5.423)" fill="#fff"/><path d="M35.064,38.722V35.167C33.4,37.642,31.689,39.4,28.4,39.4c-6.75,0-9.225-7.29-9.225-12.914s2.834-12.42,10.529-12.42a7.265,7.265,0,0,1,4.9,1.755V5.423h6.345v33.3H35.064Zm-0.45-16.964c0-1.8-1.035-3.1-4.095-3.1-3.87,0-4.725,3.6-4.725,7.02,0,3.24.63,8.28,4.814,8.28a4.278,4.278,0,0,0,2.88-1.215,3.746,3.746,0,0,0,1.125-3.105V21.758Z" transform="translate(-4.118 -5.423)" fill="#fff"/><path d="M56.811,39.577c-7.875,0-11.384-5.939-11.384-12.778,0-6.8,3.825-12.78,11.609-12.78,7.875,0,11.384,5.9,11.384,12.734C68.421,33.547,64.6,39.577,56.811,39.577Zm0.18-20.609c-4,0-5,4.455-5,7.831s0.81,7.829,4.815,7.829,5.085-4.5,5.085-7.875S61,18.968,56.991,18.968Z" transform="translate(-4.118 -5.423)" fill="#fff"/><path d="M88.338,21.263a8.509,8.509,0,0,0-4.59-1.575c-3.645,0-5.49,3.15-5.49,7.245,0,4.5,3.015,7.02,5.85,7.02a9.266,9.266,0,0,0,4.635-1.395L90.5,37.417A15.2,15.2,0,0,1,83.343,39.4c-7.38,0-11.609-5.31-11.609-12.329,0-6.57,3.465-12.87,11.609-12.87a15.489,15.489,0,0,1,7.2,1.71Z" transform="translate(-4.118 -5.423)" fill="#fff"/><path d="M107.688,38.722l-5.4-10.754-1.665,2.2v8.55H94.278V5.423h6.345v18.4l6.66-9.134h7.38l-7.6,9.314L115.2,38.722h-7.515Z" transform="translate(-4.118 -5.423)" fill="#fff"/><path d="M137.179,27.877H122.33c0.045,3.511,2.385,6.39,6.885,6.39a13.461,13.461,0,0,0,5.9-1.574l1.71,4.814a21.316,21.316,0,0,1-8.55,1.89c-7.515,0-12.239-5-12.239-12.464,0-6.345,3.419-12.825,11.114-12.825,7.425,0,10.169,5.625,10.169,11.159A17.827,17.827,0,0,1,137.179,27.877Zm-10.3-9.359c-3.6,0-4.68,3.06-4.68,5.175h9.135C131.554,21.173,130.069,18.518,126.875,18.518Z" transform="translate(-4.118 -5.423)" fill="#fff"/><path d="M153.857,20.948a5.619,5.619,0,0,0-2.115-.63,3.653,3.653,0,0,0-2.61.945,4.1,4.1,0,0,0-.9,3.06v14.4h-6.345V20.768c0-2.07-.18-4.95-0.225-6.075h5.67v3.689c1.44-2.295,2.925-4.185,5.895-4.185a7.121,7.121,0,0,1,2.295.45Z" transform="translate(-4.118 -5.423)" fill="#fff"/></svg>