<svg id="Layer_1" data-name="Layer 1" xmlns="http://www.w3.org/2000/svg" viewBox="0 0 45 45"><title>Artboard 3</title><path d="M28.55,1.5H6.8A1.1,1.1,0,0,0,5.7,2.6h0V42.767a.733.733,0,0,0,.734.733H38.565a.733.733,0,0,0,.735-.732V12.25Z" fill="#fff" stroke="#52306c" stroke-linejoin="round" stroke-width="2"/><path d="M39.3,13.161H29.65a1.1,1.1,0,0,1-1.1-1.1h0V2.411L39.3,12.25v.911h0Z" stroke="#000" stroke-linejoin="round" stroke-width="1.397" opacity="0.12" style="isolation:isolate"/><path d="M39.3,12.25H29.65a1.1,1.1,0,0,1-1.1-1.1h0V1.5Z" fill="#f3f3f3" stroke="#52306c" stroke-linejoin="round"/><circle cx="17.25" cy="19.875" r="1.05" fill="#52306c"/><circle cx="27.75" cy="19.875" r="1.05" fill="#52306c"/><path d="M27.7,26.647a7.35,7.35,0,0,1-10.394,0" fill="none" stroke="#52306c" stroke-linecap="round" stroke-linejoin="round"/></svg>