<svg id="Layer_1" data-name="Layer 1" xmlns="http://www.w3.org/2000/svg" viewBox="0 0 90 90"><title>Artboard 1</title><path d="M77,69.127V25.477L56.523,5H15.1A2.1,2.1,0,0,0,13,7.094h0V69.127Z" fill="#ffe2c0" stroke="#52306c" stroke-linejoin="round" stroke-width="2"/><path d="M77,27.211H58.618a2.1,2.1,0,0,1-2.1-2.095h0V6.735L77,25.477v1.735h0Z" stroke="#000" stroke-linejoin="round" stroke-width="1.397" opacity="0.12" style="isolation:isolate"/><path d="M77,25.477H58.618a2.1,2.1,0,0,1-2.1-2.095h0V5Z" fill="#ffe2c0" stroke="#52306c" stroke-linejoin="round" stroke-width="1.397"/><path d="M13,69.127V83.6A1.4,1.4,0,0,0,14.4,85H75.6A1.4,1.4,0,0,0,77,83.606V69.127Z" fill="#e5c9ae" stroke="#52306c" stroke-linejoin="round" stroke-width="2"/><path d="M20.2,77.661c0,.779.311,1.165.824,1.165A.748.748,0,0,0,21.78,78h1.166v.161A1.74,1.74,0,0,1,21,79.831a1.942,1.942,0,0,1-2.058-2.178v-.468A1.948,1.948,0,0,1,21,75a1.748,1.748,0,0,1,1.941,1.7v.153H21.78a.767.767,0,0,0-.766-.851c-.506,0-.816.4-.816,1.179Z" fill="#52306c"/><path d="M23.919,77.172A1.977,1.977,0,0,1,26.042,75a1.975,1.975,0,0,1,2.115,2.171v.513a1.962,1.962,0,0,1-2.119,2.146,1.962,1.962,0,0,1-2.119-2.146Zm1.251.52c0,.766.345,1.155.868,1.155s.868-.39.868-1.155v-.536c0-.766-.345-1.166-.868-1.166s-.868.4-.868,1.166Z" fill="#52306c"/><path d="M29.327,79.749V75.083H30.6l1.135,2.465h.041l1.135-2.465h1.262v4.666h-1.1v-2.8h-.055l-.926,2.037H31.4l-.933-2.037h-.055v2.8Z" fill="#52306c"/><path d="M37.538,75.083a1.639,1.639,0,1,1-.017,3.278h-.782v1.388H35.515V75.083Zm-.807,2.373h.414c.5,0,.813-.216.813-.722a.662.662,0,0,0-.725-.725h-.5Z" fill="#52306c"/><path d="M40.115,77.172a2.12,2.12,0,1,1,4.238,0v.513a2.119,2.119,0,1,1-4.238,0Zm1.251.52c0,.766.346,1.155.868,1.155s.868-.39.868-1.155v-.536c0-.766-.346-1.166-.868-1.166s-.868.4-.868,1.166Z" fill="#52306c"/><path d="M46.444,78.364c.017.277.283.547.8.547.492,0,.708-.208.708-.481s-.232-.394-.681-.481l-.629-.127c-.714-.141-1.264-.516-1.264-1.347,0-.943.775-1.477,1.855-1.477,1.189,0,1.832.667,1.836,1.442H47.948c-.014-.26-.24-.533-.715-.533-.42,0-.639.2-.639.469,0,.235.222.372.618.443l.653.123A1.334,1.334,0,0,1,49.154,78.3c0,.912-.681,1.527-1.948,1.527-1.459,0-1.914-.779-1.921-1.467Z" fill="#52306c"/><path d="M53.483,79.749h-3.2V75.083h3.2v.961H51.5v.923h1.855v.882H51.5v.939h1.982Z" fill="#52306c"/><path d="M55.32,78.522a.654.654,0,1,1-.656.652A.655.655,0,0,1,55.32,78.522Z" fill="#52306c"/><path d="M57.761,79.749V78.194L56.2,75.083h1.337l.837,1.895h.041l.842-1.895h1.291l-1.562,3.076v1.59Z" fill="#52306c"/><path d="M61.444,79.749V75.083h1.271l1.135,2.465h.041l1.135-2.465h1.262v4.666h-1.1v-2.8h-.055l-.926,2.037h-.687l-.933-2.037h-.055v2.8Z" fill="#52306c"/><path d="M70.681,79.749H67.632V75.083h1.227v3.65h1.822Z" fill="#52306c"/><path d="M56.188,47.019a.963.963,0,0,0-.963-.963c-3.457,0-4.406-1.7-5.629-3.2a2.469,2.469,0,0,0-.263-.358,8.334,8.334,0,0,0,4.032-7.373,8.369,8.369,0,0,0-16.734.245A8.337,8.337,0,0,0,40.667,42.5a2.467,2.467,0,0,0-.263.358c-1.223,1.5-2.172,3.2-5.629,3.2a.958.958,0,0,0-.413,1.825v.006l.019.006a.949.949,0,0,0,.1.03,9.8,9.8,0,0,0,5.492.047.136.136,0,0,1,.119.237A10.1,10.1,0,0,1,37,49.981v0a.96.96,0,0,0-.607.891.946.946,0,0,0,.371.741l0,.017a1.39,1.39,0,0,0,.154.086.964.964,0,0,0,.087.048c1.777.848,6.954-.725,7.919-2.939l0,0,.044-.024c.054.028.1.062.159.086C46.148,51.066,51.229,52.6,53,51.77a.919.919,0,0,0,.114-.063,1.372,1.372,0,0,0,.135-.075l0-.015a.946.946,0,0,0,.371-.741h0a.96.96,0,0,0-.607-.891v0a10.1,10.1,0,0,1-3.1-1.774.136.136,0,0,1,.119-.237,9.818,9.818,0,0,0,5.467-.04.955.955,0,0,0,.132-.039l.013,0v0a.958.958,0,0,0,.55-.862h0Z" fill="#ccaa93"/></svg>